SplineFontDB: 3.2
FontName: DugiBialan
FullName: DugiBialan
FamilyName: DugiBialan
Weight: Regular
Copyright: Copyright (c) 2023, Matthew Stoodley
UComments: "2023-4-21: Created with FontForge (http://fontforge.org)+AAoACgAA-A font primarily for Tugi Balain, a simplistic language of Balance.+AAoACgAA-Chars should start at u+-E100+AAoACgAA-words at u+-e130+AAoA"
Version: 001.000
ItalicAngle: 0
UnderlinePosition: -100
UnderlineWidth: 50
Ascent: 800
Descent: 200
InvalidEm: 0
LayerCount: 2
Layer: 0 0 "Back" 1
Layer: 1 0 "Fore" 0
XUID: [1021 281 1886307050 7559614]
OS2Version: 0
OS2_WeightWidthSlopeOnly: 0
OS2_UseTypoMetrics: 1
CreationTime: 1682106083
ModificationTime: 1685376978
OS2TypoAscent: 0
OS2TypoAOffset: 1
OS2TypoDescent: 0
OS2TypoDOffset: 1
OS2TypoLinegap: 0
OS2WinAscent: 0
OS2WinAOffset: 1
OS2WinDescent: 0
OS2WinDOffset: 1
HheadAscent: 0
HheadAOffset: 1
HheadDescent: 0
HheadDOffset: 1
OS2Vendor: 'PfEd'
MarkAttachClasses: 1
DEI: 91125
Encoding: UnicodeFull
UnicodeInterp: none
NameList: AGL For New Fonts
DisplaySize: -72
AntiAlias: 1
FitToEm: 0
WinInfo: 57616 26 10
BeginPrivate: 0
EndPrivate
BeginChars: 1114112 180

StartChar: uniE100
Encoding: 57600 57600 0
Width: 1000
InSpiro: 1
Flags: HW
LayerCount: 2
Fore
SplineSet
223.427734375 481.04296875 m 0
 223.427734375 402.24609375 240.850585938 387.168945312 240.850585938 133.180664062 c 0
 240.850585938 2.1357421875 235.92578125 -114.537109375 235.8984375 -115.8203125 c 0
 235.8984375 -132.377929688 249.340820312 -145.8203125 265.8984375 -145.8203125 c 0
 282.025390625 -145.8203125 295.198242188 -133.067382812 295.87109375 -117.103515625 c 0
 296.420898438 -104.071289062 310.729492188 244.9140625 288.286132812 411.974609375 c 0
 260.299804688 620.301757812 359.052734375 712.713867188 443.229492188 669.33984375 c 0
 491.453125 644.491210938 542.15625 568.76171875 542.15625 427.405273438 c 0
 542.15625 411.18359375 541.34765625 395.498046875 541.34765625 395.17578125 c 0
 541.34765625 378.618164062 554.790039062 365.17578125 571.34765625 365.17578125 c 0
 587.40234375 365.17578125 600.529296875 377.815429688 601.310546875 393.677734375 c 0
 601.87890625 405.19921875 602.15625 416.440429688 602.15625 427.405273438 c 0
 602.15625 771.883789062 329.671875 824.826171875 247.197265625 618.797851562 c 0
 231.971679688 580.760742188 223.427734375 534.767578125 223.427734375 481.04296875 c 0
497.65625 182.181640625 m 0
 497.65625 277.086914062 610.837890625 397.1875 670.98046875 389.079101562 c 0
 743.04296875 379.376953125 817.666992188 218.0390625 762.682617188 138.448242188 c 0
 737.033203125 101.328125 684.420898438 78.5068359375 630.49609375 78.5068359375 c 0
 559.577148438 78.5068359375 497.65625 117.53125 497.65625 182.181640625 c 0
812.083007812 104.403320312 m 0
 894.907226562 224.29296875 790.147460938 449.438476562 665.428710938 449.438476562 c 0
 564.2109375 449.438476562 437.65625 302.041015625 437.65625 182.181640625 c 0
 437.65625 84.6650390625 524.004882812 18.5068359375 630.49609375 18.5068359375 c 0
 699.184570312 18.5068359375 771.671875 45.9189453125 812.083007812 104.403320312 c 0
223.427734375 481.04296875 m 0
 223.427734375 402.24609375 240.850585938 387.168945312 240.850585938 133.180664062 c 0
 240.850585938 2.1357421875 235.92578125 -114.537109375 235.8984375 -115.8203125 c 0
 235.8984375 -132.377929688 249.340820312 -145.8203125 265.8984375 -145.8203125 c 0
 282.025390625 -145.8203125 295.198242188 -133.067382812 295.87109375 -117.103515625 c 0
 296.420898438 -104.071289062 310.729492188 244.9140625 288.286132812 411.974609375 c 0
 260.299804688 620.301757812 359.052734375 712.713867188 443.229492188 669.33984375 c 0
 491.453125 644.491210938 542.15625 568.76171875 542.15625 427.405273438 c 0
 542.15625 411.18359375 541.34765625 395.498046875 541.34765625 395.17578125 c 0
 541.34765625 378.618164062 554.790039062 365.17578125 571.34765625 365.17578125 c 0
 587.40234375 365.17578125 600.529296875 377.815429688 601.310546875 393.677734375 c 0
 601.87890625 405.19921875 602.15625 416.440429688 602.15625 427.405273438 c 0
 602.15625 771.883789062 329.671875 824.826171875 247.197265625 618.797851562 c 0
 231.971679688 580.760742188 223.427734375 534.767578125 223.427734375 481.04296875 c 0
497.65625 182.181640625 m 0
 497.65625 277.086914062 610.837890625 397.1875 670.98046875 389.079101562 c 0
 743.04296875 379.376953125 817.666992188 218.0390625 762.682617188 138.448242188 c 0
 737.033203125 101.328125 684.420898438 78.5068359375 630.49609375 78.5068359375 c 0
 559.577148438 78.5068359375 497.65625 117.53125 497.65625 182.181640625 c 0
812.083007812 104.403320312 m 0
 894.907226562 224.29296875 790.147460938 449.438476562 665.428710938 449.438476562 c 0
 564.2109375 449.438476562 437.65625 302.041015625 437.65625 182.181640625 c 0
 437.65625 84.6650390625 524.004882812 18.5068359375 630.49609375 18.5068359375 c 0
 699.184570312 18.5068359375 771.671875 45.9189453125 812.083007812 104.403320312 c 0
EndSplineSet
EndChar

StartChar: uniE120
Encoding: 57632 57632 1
Width: 1000
Flags: HW
LayerCount: 2
Fore
SplineSet
637.890625 -151.008789062 m 0
 677.95703125 -151.008789062 701.736328125 -105.864257812 679.216796875 -72.87109375 c 2
 128.044921875 734.6484375 l 2
 119.040039062 747.842773438 103.883789062 756.510742188 86.71875 756.510742188 c 0
 46.65234375 756.510742188 22.873046875 711.365234375 45.392578125 678.372070312 c 2
 596.564453125 -129.147460938 l 2
 605.569335938 -142.340820312 620.725585938 -151.008789062 637.890625 -151.008789062 c 0
EndSplineSet
EndChar

StartChar: uniE121
Encoding: 57633 57633 2
Width: 1000
Flags: H
LayerCount: 2
Fore
SplineSet
125.392578125 384.350585938 m 0
 216.90625 450.993164062 532.346679688 460.022460938 704.37109375 396.091796875 c 0
 716.646484375 391.530273438 791.364257812 362.420898438 791.364257812 329.778320312 c 0
 791.364257812 314.317382812 766.439453125 291.771484375 720.42578125 272.395507812 c 0
 565.95703125 207.350585938 258.4453125 206.647460938 145.995117188 294.8046875 c 0
 112.48046875 321.079101562 108.905273438 346.36328125 108.905273438 361.9921875 c 0
 108.944335938 365.288085938 109.02734375 372.43359375 125.392578125 384.350585938 c 0
441 125.639648438 m 0
 648.211914062 125.639648438 891.364257812 186.790039062 891.364257812 329.778320312 c 0
 891.364257812 527.458984375 447.298828125 569.764648438 212.05859375 521.666015625 c 0
 163.958007812 511.831054688 120.830078125 498.108398438 85.2490234375 477.36328125 c 0
 46.353515625 454.686523438 9.6689453125 417.709960938 8.9248046875 364.654296875 c 0
 8.833984375 192.370117188 222.141601562 125.639648438 441 125.639648438 c 0
58.90625 363.9296875 m 0
 61.4306640625 542.513671875 814.361328125 528.0703125 840.69140625 339.384765625 c 0
 868.047851562 143.342773438 55.048828125 91.0107421875 58.90625 363.9296875 c 0
495.87109375 631.717773438 m 0
 551.571289062 481.96875 523.047851562 120.524414062 444.993164062 11.451171875 c 0
 433.069335938 -5.2109375 424.174804688 -8.693359375 423.015625 -8.693359375 c 0
 422.400390625 -8.453125 401.047851562 0.2568359375 376.893554688 62.939453125 c 0
 316.752929688 219.006835938 310.337890625 521.46875 397.913085938 635.545898438 c 0
 418.208984375 661.983398438 439.243164062 674.106445312 466.940429688 675.75390625 c 0
 472.111328125 675.75390625 484.786132812 661.522460938 495.87109375 631.717773438 c 0
318.547851562 696.360351562 m 0
 191.384765625 530.717773438 217.982421875 137.89453125 305.982421875 -21.837890625 c 0
 330.958984375 -67.1748046875 368.673828125 -108.698242188 423.029296875 -108.698242188 c 0
 574.540039062 -108.698242188 625.094726562 202.926757812 625.094726562 409.572265625 c 0
 625.094726562 491.618164062 617.282226562 625.38671875 571.653320312 705.703125 c 0
 556.431640625 732.495117188 521.0234375 779.184570312 460.479492188 775.560546875 c 0
 400.569335938 771.97265625 352.127929688 740.102539062 318.547851562 696.360351562 c 0
463.502929688 725.647460938 m 0
 633.180664062 735.797851562 596.765625 -5.990234375 438.958007812 -56.13671875 c 0
 269.357421875 -110.03125 183.0390625 708.870117188 463.502929688 725.647460938 c 0
EndSplineSet
EndChar

StartChar: uniE122
Encoding: 57634 57634 3
Width: 1000
Flags: HW
LayerCount: 2
Fore
SplineSet
152.536132812 704.330078125 m 2
 154.653320312 733.40625 131.618164062 758.0078125 102.668945312 758.0078125 c 0
 76.310546875 758.0078125 54.6884765625 737.56640625 52.802734375 711.685546875 c 0
 50.916015625 685.7890625 15.3369140625 170.366210938 154.829101562 -57.818359375 c 0
 173.797851562 -88.8466796875 230.947265625 -175.004882812 341.700195312 -175.004882812 c 0
 495.998046875 -175.004882812 595.954101562 -9.6611328125 660.537109375 215.555664062 c 0
 728.9375 454.08203125 747.0703125 718.725585938 747.0703125 724.739257812 c 0
 747.0703125 752.334960938 724.666015625 774.739257812 697.0703125 774.739257812 c 0
 670.624023438 774.739257812 648.9453125 754.163085938 647.185546875 728.159179688 c 0
 638.92578125 606.821289062 588.749023438 167.420898438 452.03125 -7.9306640625 c 0
 413.155273438 -57.7919921875 374.916015625 -77.60546875 334.049804688 -74.7333984375 c 0
 314.977539062 -73.392578125 277.509765625 -66.7783203125 240.213867188 -5.7685546875 c 0
 223.908203125 20.9033203125 209.486328125 55.2265625 197.616210938 94.3203125 c 0
 157.389648438 226.8046875 147.624023438 409.758789062 147.624023438 540.16796875 c 0
 147.624023438 637.673828125 152.536132812 704.330078125 152.536132812 704.330078125 c 2
102.662109375 708.015625 m 0
 102.662109375 708.015625 43.4814453125 -104.42578125 330.515625 -124.595703125 c 0
 638.110351562 -146.209960938 697.072265625 724.741210938 697.072265625 724.741210938 c 1024
EndSplineSet
EndChar

StartChar: uniE123
Encoding: 57635 57635 4
Width: 1000
Flags: HW
LayerCount: 2
Fore
SplineSet
652.749023438 448.02734375 m 0
 578.012695312 423.232421875 402.752929688 454.827148438 278.442382812 454.827148438 c 0
 220.068359375 454.827148438 129.026367188 450.094726562 90.0546875 385.83984375 c 0
 65.51953125 345.388671875 66.0654296875 282.227539062 105.681640625 240.344726562 c 0
 136.404296875 207.864257812 181.036132812 194.05078125 227.607421875 179.63671875 c 0
 298.903320312 157.5703125 340.50390625 141.926757812 350.798828125 95.5322265625 c 0
 310.176757812 73.56640625 214.624023438 66.3671875 154.580078125 37.4404296875 c 0
 130.643554688 25.908203125 93.771484375 1.2626953125 93.771484375 -45.4501953125 c 0
 93.771484375 -59.6943359375 97.431640625 -72.7158203125 102.8125 -84.2880859375 c 0
 110.762695312 -101.383789062 128.094726562 -113.249023438 148.176757812 -113.249023438 c 0
 179.818359375 -113.249023438 203.516601562 -84.1328125 197.15625 -53.154296875 c 0
 242.399414062 -31.2001953125 331.7734375 -24.9267578125 391.295898438 3.86328125 c 0
 416.8984375 16.2470703125 457.940429688 44.5654296875 451.80859375 97.1328125 c 0
 437.13671875 222.651367188 322.794921875 254.875976562 257.173828125 275.185546875 c 0
 226.83203125 284.577148438 190.963867188 295.678710938 178.331054688 309.033203125 c 0
 175.01171875 312.54296875 173.87109375 314.129882812 173.495117188 323.436523438 c 0
 173.495117188 331.283203125 173.495117188 338.411132812 195.245117188 345.580078125 c 0
 268.64453125 369.772460938 444.260742188 338.48828125 567.659179688 338.48828125 c 0
 626.518554688 338.48828125 719.573242188 343.209960938 759.16015625 408.892578125 c 0
 787.5078125 455.92578125 779.2109375 526.569335938 739.625 576.896484375 c 0
 682.59765625 649.399414062 551.241210938 701.448242188 291.419921875 701.448242188 c 0
 193.10546875 701.448242188 118.258789062 693.62890625 117.120117188 693.510742188 c 0
 91.984375 690.88671875 72.36328125 669.607421875 72.36328125 643.782226562 c 0
 72.36328125 614.201171875 98.0009765625 590.963867188 127.606445312 594.0546875 c 0
 237.505859375 605.66015625 550.978515625 614.841796875 649.296875 527.438476562 c 0
 667.344726562 511.393554688 675.364257812 495.709960938 675.87109375 472.291992188 c 0
 675.87109375 463.301757812 675.370117188 455.532226562 652.749023438 448.02734375 c 0
148.168945312 -63.2490234375 m 0
 103.624023438 32.5830078125 412.045898438 6.451171875 402.137695312 91.263671875 c 0
 382.618164062 258.354492188 129.103515625 198.6953125 123.616210938 318.887695312 c 0
 114.244140625 524.189453125 730.390625 269.072265625 725.833984375 474.537109375 c 0
 720.6953125 706.258789062 122.35546875 643.797851562 122.35546875 643.797851562 c 1024
EndSplineSet
EndChar

StartChar: uniE13A
Encoding: 57658 57658 5
Width: 1000
Flags: HW
LayerCount: 2
Fore
SplineSet
963.0078125 244.04296875 m 2
 963.0078125 260.600585938 949.565429688 274.04296875 933.0078125 274.04296875 c 0
 916.450195312 274.04296875 903.0078125 260.600585938 903.0078125 244.04296875 c 2
 903.0078125 -11 l 1
 51.6162109375 -12.2265625 l 2
 35.0791015625 -12.25 21.66015625 -25.68359375 21.66015625 -42.2265625 c 0
 21.66015625 -58.7841796875 35.1025390625 -72.2265625 51.7041015625 -72.2265625 c 2
 933.051757812 -70.95703125 l 2
 949.588867188 -70.93359375 963.0078125 -57.5 963.0078125 -40.95703125 c 2
 963.0078125 244.04296875 l 2
EndSplineSet
EndChar

StartChar: uniE13B
Encoding: 57659 57659 6
Width: 1000
Flags: H
LayerCount: 2
Fore
SplineSet
327.200195312 -12.2255859375 m 2
 347.04296875 -24.8828125 373.30078125 -10.546875 373.30078125 13.0859375 c 0
 373.30078125 23.7197265625 367.755859375 33.0693359375 359.401367188 38.3974609375 c 2
 253.860351562 105.713867188 l 1
 356.870117188 148.530273438 509.755859375 219.280273438 585.208984375 289.228515625 c 0
 631.858398438 332.473632812 693.635742188 414.086914062 775.336914062 564.06640625 c 1
 758.58203125 342.135742188 728.416015625 129.9921875 620.22265625 -45.69140625 c 0
 604.154296875 -69.4697265625 627.25 -99.8291015625 654.079101562 -91.2880859375 c 0
 689.614257812 -95.21875 754.744140625 -111.583984375 805.962890625 -111.58203125 c 0
 822.463867188 -111.515625 835.83984375 -98.0986328125 835.83984375 -81.58203125 c 0
 835.83984375 -65.0244140625 822.397460938 -51.58203125 805.100585938 -51.583984375 c 0
 781.193359375 -51.583984375 745.323242188 -45.9609375 694.689453125 -36.689453125 c 1
 813.375976562 182.624023438 828.436523438 441.197265625 844.16015625 694.073242188 c 2
 844.16015625 694.073242188 844.8828125 705.688476562 844.94140625 707.578125 c 0
 844.94140625 739.37109375 801.22265625 749.09765625 787.745117188 720.25 c 0
 785.810546875 716.107421875 652.685546875 433.581054688 544.439453125 333.232421875 c 0
 461.888671875 256.706054688 250.953125 167.502929688 177.885742188 139.91015625 c 0
 154.921875 131.232421875 151.525390625 99.822265625 172.375976562 86.5244140625 c 2
 327.200195312 -12.2255859375 l 2
343.294921875 13.0810546875 m 1
 188.4765625 111.828125 l 1
 188.4765625 111.828125 460.711914062 214.713867188 564.828125 311.231445312 c 0
 679.396484375 417.436523438 814.946289062 707.576171875 814.946289062 707.576171875 c 1
 797.904296875 434.086914062 782.639648438 159.846679688 644.978515625 -62.7041015625 c 1
 648.26171875 -54.13671875 747.639648438 -81.8076171875 805.83203125 -81.5849609375 c 1024
EndSplineSet
EndChar

StartChar: uniE13C
Encoding: 57660 57660 7
Width: 1000
Flags: H
LayerCount: 2
Fore
SplineSet
136.50390625 181.5234375 m 0
 152.83203125 181.5234375 166.130859375 194.595703125 166.49609375 210.836914062 c 2
 173.83203125 536.611328125 l 1
 846.827148438 524.395507812 l 1
 842.08984375 217.677734375 842.08984375 217.677734375 842.08984375 217.44140625 c 0
 842.08984375 200.883789062 855.532226562 187.44140625 872.08984375 187.44140625 c 0
 888.490234375 187.44140625 901.833984375 200.629882812 902.0859375 216.969726562 c 0
 907.28515625 553.611328125 907.28515625 553.611328125 907.28515625 553.84765625 c 0
 907.28515625 570.219726562 894.141601562 583.546875 877.838867188 583.842773438 c 0
 144.7890625 597.1484375 144.7890625 597.1484375 144.51171875 597.1484375 c 0
 128.18359375 597.1484375 114.884765625 584.076171875 114.51953125 567.834960938 c 2
 114.51953125 567.834960938 106.51171875 212.209960938 106.50390625 211.5234375 c 0
 106.50390625 194.965820312 119.946289062 181.5234375 136.50390625 181.5234375 c 0
559.858398438 514.853515625 m 2
 567.514648438 534.39453125 553.065429688 555.78125 531.9140625 555.78125 c 0
 519.2109375 555.78125 508.341796875 547.869140625 503.969726562 536.708984375 c 2
 382.270507812 226.083984375 l 2
 374.734375 206.848632812 388.6171875 185.748046875 409.362304688 185.16796875 c 2
 549.31640625 181.25390625 l 1
 433.291015625 -65.1572265625 l 2
 423.991210938 -84.9072265625 438.452148438 -107.91015625 460.44921875 -107.91015625 c 0
 472.447265625 -107.91015625 482.810546875 -100.8515625 487.607421875 -90.6630859375 c 2
 623.154296875 197.208007812 l 2
 632.310546875 216.654296875 618.43359375 239.345703125 596.848632812 239.94921875 c 2
 453.72265625 243.951171875 l 1
 559.858398438 514.853515625 l 2
EndSplineSet
EndChar

StartChar: uniE13D
Encoding: 57661 57661 8
Width: 1000
Flags: H
LayerCount: 2
Fore
SplineSet
899.47265625 192.65625 m 0
 882.915039062 192.65625 869.47265625 179.213867188 869.473632812 162.461914062 c 2
 870.646484375 -22.2744140625 l 1
 103.845703125 705.432617188 l 2
 84.7998046875 723.5078125 53.203125 709.868164062 53.203125 683.671875 c 0
 53.203125 675.109375 56.7978515625 667.379882812 62.560546875 661.911132812 c 2
 880.451171875 -114.280273438 l 2
 899.458984375 -132.319335938 931.09375 -118.827148438 931.092773438 -92.3251953125 c 2
 929.471679688 162.850585938 l 2
 929.3671875 179.318359375 915.96484375 192.65625 899.47265625 192.65625 c 0
495.60546875 588.57421875 m 0
 479.2109375 588.57421875 465.870117188 575.39453125 465.609375 559.0625 c 0
 457.2265625 34.384765625 457.2265625 34.384765625 457.2265625 34.140625 c 0
 457.2265625 17.5830078125 470.668945312 4.140625 487.2265625 4.140625 c 0
 503.62109375 4.140625 516.961914062 17.3203125 517.22265625 33.65234375 c 2
 517.22265625 33.65234375 525.6015625 558.0859375 525.60546875 558.57421875 c 0
 525.60546875 575.131835938 512.163085938 588.57421875 495.60546875 588.57421875 c 0
495.60546875 558.57421875 m 1
 487.225585938 34.134765625 l 1025
EndSplineSet
EndChar

StartChar: uniE13E
Encoding: 57662 57662 9
Width: 1000
Flags: H
LayerCount: 2
Fore
SplineSet
106.828125 681.278320312 m 0
 87.779296875 699.344726562 56.19140625 685.704101562 56.19140625 659.51171875 c 0
 56.19140625 650.9453125 59.7890625 643.213867188 65.5546875 637.745117188 c 0
 208.973632812 501.719726562 359.71484375 433.72265625 509.712890625 433.72265625 c 0
 656.259765625 433.72265625 797.790039062 498.641601562 926.6796875 618.60546875 c 0
 946.564453125 637.11328125 933.31640625 670.56640625 906.25 670.56640625 c 0
 898.360351562 670.56640625 891.178710938 667.514648438 885.8203125 662.52734375 c 0
 764.942382812 550.020507812 637.717773438 493.72265625 509.712890625 493.72265625 c 0
 378.723632812 493.72265625 242.404296875 552.69140625 106.828125 681.278320312 c 0
500.76171875 395.0390625 m 0
 484.204101562 395.0390625 470.76171875 381.596679688 470.763671875 364.724609375 c 2
 476.017578125 -145.119140625 l 2
 476.186523438 -161.532226562 489.563476562 -174.8046875 506.015625 -174.8046875 c 0
 522.573242188 -174.8046875 536.015625 -161.362304688 536.013671875 -144.490234375 c 2
 530.759765625 365.353515625 l 2
 530.590820312 381.766601562 517.213867188 395.0390625 500.76171875 395.0390625 c 0
EndSplineSet
EndChar

StartChar: uniE13F
Encoding: 57663 57663 10
Width: 1000
Flags: H
LayerCount: 2
Fore
SplineSet
601.517578125 743.6796875 m 2
 609.17578125 763.220703125 594.7265625 784.609375 573.57421875 784.609375 c 0
 560.872070312 784.609375 550.00390625 776.698242188 545.630859375 765.5390625 c 2
 423.912109375 454.93359375 l 2
 416.375 435.700195312 430.254882812 414.59765625 451 414.015625 c 2
 590.977539062 410.086914062 l 1
 474.952148438 163.69140625 l 2
 465.651367188 143.94140625 480.112304688 120.9375 502.109375 120.9375 c 0
 514.107421875 120.9375 524.469726562 127.99609375 529.266601562 138.18359375 c 2
 664.813476562 426.03515625 l 2
 673.970703125 445.48046875 660.095703125 468.170898438 638.51171875 468.77734375 c 2
 495.364257812 472.794921875 l 1
 601.517578125 743.6796875 l 2
163.276367188 -81.646484375 m 2
 137.438476562 -97.30078125 148.688476562 -137.32421875 178.7890625 -137.32421875 c 0
 184.46484375 -137.32421875 189.774414062 -135.745117188 194.301757812 -133.001953125 c 2
 499.747070312 52.05078125 l 1
 763.495117188 -131.534179688 l 2
 783.271484375 -145.298828125 810.60546875 -131.0546875 810.60546875 -106.89453125 c 0
 810.60546875 -96.6943359375 805.50390625 -87.6767578125 797.715820312 -82.2548828125 c 2
 517.989257812 112.452148438 l 2
 508.22265625 119.249023438 495.411132812 119.576171875 485.366210938 113.490234375 c 2
 163.276367188 -81.646484375 l 2
EndSplineSet
EndChar

StartChar: uniE140
Encoding: 57664 57664 11
Width: 1000
Flags: H
LayerCount: 2
Fore
SplineSet
543.041992188 171.271484375 m 0
 629.477539062 331.999023438 534.028320312 420.162109375 425.18359375 420.162109375 c 0
 347.4140625 420.162109375 253.344726562 372.350585938 253.344726562 272.512695312 c 0
 253.344726562 240.924804688 263.184570312 206.9765625 283.611328125 170.956054688 c 0
 298.727539062 144.299804688 339.7265625 155.17578125 339.7265625 185.72265625 c 0
 339.7265625 191.088867188 338.314453125 196.12890625 335.841796875 200.489257812 c 0
 319.2734375 229.705078125 313.344726562 253.754882812 313.344726562 272.512695312 c 0
 313.344726562 325.66015625 364.884765625 360.162109375 425.18359375 360.162109375 c 0
 439.953125 360.162109375 516.590820312 356.732421875 516.590820312 285.546875 c 0
 516.590820312 264.500976562 509.60546875 235.783203125 490.161132812 199.626953125 c 0
 479.490234375 179.78515625 493.92578125 155.44921875 516.6015625 155.44921875 c 0
 528.032226562 155.44921875 537.978515625 161.856445312 543.041992188 171.271484375 c 0
689.51171875 680.78125 m 0
 673.004882812 680.78125 659.594726562 667.421875 659.51171875 650.934570312 c 2
 655.868164062 -77.208984375 l 1
 428.680664062 -83.2529296875 l 2
 412.498046875 -83.68359375 399.4921875 -96.9560546875 399.4921875 -113.2421875 c 0
 399.4921875 -130.08203125 413.391601562 -143.681640625 430.303710938 -143.231445312 c 2
 686.534179688 -136.415039062 l 2
 702.666015625 -135.985351562 715.641601562 -122.794921875 715.72265625 -106.579101562 c 2
 715.72265625 -106.579101562 719.51171875 650.627929688 719.51171875 650.78125 c 0
 719.51171875 667.338867188 706.069335938 680.78125 689.51171875 680.78125 c 0
EndSplineSet
EndChar

StartChar: uniE141
Encoding: 57665 57665 12
Width: 1000
Flags: H
LayerCount: 2
Fore
SplineSet
686.03515625 -115.64453125 m 2
 702.592773438 -115.64453125 716.03515625 -102.202148438 716.03515625 -85.64453125 c 0
 716.03515625 -69.0869140625 702.592773438 -55.64453125 686.03515625 -55.64453125 c 2
 452.592773438 -55.64453125 l 1
 451.4453125 734.009765625 l 2
 451.420898438 750.545898438 437.98828125 763.96484375 421.4453125 763.96484375 c 0
 404.887695312 763.96484375 391.4453125 750.522460938 391.4453125 733.919921875 c 2
 392.63671875 -85.689453125 l 2
 392.661132812 -102.225585938 406.09375 -115.64453125 422.63671875 -115.64453125 c 2
 686.03515625 -115.64453125 l 2
EndSplineSet
EndChar

StartChar: uniE142
Encoding: 57666 57666 13
Width: 1000
Flags: H
LayerCount: 2
Fore
SplineSet
511.9921875 610.46875 m 0
 495.639648438 610.46875 482.326171875 597.357421875 481.998046875 581.083007812 c 2
 476.727539062 319.1796875 l 1
 208.310546875 207.395507812 l 2
 197.459960938 202.876953125 189.82421875 192.166992188 189.82421875 179.6875 c 0
 189.82421875 158.266601562 211.719726562 143.809570312 231.337890625 151.979492188 c 2
 517.841796875 271.295898438 l 2
 528.513671875 275.740234375 536.076171875 286.173828125 536.322265625 298.389648438 c 2
 536.322265625 298.389648438 541.986328125 579.854492188 541.9921875 580.46875 c 0
 541.9921875 597.026367188 528.549804688 610.46875 511.9921875 610.46875 c 0
783.55078125 -66.1884765625 m 0
 994.171875 447.403320312 757.926757812 684.987304688 514.055664062 684.987304688 c 0
 253.36328125 684.987304688 -26.1611328125 413.879882812 181.258789062 -65.7333984375 c 0
 185.866210938 -76.3857421875 196.47265625 -83.84765625 208.80859375 -83.84765625 c 0
 230.401367188 -83.84765625 244.861328125 -61.6240234375 236.358398438 -41.9619140625 c 0
 48.888671875 391.520507812 289.2265625 624.987304688 514.055664062 624.987304688 c 0
 728.0234375 624.987304688 915.61328125 413.998046875 728.01171875 -43.4599609375 c 0
 719.973632812 -63.0595703125 734.4296875 -84.82421875 755.78125 -84.82421875 c 0
 768.317382812 -84.82421875 779.068359375 -77.1181640625 783.55078125 -66.1884765625 c 0
EndSplineSet
EndChar

StartChar: uniE143
Encoding: 57667 57667 14
Width: 1000
Flags: H
LayerCount: 2
Fore
SplineSet
79.4404296875 -108.978515625 m 0
 55.369140625 -133.939453125 73.970703125 -164.08203125 98.37890625 -164.08203125 c 0
 109.451171875 -164.08203125 119.129882812 -158.071289062 124.328125 -149.137695312 c 0
 159.373046875 -121.133789062 359.434570312 -17.3349609375 555.310546875 -125.924804688 c 0
 786.596679688 -254.133789062 1045.31445312 -47.6767578125 919.524414062 194.202148438 c 0
 894.1796875 242.927734375 847.559570312 302.834960938 771.532226562 302.834960938 c 0
 628.084960938 302.834960938 489.874023438 81.8115234375 529.8359375 -47.7861328125 c 1
 317.407226562 35.072265625 112.641601562 -74.5498046875 79.4404296875 -108.978515625 c 0
582.749023438 2.2587890625 m 0
 582.749023438 103.416015625 685.500976562 242.834960938 771.532226562 242.834960938 c 0
 812.9609375 242.834960938 843.717773438 209.91015625 866.256835938 166.579101562 c 0
 945.075195312 15.021484375 832.645507812 -109.572265625 694.844726562 -105.026367188 c 0
 691.845703125 -92.4697265625 680.942382812 -82.966796875 667.694335938 -82.0791015625 c 0
 631.671875 -79.6669921875 582.749023438 -67.267578125 582.749023438 2.2587890625 c 0
221.362304688 411.662109375 m 0
 221.362304688 501.139648438 328.17578125 614.291015625 384.048828125 606.751953125 c 0
 451.182617188 597.685546875 521.557617188 445.688476562 469.990234375 370.94921875 c 0
 446.030273438 336.211914062 396.625976562 314.6484375 345.853515625 314.6484375 c 0
 279.430664062 314.6484375 221.362304688 351.095703125 221.362304688 411.662109375 c 0
547.711914062 435.982421875 m 0
 547.711914062 545.133789062 469.221679688 667.08984375 378.997070312 667.08984375 c 0
 281.993164062 667.08984375 161.373046875 526.264648438 161.373046875 411.662109375 c 0
 161.373046875 318.171875 243.948242188 254.63671875 345.853515625 254.63671875 c 0
 435.21484375 254.63671875 547.711914062 305.6640625 547.711914062 435.982421875 c 0
272.6015625 500.297851562 m 0
 291.2890625 480.973632812 324.15234375 494.356445312 324.15234375 521.154296875 c 0
 324.15234375 529.25390625 320.936523438 536.609375 315.713867188 542.009765625 c 0
 281.567382812 577.319335938 211.025390625 644.6171875 120.127929688 729.9453125 c 0
 101.043945312 747.861328125 69.6181640625 734.1875 69.6181640625 708.064453125 c 0
 69.6181640625 699.439453125 73.263671875 691.659179688 79.0966796875 686.18359375 c 0
 169.647460938 601.1796875 240.360351562 533.63671875 272.6015625 500.297851562 c 0
EndSplineSet
EndChar

StartChar: uniE144
Encoding: 57668 57668 15
Width: 1000
Flags: H
LayerCount: 2
Fore
SplineSet
557.834960938 634.78515625 m 2
 541.120117188 634.78515625 527.55078125 621.46875 527.55078125 605.067382812 c 0
 527.55078125 588.665039062 541.120117188 575.348632812 557.834960938 575.348632812 c 2
 749.650390625 575.348632812 l 1
 750.608398438 -103.634765625 l 2
 750.631835938 -120.017578125 764.192382812 -133.311523438 780.892578125 -133.311523438 c 0
 797.607421875 -133.311523438 811.176757812 -119.995117188 811.176757812 -103.55078125 c 2
 810.177734375 605.109375 l 2
 810.154296875 621.4921875 796.592773438 634.78515625 779.893554688 634.78515625 c 2
 557.834960938 634.78515625 l 2
653.15234375 722.110351562 m 2
 636.438476562 722.110351562 622.868164062 708.793945312 622.868164062 692.391601562 c 0
 622.868164062 675.990234375 636.438476562 662.673828125 653.15234375 662.673828125 c 2
 844.96875 662.673828125 l 1
 845.926757812 -16.3095703125 l 2
 845.94921875 -32.6923828125 859.510742188 -45.986328125 876.2109375 -45.986328125 c 0
 892.924804688 -45.986328125 906.495117188 -32.669921875 906.495117188 -16.2255859375 c 2
 905.495117188 692.43359375 l 2
 905.471679688 708.81640625 891.911132812 722.110351562 875.2109375 722.110351562 c 2
 653.15234375 722.110351562 l 2
113.91015625 524.182617188 m 0
 94.0693359375 536.8984375 67.75390625 522.568359375 67.75390625 498.90625 c 0
 67.75390625 488.295898438 73.2744140625 478.963867188 81.59765625 473.629882812 c 0
 266.768554688 354.95703125 477.458984375 304.451171875 697.498046875 463.89453125 c 0
 720.962890625 480.8984375 708.772460938 518.203125 679.921875 518.203125 c 0
 673.359375 518.203125 667.287109375 516.091796875 662.345703125 512.51171875 c 0
 504.181640625 397.90234375 330.766601562 385.204101562 113.91015625 524.182617188 c 0
390.87890625 347.28515625 m 0
 374.321289062 347.28515625 360.87890625 333.842773438 360.880859375 316.970703125 c 2
 364.650390625 -49.025390625 l 2
 364.819335938 -65.4384765625 378.196289062 -78.7109375 394.6484375 -78.7109375 c 0
 411.206054688 -78.7109375 424.6484375 -65.2685546875 424.646484375 -48.396484375 c 2
 420.876953125 317.599609375 l 2
 420.708007812 334.012695312 407.331054688 347.28515625 390.87890625 347.28515625 c 0
EndSplineSet
EndChar

StartChar: uniE130
Encoding: 57648 57648 16
Width: 1000
Flags: HW
LayerCount: 2
Fore
SplineSet
223.427734375 481.04296875 m 0
 223.427734375 402.24609375 240.850585938 387.168945312 240.850585938 133.180664062 c 0
 240.850585938 2.1357421875 235.92578125 -114.537109375 235.8984375 -115.8203125 c 0
 235.8984375 -132.377929688 249.340820312 -145.8203125 265.8984375 -145.8203125 c 0
 282.025390625 -145.8203125 295.198242188 -133.067382812 295.87109375 -117.103515625 c 0
 296.420898438 -104.071289062 310.729492188 244.9140625 288.286132812 411.974609375 c 0
 260.299804688 620.301757812 359.052734375 712.713867188 443.229492188 669.33984375 c 0
 491.453125 644.491210938 542.15625 568.76171875 542.15625 427.405273438 c 0
 542.15625 411.18359375 541.34765625 395.498046875 541.34765625 395.17578125 c 0
 541.34765625 378.618164062 554.790039062 365.17578125 571.34765625 365.17578125 c 0
 587.40234375 365.17578125 600.529296875 377.815429688 601.310546875 393.677734375 c 0
 601.87890625 405.19921875 602.15625 416.440429688 602.15625 427.405273438 c 0
 602.15625 771.883789062 329.671875 824.826171875 247.197265625 618.797851562 c 0
 231.971679688 580.760742188 223.427734375 534.767578125 223.427734375 481.04296875 c 0
497.65625 182.181640625 m 0
 497.65625 277.086914062 610.837890625 397.1875 670.98046875 389.079101562 c 0
 743.04296875 379.376953125 817.666992188 218.0390625 762.682617188 138.448242188 c 0
 737.033203125 101.328125 684.420898438 78.5068359375 630.49609375 78.5068359375 c 0
 559.577148438 78.5068359375 497.65625 117.53125 497.65625 182.181640625 c 0
812.083007812 104.403320312 m 0
 894.907226562 224.29296875 790.147460938 449.438476562 665.428710938 449.438476562 c 0
 564.2109375 449.438476562 437.65625 302.041015625 437.65625 182.181640625 c 0
 437.65625 84.6650390625 524.004882812 18.5068359375 630.49609375 18.5068359375 c 0
 699.184570312 18.5068359375 771.671875 45.9189453125 812.083007812 104.403320312 c 0
223.427734375 481.04296875 m 0
 223.427734375 402.24609375 240.850585938 387.168945312 240.850585938 133.180664062 c 0
 240.850585938 2.1357421875 235.92578125 -114.537109375 235.8984375 -115.8203125 c 0
 235.8984375 -132.377929688 249.340820312 -145.8203125 265.8984375 -145.8203125 c 0
 282.025390625 -145.8203125 295.198242188 -133.067382812 295.87109375 -117.103515625 c 0
 296.420898438 -104.071289062 310.729492188 244.9140625 288.286132812 411.974609375 c 0
 260.299804688 620.301757812 359.052734375 712.713867188 443.229492188 669.33984375 c 0
 491.453125 644.491210938 542.15625 568.76171875 542.15625 427.405273438 c 0
 542.15625 411.18359375 541.34765625 395.498046875 541.34765625 395.17578125 c 0
 541.34765625 378.618164062 554.790039062 365.17578125 571.34765625 365.17578125 c 0
 587.40234375 365.17578125 600.529296875 377.815429688 601.310546875 393.677734375 c 0
 601.87890625 405.19921875 602.15625 416.440429688 602.15625 427.405273438 c 0
 602.15625 771.883789062 329.671875 824.826171875 247.197265625 618.797851562 c 0
 231.971679688 580.760742188 223.427734375 534.767578125 223.427734375 481.04296875 c 0
497.65625 182.181640625 m 0
 497.65625 277.086914062 610.837890625 397.1875 670.98046875 389.079101562 c 0
 743.04296875 379.376953125 817.666992188 218.0390625 762.682617188 138.448242188 c 0
 737.033203125 101.328125 684.420898438 78.5068359375 630.49609375 78.5068359375 c 0
 559.577148438 78.5068359375 497.65625 117.53125 497.65625 182.181640625 c 0
812.083007812 104.403320312 m 0
 894.907226562 224.29296875 790.147460938 449.438476562 665.428710938 449.438476562 c 0
 564.2109375 449.438476562 437.65625 302.041015625 437.65625 182.181640625 c 0
 437.65625 84.6650390625 524.004882812 18.5068359375 630.49609375 18.5068359375 c 0
 699.184570312 18.5068359375 771.671875 45.9189453125 812.083007812 104.403320312 c 0
EndSplineSet
EndChar

StartChar: uniE131
Encoding: 57649 57649 17
Width: 1000
Flags: HW
LayerCount: 2
Fore
SplineSet
877.263671875 294.287109375 m 0
 733.77734375 327.05859375 597.639648438 264.817382812 492.532226562 76.9111328125 c 1
 437.905273438 215.571289062 301.854492188 321.545898438 138.69140625 298.653320312 c 0
 124.119140625 296.608398438 112.890625 284.078125 112.890625 268.9453125 c 0
 112.890625 252.387695312 126.333007812 238.9453125 142.890625 238.9453125 c 0
 147.897460938 238.9453125 160.436523438 241.75390625 182.748046875 241.75390625 c 0
 322.899414062 241.75390625 434.586914062 121.345703125 454.555664062 -11.046875 c 0
 458.967773438 -40.3017578125 499.325195312 -45.9921875 511.575195312 -18.8662109375 c 0
 572.915039062 116.9609375 667.09765625 242.634765625 805.609375 242.634765625 c 0
 841.193359375 242.634765625 862.494140625 235.0390625 870.56640625 235.0390625 c 0
 887.124023438 235.0390625 900.56640625 248.481445312 900.56640625 265.0390625 c 0
 900.56640625 279.294921875 890.6015625 291.241210938 877.263671875 294.287109375 c 0
882.478515625 547.802734375 m 0
 738.993164062 580.57421875 602.858398438 518.333984375 497.747070312 330.438476562 c 1
 443.118164062 469.098632812 307.063476562 575.079101562 143.903320312 552.16796875 c 0
 129.33203125 550.122070312 118.10546875 537.592773438 118.10546875 522.4609375 c 0
 118.10546875 505.903320312 131.547851562 492.4609375 148.10546875 492.4609375 c 0
 153.115234375 492.4609375 165.662109375 495.2734375 187.985351562 495.2734375 c 0
 328.124023438 495.2734375 439.802734375 374.856445312 459.770507812 242.487304688 c 0
 464.182617188 213.234375 504.538085938 207.54296875 516.7890625 234.66796875 c 0
 578.135742188 370.490234375 672.318359375 496.150390625 810.82421875 496.150390625 c 0
 846.408203125 496.150390625 867.708984375 488.5546875 875.78125 488.5546875 c 0
 892.338867188 488.5546875 905.78125 501.997070312 905.78125 518.5546875 c 0
 905.78125 532.810546875 895.81640625 544.756835938 882.478515625 547.802734375 c 0
EndSplineSet
EndChar

StartChar: uniE132
Encoding: 57650 57650 18
Width: 1000
Flags: HW
LayerCount: 2
Fore
SplineSet
268.495117188 63.8505859375 m 0
 248.618164062 76.0205078125 222.795898438 61.6689453125 222.795898438 38.28515625 c 0
 222.795898438 27.47265625 228.543945312 17.990234375 237.154296875 12.71875 c 0
 403.725585938 -89.267578125 632.935546875 -156.8671875 884.45703125 29.3173828125 c 0
 907.622070312 46.46484375 895.307617188 83.3759765625 866.594726562 83.3759765625 c 0
 859.90625 83.3759765625 853.725585938 81.1884765625 848.732421875 77.4921875 c 0
 677.515625 -49.2470703125 489.099609375 -71.2177734375 268.495117188 63.8505859375 c 0
187.911132812 237.321289062 m 0
 171.850585938 262.5 132.532226562 250.987304688 132.532226562 221.2578125 c 0
 132.532226562 215.348632812 134.249023438 209.837890625 137.211914062 205.193359375 c 0
 254.590820312 21.1767578125 185.184570312 -75.9384765625 128.741210938 -127.12109375 c 0
 108.484375 -145.489257812 121.658203125 -179.27734375 148.921875 -179.27734375 c 0
 156.688476562 -179.27734375 163.770507812 -176.329101562 169.103515625 -171.4921875 c 0
 252.647460938 -95.736328125 317.34375 34.41015625 187.911132812 237.321289062 c 0
629.296875 698.686523438 m 2
 636.6796875 718.181640625 622.23828125 739.296875 601.23046875 739.296875 c 0
 588.408203125 739.296875 577.453125 731.234375 573.1640625 719.907226562 c 2
 458.84765625 418.032226562 l 2
 451.584960938 398.854492188 465.444335938 378.03125 486.030273438 377.434570312 c 2
 615.390625 373.684570312 l 1
 506.780273438 135.018554688 l 2
 497.807617188 115.30078125 512.26953125 92.6171875 534.1015625 92.6171875 c 0
 546.237304688 92.6171875 556.700195312 99.8388671875 561.422851562 110.215820312 c 2
 688.727539062 389.961914062 l 2
 697.556640625 409.364257812 683.6953125 431.729492188 662.290039062 432.350585938 c 2
 529.892578125 436.188476562 l 1
 629.296875 698.686523438 l 2
EndSplineSet
EndChar

StartChar: uniE133
Encoding: 57651 57651 19
Width: 1000
Flags: HW
LayerCount: 2
Fore
SplineSet
498.8359375 84.740234375 m 1
 360.1328125 270.354492188 218.401367188 219.83984375 218.401367188 107.47265625 c 0
 218.401367188 60.83984375 241.46484375 7.341796875 289.71484375 -47.189453125 c 0
 307.9609375 -67.8125 342.1875 -54.75 342.1875 -27.32421875 c 0
 342.1875 -19.7080078125 339.34375 -12.7509765625 334.66015625 -7.458984375 c 0
 292.848632812 39.7978515625 278.401367188 81.212890625 278.401367188 107.47265625 c 0
 278.401367188 165.78125 341.557617188 158.8671875 402.668945312 102.862304688 c 0
 445.57421875 63.541015625 494.325195312 -4.8896484375 538.806640625 -111.513671875 c 0
 541.99609375 -120.063476562 545.388671875 -128.4765625 548.991210938 -136.737304688 c 0
 553.618164062 -147.34375 564.201171875 -154.765625 576.50390625 -154.765625 c 0
 597.63671875 -154.765625 612.083984375 -133.415039062 604.46484375 -113.879882812 c 0
 601.271484375 -105.692382812 598.047851562 -97.68359375 594.795898438 -89.8525390625 c 0
 567.709960938 -16.6025390625 556.076171875 72.142578125 556.076171875 161.981445312 c 0
 556.076171875 381.53515625 623.294921875 586.270507812 668.188476562 615.553710938 c 0
 674.03515625 609.698242188 698.59765625 576.580078125 708.979492188 427.209960938 c 0
 710.061523438 411.633789062 723.056640625 399.31640625 738.90625 399.31640625 c 0
 756.236328125 399.31640625 770.04296875 414.012695312 768.833007812 431.422851562 c 0
 759.4453125 566.48828125 738.797851562 616.762695312 724.333007812 640.278320312 c 0
 712.57421875 659.392578125 694.067382812 676.377929688 668.893554688 676.377929688 c 0
 625.387695312 676.377929688 587.655273438 626.456054688 555.102539062 533.673828125 c 0
 513.594726562 415.369140625 487.17578125 242.915039062 498.8359375 84.740234375 c 1
EndSplineSet
EndChar

StartChar: uniE134
Encoding: 57652 57652 20
Width: 1000
Flags: HW
LayerCount: 2
Fore
SplineSet
899.47265625 192.65625 m 0
 882.915039062 192.65625 869.47265625 179.213867188 869.473632812 162.461914062 c 2
 870.646484375 -22.2744140625 l 1
 103.845703125 705.432617188 l 2
 84.7998046875 723.5078125 53.203125 709.868164062 53.203125 683.671875 c 0
 53.203125 675.109375 56.7978515625 667.379882812 62.560546875 661.911132812 c 2
 880.451171875 -114.280273438 l 2
 899.458984375 -132.319335938 931.09375 -118.827148438 931.092773438 -92.3251953125 c 2
 929.471679688 162.850585938 l 2
 929.3671875 179.318359375 915.96484375 192.65625 899.47265625 192.65625 c 0
EndSplineSet
EndChar

StartChar: uniE135
Encoding: 57653 57653 21
Width: 1000
Flags: HW
LayerCount: 2
Fore
SplineSet
689.51171875 680.78125 m 0
 673.004882812 680.78125 659.594726562 667.421875 659.51171875 650.934570312 c 2
 655.868164062 -77.208984375 l 1
 428.680664062 -83.2529296875 l 2
 412.498046875 -83.68359375 399.4921875 -96.9560546875 399.4921875 -113.2421875 c 0
 399.4921875 -130.08203125 413.391601562 -143.681640625 430.303710938 -143.231445312 c 2
 686.534179688 -136.415039062 l 2
 702.666015625 -135.985351562 715.641601562 -122.794921875 715.72265625 -106.579101562 c 2
 715.72265625 -106.579101562 719.51171875 650.627929688 719.51171875 650.78125 c 0
 719.51171875 667.338867188 706.069335938 680.78125 689.51171875 680.78125 c 0
188.5546875 515.3515625 m 0
 188.5546875 498.793945312 201.997070312 485.3515625 218.809570312 485.352539062 c 2
 848.594726562 490.606445312 l 2
 865.03515625 490.744140625 878.33984375 504.1328125 878.33984375 520.60546875 c 0
 878.33984375 537.163085938 864.897460938 550.60546875 848.084960938 550.604492188 c 2
 218.299804688 545.350585938 l 2
 201.859375 545.212890625 188.5546875 531.82421875 188.5546875 515.3515625 c 0
218.561523438 515.345703125 m 1
 848.333007812 520.604492188 l 1025
EndSplineSet
EndChar

StartChar: uniE136
Encoding: 57654 57654 22
Width: 1000
Flags: HW
LayerCount: 2
Fore
SplineSet
52.87109375 82.5390625 m 2
 52.87109375 65.9814453125 66.3134765625 52.5390625 82.87109375 52.5390625 c 0
 99.4287109375 52.5390625 112.87109375 65.9814453125 112.87109375 82.5390625 c 2
 112.87109375 321.235351562 l 1
 917.563476562 322.40234375 l 2
 934.100585938 322.426757812 947.51953125 335.859375 947.51953125 352.40234375 c 0
 947.51953125 368.959960938 934.077148438 382.40234375 917.475585938 382.40234375 c 2
 82.8271484375 381.19140625 l 2
 66.2900390625 381.166992188 52.87109375 367.734375 52.87109375 351.19140625 c 2
 52.87109375 82.5390625 l 2
EndSplineSet
EndChar

StartChar: uniE137
Encoding: 57655 57655 23
Width: 1000
Flags: HW
LayerCount: 2
Fore
SplineSet
514.56640625 537.830078125 m 1
 290.291992188 688.190429688 124.313476562 627.602539062 124.313476562 469.571289062 c 0
 124.313476562 339.509765625 233.686523438 146.245117188 475.338867188 -86.2841796875 c 0
 485.920898438 -96.466796875 502.213867188 -97.44921875 513.905273438 -88.8330078125 c 0
 652.555664062 13.3515625 748.047851562 132.221679688 805.747070312 244.44921875 c 0
 851.897460938 334.213867188 874.224609375 419.828125 874.224609375 491.103515625 c 0
 874.224609375 534.359375 864.983398438 616.372070312 798.983398438 650.495117188 c 0
 742.322265625 679.7890625 648.4609375 668.41796875 514.56640625 537.830078125 c 1
741.8515625 603.794921875 m 0
 806.680664062 603.794921875 814.224609375 526.8984375 814.224609375 491.103515625 c 0
 814.224609375 361.541015625 722.0078125 147.7578125 498.5859375 -25.224609375 c 1
 373.279296875 97.8134765625 290.595703125 205.205078125 241.813476562 293.245117188 c 0
 200.864257812 367.147460938 184.313476562 427.044921875 184.313476562 469.571289062 c 0
 184.313476562 512.73828125 200.916992188 564.262695312 280.194335938 564.262695312 c 0
 335.009765625 564.262695312 413.497070312 537.036132812 500.59765625 474.500976562 c 0
 512.5703125 465.905273438 529.146484375 467.264648438 539.564453125 477.970703125 c 0
 583.390625 523.006835938 671.776367188 603.794921875 741.8515625 603.794921875 c 0
EndSplineSet
EndChar

StartChar: uniE138
Encoding: 57656 57656 24
Width: 1000
Flags: HW
LayerCount: 2
Fore
SplineSet
183.170898438 -169.70703125 m 2
 198.848632812 -195.506835938 238.828125 -184.240234375 238.828125 -154.16015625 c 0
 238.828125 -148.470703125 237.241210938 -143.1484375 234.485351562 -138.61328125 c 2
 172.744140625 -37.0048828125 l 1
 393.725585938 -126.564453125 637.729492188 -179.232421875 915.708984375 -10.2236328125 c 0
 941.501953125 5.4580078125 930.232421875 45.4296875 900.15625 45.4296875 c 0
 894.463867188 45.4296875 889.139648438 43.8408203125 884.603515625 41.0830078125 c 0
 604.264648438 -129.360351562 364.642578125 -58.8525390625 110.694335938 54.875 c 0
 84.078125 66.794921875 57.63671875 36.8876953125 72.7998046875 11.93359375 c 2
 183.170898438 -169.70703125 l 2
333.958007812 426.350585938 m 0
 333.958007812 546.491210938 476.0078125 698.655273438 555.337890625 687.96484375 c 0
 649.647460938 675.256835938 743.6171875 470.6171875 673.078125 368.572265625 c 0
 639.775390625 320.387695312 572.66015625 291.74609375 504.524414062 291.74609375 c 0
 412.8984375 291.74609375 333.958007812 342.974609375 333.958007812 426.350585938 c 0
722.46875 334.513671875 m 0
 821.513671875 477.796875 695.063476562 748.470703125 547.563476562 748.470703125 c 0
 427.2734375 748.470703125 273.958007812 570.53125 273.958007812 426.350585938 c 0
 273.958007812 310.10546875 377.361328125 231.74609375 504.524414062 231.74609375 c 0
 587.416992188 231.74609375 674.400390625 264.963867188 722.46875 334.513671875 c 0
EndSplineSet
EndChar

StartChar: uniE139
Encoding: 57657 57657 25
Width: 1000
Flags: HW
LayerCount: 2
Fore
SplineSet
134.250976562 30.3173828125 m 0
 134.250976562 137.501953125 261.555664062 273.24609375 331.123046875 263.8828125 c 0
 414.090820312 252.700195312 498.186523438 70.267578125 435.599609375 -20.2529296875 c 0
 406.201171875 -62.7626953125 346.478515625 -88.419921875 285.58203125 -88.419921875 c 0
 204.552734375 -88.419921875 134.250976562 -43.484375 134.250976562 30.3173828125 c 0
484.986328125 -54.3173828125 m 0
 575.774414062 76.9921875 460.3203125 324.3125 324.484375 324.3125 c 0
 213.924804688 324.3125 74.2509765625 162.036132812 74.2509765625 30.3173828125 c 0
 74.2509765625 -76.3359375 168.9609375 -148.419921875 285.58203125 -148.419921875 c 0
 361.224609375 -148.419921875 440.815429688 -118.186523438 484.986328125 -54.3173828125 c 0
581.041992188 24.625 m 0
 581.041992188 131.8046875 708.352539062 267.54296875 777.919921875 258.1796875 c 0
 860.887695312 246.997070312 944.982421875 64.583984375 882.396484375 -25.9365234375 c 0
 852.995117188 -68.45703125 793.267578125 -94.1201171875 732.370117188 -94.1201171875 c 0
 651.3046875 -94.1201171875 581.041992188 -49.150390625 581.041992188 24.625 c 0
931.783203125 -60.0009765625 m 0
 1022.57324219 71.3115234375 907.11328125 318.609375 771.28125 318.609375 c 0
 660.720703125 318.609375 521.041992188 156.33984375 521.041992188 24.625 c 0
 521.041992188 -82.0146484375 615.732421875 -154.120117188 732.370117188 -154.120117188 c 0
 808.016601562 -154.120117188 887.611328125 -123.8828125 931.783203125 -60.0009765625 c 0
914.333984375 387.12890625 m 0
 768 349.184570312 466.192382812 398.6484375 133.499023438 386.307617188 c 0
 117.46484375 385.712890625 104.62890625 372.5078125 104.62890625 356.328125 c 0
 104.62890625 339.770507812 118.071289062 326.328125 135.758789062 326.348632812 c 0
 228.713867188 329.796875 314.340820312 330.435546875 546.155273438 319.287109375 c 0
 710.66796875 311.375976562 838.361328125 305.43359375 929.416015625 329.04296875 c 0
 942.328125 332.391601562 951.875 344.1328125 951.875 358.0859375 c 0
 951.875 377.720703125 933.266601562 392.038085938 914.333984375 387.12890625 c 0
134.635742188 356.334960938 m 0
 476.875 369.030273438 766.415039062 317.770507812 921.8671875 358.090820312 c 1024
EndSplineSet
EndChar

StartChar: uniE145
Encoding: 57669 57669 26
Width: 1000
Flags: H
LayerCount: 2
Fore
SplineSet
139.39453125 410.9375 m 0
 122.836914062 410.9375 109.39453125 397.495117188 109.3984375 380.438476562 c 2
 114.06640625 94.6181640625 l 2
 114.333007812 78.291015625 127.671875 65.1171875 144.215820312 65.1171875 c 2
 901.422851562 68.90625 l 2
 917.638671875 68.9873046875 930.829101562 81.962890625 931.258789062 98.0947265625 c 2
 931.258789062 98.0947265625 938.075195312 354.325195312 938.0859375 355.13671875 c 0
 938.0859375 371.694335938 924.643554688 385.13671875 908.0859375 385.13671875 c 0
 891.799804688 385.13671875 878.52734375 372.130859375 878.096679688 355.948242188 c 2
 872.052734375 128.760742188 l 1
 173.57421875 125.265625 l 1
 169.390625 381.436523438 l 2
 169.124023438 397.763671875 155.78515625 410.9375 139.39453125 410.9375 c 0
EndSplineSet
EndChar

StartChar: uniE146
Encoding: 57670 57670 27
Width: 1000
Flags: H
LayerCount: 2
Fore
SplineSet
515.501953125 655.952148438 m 2
 498.787109375 655.952148438 485.217773438 642.635742188 485.217773438 626.233398438 c 0
 485.217773438 609.83203125 498.787109375 596.515625 515.501953125 596.515625 c 2
 707.317382812 596.515625 l 1
 708.275390625 -82.4677734375 l 2
 708.297851562 -98.8505859375 721.859375 -112.14453125 738.559570312 -112.14453125 c 0
 755.2734375 -112.14453125 768.84375 -98.828125 768.84375 -82.3837890625 c 2
 767.84375 626.275390625 l 2
 767.821289062 642.658203125 754.259765625 655.952148438 737.559570312 655.952148438 c 2
 515.501953125 655.952148438 l 2
610.819335938 743.27734375 m 2
 594.10546875 743.27734375 580.53515625 729.9609375 580.53515625 713.55859375 c 0
 580.53515625 697.15625 594.10546875 683.83984375 610.819335938 683.83984375 c 2
 802.635742188 683.83984375 l 1
 803.592773438 4.857421875 l 2
 803.616210938 -11.525390625 817.176757812 -24.8193359375 833.876953125 -24.8193359375 c 0
 850.591796875 -24.8193359375 864.161132812 -11.5029296875 864.161132812 4.9404296875 c 2
 863.162109375 713.600585938 l 2
 863.138671875 729.983398438 849.578125 743.27734375 832.877929688 743.27734375 c 2
 610.819335938 743.27734375 l 2
361.47265625 -2.7666015625 m 0
 361.47265625 71.318359375 450.752929688 164.861328125 494.923828125 158.903320312 c 0
 548.49609375 151.676757812 607.103515625 26.1162109375 564.998046875 -34.9052734375 c 0
 545.69921875 -62.8837890625 505.127929688 -80.8935546875 463.008789062 -80.8935546875 c 0
 409.1953125 -80.8935546875 361.47265625 -51.8740234375 361.47265625 -2.7666015625 c 0
639.3125 17.947265625 m 0
 639.3125 113.016601562 571.014648438 219.141601562 491.224609375 219.141601562 c 0
 405.822265625 219.141601562 301.47265625 96.9736328125 301.47265625 -2.7666015625 c 0
 301.47265625 -84.80078125 373.677734375 -140.893554688 463.008789062 -140.893554688 c 0
 542.529296875 -140.893554688 639.3125 -94.921875 639.3125 17.947265625 c 0
446.633789062 341.629882812 m 0
 446.633789062 392.142578125 523.859375 445.663085938 523.859375 511.852539062 c 0
 523.859375 543.03125 506.087890625 571.375976562 474.365234375 594.580078125 c 0
 454.651367188 609.000976562 426.6796875 594.8203125 426.6796875 570.3515625 c 0
 426.6796875 560.404296875 431.53125 551.58203125 438.994140625 546.123046875 c 0
 461.640625 529.557617188 463.859375 519.235351562 463.859375 511.852539062 c 0
 463.859375 473.263671875 386.633789062 415.606445312 386.633789062 341.629882812 c 0
 386.633789062 305.193359375 405.607421875 269.559570312 444.73046875 236.5390625 c 0
 464.15234375 220.146484375 494.0625 234.07421875 494.0625 259.47265625 c 0
 494.0625 268.666992188 489.916992188 276.901367188 483.39453125 282.40625 c 0
 452.598632812 308.399414062 446.633789062 327.07421875 446.633789062 341.629882812 c 0
EndSplineSet
EndChar

StartChar: uniE147
Encoding: 57671 57671 28
Width: 1000
Flags: H
LayerCount: 2
Fore
SplineSet
945.84765625 13.05859375 m 2
 971.638671875 28.7421875 960.368164062 68.7109375 930.29296875 68.7109375 c 0
 924.599609375 68.7109375 919.274414062 67.1220703125 914.73828125 64.36328125 c 2
 838.734375 18.1455078125 l 1
 912.248046875 203.817382812 953.823242188 411.224609375 810.697265625 646.813476562 c 0
 795.021484375 672.616210938 755.0390625 661.350585938 755.0390625 631.26953125 c 0
 755.0390625 625.581054688 756.625976562 620.259765625 759.380859375 615.725585938 c 0
 904.087890625 377.534179688 844.765625 174.096679688 747.30859375 -43.66796875 c 0
 735.395507812 -70.2880859375 765.311523438 -96.72265625 790.26171875 -81.55078125 c 2
 945.84765625 13.05859375 l 2
121.646484375 64.1103515625 m 2
 101.787109375 76.18359375 76.09375 61.8115234375 76.09375 38.45703125 c 0
 76.09375 27.591796875 81.8828125 18.068359375 90.541015625 12.8037109375 c 2
 246.126953125 -81.7861328125 l 2
 271.061523438 -96.9453125 300.999023438 -70.5380859375 289.077148438 -43.9013671875 c 0
 191.540039062 174.022460938 132.357421875 377.395507812 277.005859375 615.491210938 c 0
 289.071289062 635.349609375 274.698242188 661.03515625 251.34765625 661.03515625 c 0
 240.479492188 661.03515625 230.952148438 655.243164062 225.689453125 646.579101562 c 0
 82.5732421875 411.006835938 124.126953125 203.594726562 197.655273438 17.900390625 c 1
 121.646484375 64.1103515625 l 2
EndSplineSet
EndChar

StartChar: uniE148
Encoding: 57672 57672 29
Width: 1000
Flags: H
LayerCount: 2
Fore
SplineSet
257.756835938 353.513671875 m 0
 237.904296875 365.874023438 211.93359375 351.51953125 211.93359375 328.02734375 c 0
 211.93359375 317.276367188 217.6015625 307.837890625 226.110351562 302.541015625 c 0
 412.5078125 186.494140625 664.135742188 113.84375 939.459960938 321.0546875 c 0
 962.3984375 338.318359375 950.026367188 375.0390625 921.4453125 375.0390625 c 0
 914.6875 375.0390625 908.448242188 372.799804688 903.430664062 369.0234375 c 0
 711.780273438 224.786132812 501.857421875 201.54296875 257.756835938 353.513671875 c 0
181.758789062 525.639648438 m 0
 165.828125 551.030273438 126.328125 539.586914062 126.328125 509.7265625 c 0
 126.328125 503.8828125 128.002929688 498.427734375 130.897460938 493.813476562 c 0
 261.755859375 285.252929688 184.9921875 173.720703125 120.92578125 114.65625 c 0
 100.90234375 96.1962890625 114.116210938 62.59765625 141.25 62.59765625 c 0
 149.087890625 62.59765625 156.227539062 65.609375 161.57421875 70.5390625 c 0
 254.848632812 156.530273438 322.569335938 301.216796875 181.758789062 525.639648438 c 0
EndSplineSet
EndChar

StartChar: uniE149
Encoding: 57673 57673 30
Width: 1000
Flags: H
LayerCount: 2
Fore
SplineSet
106.03515625 -129.94140625 m 0
 122.592773438 -129.94140625 136.03515625 -116.499023438 136.03515625 -99.826171875 c 2
 134.16015625 396.37109375 l 1
 510.880859375 664.485351562 l 1
 914.3203125 387.060546875 l 2
 934.108398438 373.452148438 961.2890625 387.711914062 961.2890625 411.796875 c 0
 961.2890625 422.05859375 956.125976562 431.123046875 948.2578125 436.533203125 c 2
 527.5546875 725.830078125 l 2
 526.143554688 726.801757812 509.918945312 737.4375 493.21875 725.551757812 c 2
 86.734375 436.254882812 l 2
 79.0908203125 430.815429688 74.1015625 421.883789062 74.1015625 411.681640625 c 2
 76.03515625 -100.056640625 l 2
 76.09765625 -116.561523438 89.5166015625 -129.94140625 106.03515625 -129.94140625 c 0
256.322265625 341.908203125 m 2
 236.4921875 354.8671875 209.94140625 340.5546875 209.94140625 316.77734375 c 0
 209.94140625 306.262695312 215.36328125 297.00390625 223.560546875 291.646484375 c 2
 531.119140625 90.650390625 l 2
 541.510742188 83.859375 555.114257812 84.16796875 565.213867188 91.5732421875 c 2
 879.354492188 321.924804688 l 2
 902.655273438 339.010742188 890.407226562 376.1328125 861.640625 376.1328125 c 0
 855.017578125 376.1328125 848.892578125 373.981445312 843.926757812 370.340820312 c 2
 546.518554688 152.258789062 l 1
 256.322265625 341.908203125 l 2
239.947265625 316.780273438 m 1
 547.494140625 115.788085938 l 1
 861.6328125 346.127929688 l 1025
EndSplineSet
EndChar

StartChar: uniE150
Encoding: 57680 57680 31
Width: 1000
Flags: H
LayerCount: 2
Fore
SplineSet
243.256835938 399.5078125 m 2
 260.903320312 418.661132812 247.18359375 449.82421875 221.19140625 449.82421875 c 0
 212.467773438 449.82421875 204.609375 446.092773438 199.125976562 440.140625 c 2
 72.7001953125 302.9140625 l 2
 55.1318359375 283.845703125 68.64453125 252.82421875 94.4990234375 252.598632812 c 2
 94.4990234375 252.598632812 919.323242188 245.411132812 919.58984375 245.41015625 c 0
 936.147460938 245.41015625 949.58984375 258.852539062 949.58984375 275.41015625 c 0
 949.58984375 291.87890625 936.291015625 305.265625 919.856445312 305.409179688 c 2
 162.643554688 312.0078125 l 1
 243.256835938 399.5078125 l 2
EndSplineSet
EndChar

StartChar: uniE151
Encoding: 57681 57681 32
Width: 1000
Flags: HW
LayerCount: 2
Fore
SplineSet
810.571289062 421.358398438 m 2
 792.12890625 441.434570312 758.4765625 428.233398438 758.4765625 401.07421875 c 0
 758.4765625 393.255859375 761.473632812 386.131835938 766.381835938 380.790039062 c 2
 849.08984375 290.755859375 l 1
 79.185546875 284.022460938 l 2
 62.7509765625 283.87890625 49.453125 270.491210938 49.453125 254.0234375 c 0
 49.453125 237.465820312 62.8955078125 224.0234375 79.720703125 224.024414062 c 2
 917.103515625 231.348632812 l 2
 942.938476562 231.575195312 956.45703125 262.553710938 938.930664062 281.631835938 c 2
 810.571289062 421.358398438 l 2
EndSplineSet
EndChar

StartChar: uniE152
Encoding: 57682 57682 33
Width: 1000
Flags: HW
LayerCount: 2
Fore
SplineSet
619.249023438 -3.4423828125 m 2
 639.325195312 15 626.124023438 48.65234375 598.96484375 48.65234375 c 0
 591.146484375 48.65234375 584.022460938 45.6552734375 578.680664062 40.7470703125 c 2
 488.646484375 -41.9609375 l 1
 481.913085938 727.962890625 l 2
 481.76953125 744.397460938 468.381835938 757.6953125 451.9140625 757.6953125 c 0
 435.356445312 757.6953125 421.9140625 744.252929688 421.915039062 727.427734375 c 2
 429.239257812 -109.974609375 l 2
 429.465820312 -135.809570312 460.4453125 -149.328125 479.522460938 -131.801757812 c 2
 619.249023438 -3.4423828125 l 2
EndSplineSet
EndChar

StartChar: uniE153
Encoding: 57683 57683 34
Width: 1000
Flags: H
LayerCount: 2
Fore
SplineSet
571.90234375 672.637695312 m 2
 579.788085938 692.213867188 565.334960938 713.828125 544.0625 713.828125 c 0
 531.459960938 713.828125 520.662109375 706.040039062 516.22265625 695.018554688 c 2
 355.75390625 296.620117188 l 2
 347.98828125 277.340820312 361.888671875 256.008789062 382.764648438 255.44140625 c 2
 581.317382812 250.04296875 l 1
 422.823242188 -77.4072265625 l 2
 413.251953125 -97.181640625 427.7109375 -120.44921875 449.84375 -120.44921875 c 0
 461.728515625 -120.44921875 472.0078125 -113.5234375 476.864257812 -103.491210938 c 2
 655.575195312 265.727539062 l 2
 665.002929688 285.20703125 651.115234375 308.166992188 629.383789062 308.7578125 c 2
 427.547851562 314.24609375 l 1
 571.90234375 672.637695312 l 2
EndSplineSet
EndChar

StartChar: uniE154
Encoding: 57684 57684 35
Width: 1000
Flags: H
LayerCount: 2
Fore
SplineSet
548.385742188 380.23828125 m 0
 548.385742188 306.436523438 478.080078125 261.501953125 397.046875 261.501953125 c 0
 336.147460938 261.501953125 276.42578125 287.163085938 247.037109375 329.668945312 c 0
 204.999023438 390.454101562 229.311523438 494.661132812 275.418945312 558.026367188 c 0
 283.787109375 569.526367188 318.836914062 614.216796875 358.166015625 614.216796875 c 0
 430.309570312 614.216796875 548.385742188 483.091796875 548.385742188 380.23828125 c 0
358.166015625 674.216796875 m 0
 222.270507812 674.216796875 106.859375 426.884765625 197.650390625 295.604492188 c 0
 241.8125 231.731445312 321.403320312 201.501953125 397.046875 201.501953125 c 0
 513.666992188 201.501953125 608.385742188 273.579101562 608.385742188 380.23828125 c 0
 608.385742188 511.950195312 468.7265625 674.216796875 358.166015625 674.216796875 c 0
548.609375 273.18359375 m 2
 533.537109375 299.904296875 492.4609375 289.059570312 492.4609375 258.4765625 c 0
 492.4609375 253.134765625 493.860351562 248.116210938 496.3125 243.76953125 c 2
 694.06640625 -106.81640625 l 2
 705.09765625 -126.374023438 733.00390625 -127.337890625 745.331054688 -108.513671875 c 2
 819.549804688 4.826171875 l 2
 832.534179688 24.6552734375 818.22265625 51.23046875 794.43359375 51.23046875 c 0
 783.928710938 51.23046875 774.677734375 45.8193359375 769.317382812 37.634765625 c 2
 722.125976562 -34.4326171875 l 1
 548.609375 273.18359375 l 2
EndSplineSet
EndChar

StartChar: uniE155
Encoding: 57685 57685 36
Width: 1000
Flags: H
LayerCount: 2
Fore
SplineSet
617.354492188 549.822265625 m 0
 509.12109375 549.822265625 408.010742188 711.138671875 291.19140625 711.138671875 c 0
 241.138671875 711.138671875 195.149414062 681.245117188 154.15234375 620.141601562 c 0
 140.860351562 600.331054688 155.146484375 573.45703125 179.08203125 573.45703125 c 0
 189.466796875 573.45703125 198.625976562 578.745117188 204.01171875 586.772460938 c 0
 239.231445312 639.263671875 267.345703125 651.138671875 291.19140625 651.138671875 c 0
 378.334960938 651.138671875 483.853515625 489.822265625 617.354492188 489.822265625 c 0
 678.247070312 489.822265625 738.82421875 523.455078125 798.51953125 600.564453125 c 0
 813.708007812 620.18359375 799.616210938 648.90625 774.78515625 648.90625 c 0
 765.1328125 648.90625 756.5390625 644.337890625 751.05078125 637.248046875 c 0
 697.6640625 568.288085938 654.172851562 549.822265625 617.354492188 549.822265625 c 0
630.346679688 -23.4697265625 m 0
 522.110351562 -23.4697265625 420.998046875 137.849609375 304.17578125 137.849609375 c 0
 254.125976562 137.849609375 208.137695312 107.958984375 167.140625 46.861328125 c 0
 153.84765625 27.05078125 168.134765625 0.17578125 192.0703125 0.17578125 c 0
 202.454101562 0.17578125 211.61328125 5.462890625 217 13.490234375 c 0
 252.216796875 65.9755859375 280.330078125 77.849609375 304.17578125 77.849609375 c 0
 391.322265625 77.849609375 496.842773438 -83.4697265625 630.346679688 -83.4697265625 c 0
 691.237304688 -83.4697265625 751.813476562 -49.83984375 811.5078125 27.263671875 c 0
 826.697265625 46.8818359375 812.604492188 75.60546875 787.7734375 75.60546875 c 0
 778.122070312 75.60546875 769.528320312 71.0380859375 764.0390625 63.947265625 c 0
 710.654296875 -5.0048828125 667.1640625 -23.4697265625 630.346679688 -23.4697265625 c 0
474.764648438 397.239257812 m 0
 435.58203125 397.239257812 403.05859375 356.353515625 403.05859375 305.791015625 c 0
 403.05859375 241.25390625 461.3515625 226.265625 490.673828125 226.265625 c 0
 531.978515625 226.265625 563.540039062 251.422851562 563.540039062 291.026367188 c 0
 563.540039062 336.015625 521.84765625 397.239257812 474.764648438 397.239257812 c 0
464.920898438 295.524414062 m 0
 460.407226562 302.619140625 464.544921875 329.489257812 474.938476562 336.916015625 c 0
 488.521484375 330.122070312 503.842773438 305.963867188 503.43359375 289.422851562 c 0
 496.885742188 282.71875 469.905273438 287.688476562 464.920898438 295.524414062 c 0
EndSplineSet
EndChar

StartChar: uniE156
Encoding: 57686 57686 37
Width: 1000
Flags: H
LayerCount: 2
Fore
SplineSet
672.381835938 389.461914062 m 0
 564.14453125 389.461914062 463.032226562 550.787109375 346.209960938 550.787109375 c 0
 296.158203125 550.787109375 250.168945312 520.893554688 209.171875 459.790039062 c 0
 195.879882812 439.979492188 210.166015625 413.10546875 234.1015625 413.10546875 c 0
 244.486328125 413.10546875 253.645507812 418.393554688 259.03125 426.420898438 c 0
 294.250976562 478.912109375 322.364257812 490.787109375 346.209960938 490.787109375 c 0
 433.35546875 490.787109375 538.876953125 329.461914062 672.381835938 329.461914062 c 0
 733.271484375 329.461914062 793.845703125 363.091796875 853.5390625 440.193359375 c 0
 868.728515625 459.811523438 854.635742188 488.53515625 829.8046875 488.53515625 c 0
 820.153320312 488.53515625 811.559570312 483.967773438 806.0703125 476.876953125 c 0
 752.6875 407.926757812 709.198242188 389.461914062 672.381835938 389.461914062 c 0
544.969726562 81.2783203125 m 0
 436.741210938 81.2783203125 335.629882812 242.603515625 218.807617188 242.603515625 c 0
 168.755859375 242.603515625 122.766601562 212.709960938 81.76953125 151.606445312 c 0
 68.4775390625 131.795898438 82.763671875 104.921875 106.69921875 104.921875 c 0
 117.083984375 104.921875 126.243164062 110.209960938 131.62890625 118.237304688 c 0
 166.848632812 170.728515625 194.961914062 182.603515625 218.807617188 182.603515625 c 0
 305.953125 182.603515625 411.471679688 21.2783203125 544.969726562 21.2783203125 c 0
 605.858398438 21.2783203125 666.4296875 54.9091796875 726.118164062 132.009765625 c 0
 741.305664062 151.62890625 727.213867188 180.3515625 702.3828125 180.3515625 c 0
 692.73046875 180.3515625 684.13671875 175.783203125 678.647460938 168.693359375 c 0
 625.268554688 99.7421875 581.783203125 81.2783203125 544.969726562 81.2783203125 c 0
EndSplineSet
EndChar

StartChar: uniE157
Encoding: 57687 57687 38
Width: 1000
Flags: H
LayerCount: 2
Fore
SplineSet
584.052734375 573.7734375 m 0
 455.921875 653.045898438 333.07421875 548.7265625 333.07421875 400.671875 c 0
 333.07421875 363.180664062 341.145507812 323.84765625 358.944335938 285.655273438 c 0
 381.825195312 236.556640625 390.095703125 186.922851562 390.095703125 141.083007812 c 0
 390.095703125 87.83984375 378.782226562 39.5625 366.654296875 4.9384765625 c 0
 358.263671875 -19.0146484375 348.622070312 -37.1533203125 345.000976562 -43.046875 c 0
 323.040039062 -60.6904296875 335.5390625 -96.4521484375 363.868164062 -96.4521484375 c 0
 379.228515625 -96.4521484375 388.473632812 -87.404296875 397.889648438 -71.6787109375 c 0
 415.735351562 -41.876953125 450.095703125 40.109375 450.095703125 141.083007812 c 0
 450.095703125 177.67578125 445.533203125 216.818359375 433.84765625 256.634765625 c 1
 525.104492188 241.251953125 658.434570312 346.352539062 658.434570312 454.3515625 c 0
 658.434570312 499.49609375 634.014648438 542.865234375 584.052734375 573.7734375 c 0
598.434570312 454.3515625 m 0
 598.434570312 371.751953125 459.208984375 279.555664062 421.34375 328.51953125 c 0
 415.364257812 336.251953125 409.41796875 350.353515625 408.077148438 374.170898438 c 0
 407.4921875 384.5625 401.607421875 393.547851562 393.0859375 398.46484375 c 0
 393.0859375 482.212890625 440.022460938 541.05078125 495.2265625 541.05078125 c 0
 511.801757812 541.05078125 531.030273438 536.024414062 552.548828125 522.7109375 c 0
 588.70703125 500.342773438 598.434570312 477.02734375 598.434570312 454.3515625 c 0
283.783203125 730.631835938 m 0
 241.288085938 730.631835938 206.392578125 686.318359375 206.392578125 633.110351562 c 0
 206.392578125 563.471679688 271.258789062 548.708007812 301.83203125 548.708007812 c 0
 347.759765625 548.708007812 380.537109375 575.896484375 380.537109375 616.8984375 c 0
 380.537109375 665.31640625 334.194335938 730.631835938 283.783203125 730.631835938 c 0
283.818359375 670.62109375 m 0
 303.041015625 664.806640625 323.69140625 626.770507812 320.259765625 614.19921875 c 0
 312.583984375 604.190429688 276.345703125 609.294921875 268.895507812 620.627929688 c 0
 261.166015625 632.37890625 272.702148438 669.123046875 283.818359375 670.62109375 c 0
640.235351562 324.594726562 m 0
 597.80859375 324.594726562 562.857421875 280.32421875 562.857421875 227.064453125 c 0
 562.857421875 157.450195312 627.697265625 142.66015625 658.326171875 142.66015625 c 0
 704.201171875 142.66015625 737.020507812 169.806640625 737.020507812 210.844726562 c 0
 737.020507812 259.27734375 690.6484375 324.594726562 640.235351562 324.594726562 c 0
640.271484375 264.583984375 m 0
 659.55859375 258.736328125 680.182617188 220.66796875 676.741210938 208.139648438 c 0
 669.088867188 198.149414062 632.821289062 203.243164062 625.34765625 214.592773438 c 0
 617.653320312 226.296875 629.124023438 263.012695312 640.271484375 264.583984375 c 0
EndSplineSet
EndChar

StartChar: uniE158
Encoding: 57688 57688 39
Width: 1000
Flags: H
LayerCount: 2
Fore
SplineSet
154.66796875 310.05859375 m 0
 154.66796875 293.556640625 168.020507812 280.1484375 184.501953125 280.05859375 c 0
 727.651367188 277.109375 727.651367188 277.109375 727.734375 277.109375 c 0
 744.291992188 277.109375 757.734375 290.551757812 757.734375 307.109375 c 0
 757.734375 323.611328125 744.381835938 337.01953125 727.900390625 337.109375 c 2
 727.900390625 337.109375 184.833984375 340.05859375 184.66796875 340.05859375 c 0
 168.110351562 340.05859375 154.66796875 326.616210938 154.66796875 310.05859375 c 0
754.21875 740.99609375 m 0
 737.75 740.99609375 724.362304688 727.697265625 724.219726562 711.26171875 c 0
 716.93359375 -127.58203125 716.93359375 -127.58203125 716.93359375 -127.71484375 c 0
 716.93359375 -144.272460938 730.375976562 -157.71484375 746.93359375 -157.71484375 c 0
 763.40234375 -157.71484375 776.790039062 -144.416015625 776.932617188 -127.98046875 c 2
 776.932617188 -127.98046875 784.217773438 710.73046875 784.21875 710.99609375 c 0
 784.21875 727.553710938 770.776367188 740.99609375 754.21875 740.99609375 c 0
EndSplineSet
EndChar

StartChar: uniE159
Encoding: 57689 57689 40
Width: 1000
Flags: H
LayerCount: 2
Fore
SplineSet
501.4453125 680.46875 m 0
 485.092773438 680.46875 471.778320312 667.356445312 471.451171875 651.081054688 c 0
 465.80078125 369.310546875 465.80078125 369.310546875 465.80078125 369.00390625 c 0
 465.80078125 356.451171875 473.526367188 345.689453125 484.478515625 341.216796875 c 2
 741.431640625 236.294921875 l 2
 761.026367188 228.294921875 782.75390625 242.75 782.75390625 264.08203125 c 0
 782.75390625 276.634765625 775.028320312 287.396484375 764.076171875 291.869140625 c 2
 526.208007812 388.998046875 l 1
 526.208007812 388.998046875 531.439453125 649.856445312 531.4453125 650.46875 c 0
 531.4453125 667.026367188 518.002929688 680.46875 501.4453125 680.46875 c 0
866.0078125 247.374023438 m 0
 866.0078125 29.458984375 691.890625 -54.46875 534.694335938 -54.46875 c 0
 283.096679688 -54.46875 6.46875 153.081054688 217.616210938 549.923828125 c 0
 228.170898438 569.760742188 213.732421875 593.984375 191.11328125 593.984375 c 0
 179.634765625 593.984375 169.654296875 587.524414062 164.610351562 578.044921875 c 0
 -68.9453125 139.086914062 240.358398438 -114.46875 534.694335938 -114.46875 c 0
 745.204101562 -114.46875 926.0078125 12.306640625 926.0078125 247.374023438 c 0
 926.0078125 341.095703125 897.818359375 451.009765625 833.559570312 578.3671875 c 0
 819.423828125 606.3828125 776.7578125 596.193359375 776.7578125 564.8828125 c 0
 776.7578125 560.034179688 777.91015625 555.453125 779.956054688 551.3984375 c 0
 841.196289062 430.0234375 866.0078125 328.791015625 866.0078125 247.374023438 c 0
EndSplineSet
EndChar

StartChar: uniE15A
Encoding: 57690 57690 41
Width: 1000
Flags: H
LayerCount: 2
Fore
SplineSet
72.0341796875 -63.28125 m 2
 52.3271484375 -81.8486328125 65.6181640625 -115.1171875 92.59765625 -115.1171875 c 0
 100.552734375 -115.1171875 107.790039062 -112.013671875 113.161132812 -106.953125 c 2
 937.809570312 670.01953125 l 2
 957.516601562 688.586914062 944.225585938 721.85546875 917.24609375 721.85546875 c 0
 909.291015625 721.85546875 902.053710938 718.751953125 896.682617188 713.69140625 c 2
 72.0341796875 -63.28125 l 2
EndSplineSet
EndChar

StartChar: uniE15B
Encoding: 57691 57691 42
Width: 1000
Flags: H
LayerCount: 2
Fore
SplineSet
472.198242188 40.7470703125 m 2
 453.03515625 58.3515625 421.9140625 44.6240234375 421.9140625 18.65234375 c 0
 421.9140625 9.9130859375 425.658203125 2.0419921875 431.629882812 -3.4423828125 c 2
 571.356445312 -131.801757812 l 2
 590.434570312 -149.328125 621.413085938 -135.809570312 621.639648438 -109.974609375 c 2
 621.639648438 -109.974609375 628.963867188 727.427734375 628.96484375 727.6953125 c 0
 628.96484375 744.252929688 615.522460938 757.6953125 598.96484375 757.6953125 c 0
 582.497070312 757.6953125 569.109375 744.397460938 568.965820312 727.962890625 c 2
 562.232421875 -41.9609375 l 1
 472.198242188 40.7470703125 l 2
EndSplineSet
EndChar

StartChar: uniE15C
Encoding: 57692 57692 43
Width: 1000
Flags: H
LayerCount: 2
Fore
SplineSet
301.3046875 568.512695312 m 2
 283.231445312 549.465820312 296.87109375 517.87109375 323.06640625 517.87109375 c 0
 331.629882812 517.87109375 339.360351562 521.466796875 344.828125 527.229492188 c 2
 397.305664062 582.534179688 l 1
 402.168945312 -55.818359375 l 2
 402.293945312 -72.26953125 415.688476562 -85.5859375 432.16796875 -85.5859375 c 0
 448.725585938 -85.5859375 462.16796875 -72.1435546875 462.166992188 -55.353515625 c 2
 456.737304688 657.361328125 l 2
 456.533203125 684.169921875 423.505859375 697.298828125 404.9765625 677.770507812 c 2
 301.3046875 568.512695312 l 2
617.01171875 486.34765625 m 0
 600.454101562 486.34765625 587.01171875 472.905273438 587.012695312 456.139648438 c 2
 590.528320312 -60.2080078125 l 2
 590.639648438 -76.669921875 604.0390625 -90 620.52734375 -90 c 0
 637.084960938 -90 650.52734375 -76.5576171875 650.526367188 -59.7919921875 c 2
 647.010742188 456.555664062 l 2
 646.899414062 473.017578125 633.5 486.34765625 617.01171875 486.34765625 c 0
EndSplineSet
EndChar

StartChar: uniE15D
Encoding: 57693 57693 44
Width: 1000
Flags: H
LayerCount: 2
Fore
SplineSet
86.734375 436.254882812 m 2
 63.021484375 419.37890625 75.1240234375 381.796875 104.1015625 381.796875 c 0
 110.572265625 381.796875 116.56640625 383.849609375 121.46875 387.338867188 c 2
 510.880859375 664.485351562 l 1
 914.3203125 387.060546875 l 2
 934.108398438 373.452148438 961.2890625 387.711914062 961.2890625 411.796875 c 0
 961.2890625 422.05859375 956.125976562 431.123046875 948.2578125 436.533203125 c 2
 527.5546875 725.830078125 l 2
 526.143554688 726.801757812 509.918945312 737.4375 493.21875 725.551757812 c 2
 86.734375 436.254882812 l 2
487.1875 520.079101562 m 0
 487.174804688 513.737304688 487.94921875 101.900390625 487.01171875 -114.140625 c 0
 487.01171875 -130.698242188 500.454101562 -144.140625 517.01171875 -144.140625 c 0
 533.524414062 -144.140625 546.939453125 -130.76953125 547.01171875 -114.2734375 c 0
 547.451171875 -13.1064453125 547.592773438 68.484375 547.592773438 138.805664062 c 0
 547.592773438 142.6171875 547.1875 346.294921875 547.1875 520.01953125 c 0
 547.1875 536.577148438 533.745117188 550.01953125 517.1875 550.01953125 c 0
 500.649414062 550.01953125 487.219726562 536.609375 487.1875 520.079101562 c 0
125.6640625 183.57421875 m 0
 125.6640625 167.016601562 139.106445312 153.57421875 155.74609375 153.57421875 c 2
 910.12109375 155.5859375 l 2
 926.640625 155.629882812 940.0390625 169.055664062 940.0390625 185.5859375 c 0
 940.0390625 202.143554688 926.596679688 215.5859375 909.95703125 215.5859375 c 2
 155.58203125 213.57421875 l 2
 139.0625 213.530273438 125.6640625 200.104492188 125.6640625 183.57421875 c 0
EndSplineSet
EndChar

StartChar: uniE15E
Encoding: 57694 57694 45
Width: 1000
Flags: H
LayerCount: 2
Fore
SplineSet
265.266601562 165.41015625 m 0
 184.84375 334.260742188 432.29296875 634.805664062 573.044921875 615.893554688 c 0
 714.577148438 596.895507812 849.551757812 301.251953125 746.0703125 151.985351562 c 0
 643.466796875 4.025390625 345.762695312 -3.6298828125 265.266601562 165.41015625 c 0
795.4140625 117.858398438 m 0
 928.869140625 310.362304688 756.420898438 676.70703125 560.541015625 676.70703125 c 0
 373.18359375 676.70703125 113.450195312 344.606445312 211.061523438 139.66796875 c 0
 311.826171875 -71.93359375 666.432617188 -68.138671875 795.4140625 117.858398438 c 0
541.19140625 665.078125 m 0
 524.833007812 665.078125 511.515625 651.95703125 511.197265625 635.674804688 c 0
 505.3515625 336.783203125 505.3515625 336.783203125 505.3515625 336.484375 c 0
 505.3515625 324.02734375 512.9609375 313.333007812 523.780273438 308.80078125 c 2
 789.483398438 197.4921875 l 2
 809.109375 189.270507812 831.0546875 203.728515625 831.0546875 225.17578125 c 0
 831.0546875 237.6328125 823.4453125 248.327148438 812.625976562 252.859375 c 2
 565.744140625 356.283203125 l 1
 565.744140625 356.283203125 571.185546875 634.481445312 571.19140625 635.078125 c 0
 571.19140625 651.635742188 557.749023438 665.078125 541.19140625 665.078125 c 0
EndSplineSet
EndChar

StartChar: uniE15F
Encoding: 57695 57695 46
Width: 1000
Flags: H
LayerCount: 2
Fore
SplineSet
303.055664062 242.989257812 m 0
 303.055664062 331.309570312 408.0703125 442.81640625 462.602539062 435.428710938 c 0
 528.256835938 426.522460938 597.484375 276.62109375 546.83984375 202.91796875 c 0
 523.346679688 168.736328125 474.907226562 147.509765625 425.098632812 147.509765625 c 0
 359.978515625 147.509765625 303.055664062 183.338867188 303.055664062 242.989257812 c 0
624.240234375 267.028320312 m 0
 624.240234375 375.013671875 546.879882812 495.74609375 457.713867188 495.74609375 c 0
 361.879882812 495.74609375 243.055664062 356.33203125 243.055664062 242.989257812 c 0
 243.055664062 150.357421875 324.662109375 87.509765625 425.098632812 87.509765625 c 0
 513.145507812 87.509765625 624.240234375 137.963867188 624.240234375 267.028320312 c 0
475.197265625 241.3125 m 0
 475.197265625 329.635742188 580.201171875 441.1171875 634.731445312 433.729492188 c 0
 700.391601562 424.836914062 769.611328125 274.938476562 718.96875 201.23828125 c 0
 695.47265625 167.044921875 647.028320312 145.8125 597.221679688 145.8125 c 0
 532.053710938 145.8125 475.197265625 181.681640625 475.197265625 241.3125 c 0
796.369140625 265.348632812 m 0
 796.369140625 373.288085938 719.053710938 494.047851562 629.841796875 494.047851562 c 0
 534.015625 494.047851562 415.197265625 354.6640625 415.197265625 241.3125 c 0
 415.197265625 148.685546875 496.765625 85.8125 597.221679688 85.8125 c 0
 685.307617188 85.8125 796.369140625 136.310546875 796.369140625 265.348632812 c 0
EndSplineSet
EndChar

StartChar: uniE160
Encoding: 57696 57696 47
Width: 1000
Flags: H
LayerCount: 2
Fore
SplineSet
205.543945312 43.4033203125 m 0
 185.686523438 55.55078125 159.921875 41.1826171875 159.921875 17.79296875 c 0
 159.921875 6.95703125 165.6796875 -2.544921875 174.299804688 -7.8173828125 c 0
 346.397460938 -113.08984375 581.293945312 -181.22265625 838.787109375 9.18359375 c 0
 861.971679688 26.328125 849.682617188 63.3203125 820.9765625 63.3203125 c 0
 814.309570312 63.3203125 808.1484375 61.140625 803.166015625 57.45703125 c 0
 626.443359375 -73.22265625 432.271484375 -95.28515625 205.543945312 43.4033203125 c 0
559.224609375 554.061523438 m 0
 559.224609375 459.486328125 417.260742188 369.655273438 417.260742188 264.565429688 c 0
 417.260742188 218.790039062 444.522460938 176.953125 498.841796875 140.1953125 c 0
 518.645507812 126.793945312 545.625 141.071289062 545.625 165.05859375 c 0
 545.625 175.400390625 540.380859375 184.52734375 532.408203125 189.921875 c 0
 486.7578125 220.813476562 477.260742188 244.75 477.260742188 264.565429688 c 0
 477.260742188 340.189453125 619.224609375 434.401367188 619.224609375 554.061523438 c 0
 619.224609375 609.34765625 588.830078125 664.072265625 520.471679688 717.447265625 c 0
 500.869140625 732.752929688 472.03125 718.674804688 472.03125 693.7890625 c 0
 472.03125 684.181640625 476.556640625 675.623046875 483.590820312 670.130859375 c 0
 543.772460938 623.140625 559.224609375 585.499023438 559.224609375 554.061523438 c 0
EndSplineSet
EndChar

StartChar: uniE166
Encoding: 57702 57702 48
Width: 1000
Flags: H
LayerCount: 2
Fore
SplineSet
512.271484375 492.458984375 m 0
 341.98046875 492.458984375 182.685546875 353.817382812 307.82421875 136.93359375 c 0
 323.083007812 110.489257812 363.828125 121.462890625 363.828125 151.89453125 c 0
 363.828125 157.340820312 362.374023438 162.450195312 359.83203125 166.85546875 c 0
 253.338867188 351.423828125 401.352539062 432.458984375 512.271484375 432.458984375 c 0
 578.860351562 432.458984375 669.927734375 402.84765625 669.927734375 303.528320312 c 0
 669.927734375 268.265625 658.150390625 222.331054688 627.237304688 165.833007812 c 0
 616.376953125 145.984375 630.805664062 121.46484375 653.57421875 121.46484375 c 0
 664.927734375 121.46484375 674.81640625 127.78515625 679.911132812 137.096679688 c 0
 807.517578125 370.315429688 668.8125 492.458984375 512.271484375 492.458984375 c 0
507.08984375 700.87890625 m 0
 490.532226562 700.87890625 477.08984375 687.436523438 477.08984375 670.748046875 c 2
 480.2734375 -73.177734375 l 2
 480.344726562 -89.6748046875 493.759765625 -103.046875 510.2734375 -103.046875 c 0
 526.831054688 -103.046875 540.2734375 -89.6044921875 540.2734375 -72.916015625 c 2
 537.08984375 671.009765625 l 2
 537.018554688 687.506835938 523.603515625 700.87890625 507.08984375 700.87890625 c 0
507.088867188 670.87890625 m 1
 510.268554688 -73.041015625 l 1025
56.69921875 296.5234375 m 0
 56.69921875 279.977539062 70.123046875 266.541992188 86.6650390625 266.5234375 c 0
 362.889648438 266.217773438 639.11328125 265.911132812 915.336914062 265.60546875 c 0
 931.89453125 265.60546875 945.37109375 279.047851562 945.37109375 295.60546875 c 0
 945.37109375 312.151367188 931.947265625 325.586914062 915.405273438 325.60546875 c 2
 86.69921875 326.5234375 l 2
 70.1416015625 326.5234375 56.69921875 313.081054688 56.69921875 296.5234375 c 0
86.70703125 296.518554688 m 1
 915.365234375 295.609375 l 1025
EndSplineSet
EndChar

StartChar: uniE167
Encoding: 57703 57703 49
Width: 1000
Flags: H
LayerCount: 2
Fore
SplineSet
761.154296875 -46.8388671875 m 0
 790.463867188 -82.9716796875 834.84375 -67.00390625 834.84375 -36.5234375 c 0
 834.84375 -27.1875 832.162109375 -9.1513671875 801.163085938 3.197265625 c 0
 764.248046875 83.796875 739.442382812 315.986328125 646 402.065429688 c 0
 560.852539062 480.512695312 391.646484375 551.6875 258.154296875 607.342773438 c 0
 229.362304688 619.346679688 203.580078125 630.109375 183.076171875 639.189453125 c 0
 161.771484375 668.448242188 141.125 677.2890625 122.686523438 677.2890625 c 0
 89.9482421875 677.2890625 85.28125 652.462890625 85.28125 644.4453125 c 0
 85.28125 620.747070312 64.3095703125 555.638671875 100 539 c 0
 157.665039062 441.169921875 253.362860453 240.413820498 326.9375 129.537109375 c 0
 387.725585938 37.9296875 551.70703125 0.060546875 688.6015625 -29.8447265625 c 0
 740.568359375 -41.1962890625 751.8984375 -44.185546875 761.154296875 -46.8388671875 c 0
804.848632812 -36.5234375 m 0
 747.205078125 -57.0546875 586.575195312 58.740234375 481 156 c 0
 343.49609375 282.674804688 86.5329529206 638.199467638 116.124023438 646.377929688 c 0
 195.928710937 668.434570313 539.958984375 501.211914062 629 367 c 0
 715.278320312 236.952148438 836.665146129 -25.1911594582 804.848632812 -36.5234375 c 0
EndSplineSet
EndChar

StartChar: uniE168
Encoding: 57704 57704 50
Width: 1000
Flags: H
LayerCount: 2
Fore
SplineSet
56.19140625 659.51171875 m 0
 56.19140625 643.189453125 69.25390625 629.89453125 85.486328125 629.51953125 c 0
 905.897460938 610.56640625 905.897460938 610.56640625 906.25 610.56640625 c 0
 922.807617188 610.56640625 936.25 624.008789062 936.25 640.56640625 c 0
 936.25 656.888671875 923.1875 670.18359375 906.955078125 670.55859375 c 2
 906.955078125 670.55859375 86.896484375 689.50390625 86.19140625 689.51171875 c 0
 69.6337890625 689.51171875 56.19140625 676.069335938 56.19140625 659.51171875 c 0
503.06640625 500.80078125 m 0
 486.508789062 500.80078125 473.06640625 487.358398438 473.068359375 470.486328125 c 2
 478.322265625 -39.337890625 l 2
 478.491210938 -55.7509765625 491.868164062 -69.0234375 508.3203125 -69.0234375 c 0
 524.877929688 -69.0234375 538.3203125 -55.5810546875 538.318359375 -38.708984375 c 2
 533.064453125 471.115234375 l 2
 532.895507812 487.528320312 519.518554688 500.80078125 503.06640625 500.80078125 c 0
EndSplineSet
EndChar

StartChar: uniE169
Encoding: 57705 57705 51
Width: 1000
Flags: H
LayerCount: 2
Fore
SplineSet
180.719726562 338.591796875 m 0
 155.228515625 322.72265625 166.62890625 283.10546875 196.54296875 283.10546875 c 0
 202.348632812 283.10546875 207.771484375 284.758789062 212.366210938 287.619140625 c 0
 454.815429688 438.557617188 663.3515625 415.579101562 853.8203125 272.227539062 c 0
 873.490234375 257.422851562 901.8359375 271.561523438 901.8359375 296.2109375 c 0
 901.8359375 306.010742188 897.126953125 314.71875 889.8515625 320.194335938 c 0
 678.408203125 479.33203125 442.783203125 501.7421875 180.719726562 338.591796875 c 0
121.192382812 543.646484375 m 0
 105.26171875 569.038085938 65.76171875 557.594726562 65.76171875 527.734375 c 0
 65.76171875 521.890625 67.435546875 516.435546875 70.3310546875 511.822265625 c 0
 200.399414062 304.514648438 123.944335938 193.762695312 60.439453125 135.224609375 c 0
 40.4130859375 116.764648438 53.626953125 83.1640625 80.76171875 83.1640625 c 0
 88.5986328125 83.1640625 95.73828125 86.17578125 101.083984375 91.103515625 c 0
 193.708984375 176.483398438 261.282226562 320.369140625 121.192382812 543.646484375 c 0
EndSplineSet
EndChar

StartChar: uniE16A
Encoding: 57706 57706 52
Width: 1000
Flags: H
LayerCount: 2
Fore
SplineSet
882.890625 41.6015625 m 2
 882.890625 25.0439453125 896.333007812 11.6015625 912.890625 11.6015625 c 0
 929.448242188 11.6015625 942.890625 25.0439453125 942.890625 41.6015625 c 2
 942.890625 302.12890625 l 2
 942.890625 318.671875 929.471679688 332.10546875 912.934570312 332.12890625 c 2
 101.50390625 333.30078125 l 2
 84.9462890625 333.30078125 71.50390625 319.858398438 71.50390625 303.30078125 c 0
 71.50390625 286.7578125 84.9228515625 273.32421875 101.459960938 273.30078125 c 2
 882.890625 272.171875 l 1
 882.890625 41.6015625 l 2
223.125 447.20703125 m 0
 223.125 430.654296875 236.559570312 417.215820312 253.109375 417.20703125 c 2
 753.671875 416.953125 l 2
 782.151367188 416.953125 794.58984375 453.453125 771.852539062 470.811523438 c 2
 672.692382812 546.514648438 l 2
 653.047851562 561.512695312 624.51171875 547.397460938 624.51171875 522.65625 c 0
 624.51171875 512.931640625 629.149414062 504.280273438 636.331054688 498.797851562 c 2
 664.885742188 476.998046875 l 1
 253.125 477.20703125 l 2
 236.567382812 477.20703125 223.125 463.764648438 223.125 447.20703125 c 0
EndSplineSet
EndChar

StartChar: uniE16B
Encoding: 57707 57707 53
Width: 1000
Flags: H
LayerCount: 2
Fore
SplineSet
721.931640625 684.984375 m 0
 732.209960938 704.685546875 717.676757812 728.438476562 695.087890625 728.438476562 c 0
 683.401367188 728.438476562 673.2578125 721.861328125 668.244140625 712.251953125 c 0
 608.293945312 597.33984375 423.434570312 579.47265625 349.075195312 725.530273438 c 0
 344.111328125 735.28125 333.889648438 741.978515625 322.096679688 741.978515625 c 0
 299.635742188 741.978515625 285.095703125 718.471679688 295.118164062 698.786132812 c 0
 390.682617188 511.07421875 638.645507812 525.342773438 721.931640625 684.984375 c 0
511.051757812 599.930664062 m 0
 494.39453125 599.930664062 480.87109375 586.568359375 480.872070312 570.01953125 c 2
 482.90234375 -100.711914062 l 2
 482.952148438 -117.12890625 496.456054688 -130.44140625 513.083007812 -130.44140625 c 0
 529.739257812 -130.44140625 543.262695312 -117.079101562 543.262695312 -100.529296875 c 2
 541.231445312 570.201171875 l 2
 541.181640625 586.618164062 527.677734375 599.930664062 511.051757812 599.930664062 c 0
EndSplineSet
EndChar

StartChar: uniE16C
Encoding: 57708 57708 54
Width: 1000
Flags: H
LayerCount: 2
Fore
SplineSet
109.864257812 -79.970703125 m 0
 81.83984375 -94.099609375 92.0234375 -136.77734375 123.33984375 -136.77734375 c 0
 128.184570312 -136.77734375 132.762695312 -135.626953125 136.815429688 -133.583984375 c 0
 302.220703125 -50.19921875 447.850585938 67.55859375 510.583984375 262.481445312 c 1
 585.000976562 74.1103515625 704.6484375 -74.07421875 891.924804688 -154.252929688 c 0
 911.576171875 -162.666015625 933.7109375 -148.206054688 933.7109375 -126.66015625 c 0
 933.7109375 -114.28515625 926.202148438 -103.650390625 915.497070312 -99.0673828125 c 0
 716.845703125 -14.0185546875 600.639648438 153.780273438 533.791015625 379.592773438 c 0
 530.116210938 392.006835938 518.618164062 401.07421875 505.01953125 401.07421875 c 0
 489.971679688 401.07421875 477.49609375 389.970703125 475.346679688 375.516601562 c 0
 443.620117188 162.161132812 316.623046875 24.259765625 109.864257812 -79.970703125 c 0
123.34375 -106.78125 m 0
 320.048828125 -7.6103515625 469.53515625 132.416015625 505.02734375 371.073242188 c 1
 573.34765625 140.286132812 694.72265625 -37.1962890625 903.706054688 -126.658203125 c 1024
493.846679688 608.741210938 m 0
 508.592773438 608.741210938 538.77734375 565.509765625 534.064453125 550.057617188 c 0
 525.983398438 538.931640625 485.130859375 543.846679688 476.499023438 556.594726562 c 0
 468.336914062 568.638671875 480.034179688 607.387695312 493.846679688 608.741210938 c 0
493.846679688 668.741210938 m 0
 449.916015625 668.741210938 413.798828125 623.353515625 413.798828125 569.4921875 c 0
 413.798828125 498.431640625 481.3515625 483.681640625 512.927734375 483.681640625 c 0
 561.791015625 483.681640625 594.37109375 512.141601562 594.37109375 552.859375 c 0
 594.37109375 602.501953125 545.63671875 668.741210938 493.846679688 668.741210938 c 0
EndSplineSet
EndChar

StartChar: uniE16D
Encoding: 57709 57709 55
Width: 1000
Flags: H
LayerCount: 2
Fore
SplineSet
79.2529296875 262.311523438 m 0
 79.2529296875 245.747070312 92.6904296875 232.299804688 109.331054688 232.299804688 c 2
 888.955078125 234.606445312 l 2
 905.46484375 234.655273438 918.852539062 248.083984375 918.852539062 264.618164062 c 0
 918.852539062 281.182617188 905.416015625 294.629882812 888.774414062 294.629882812 c 2
 109.150390625 292.323242188 l 2
 92.6416015625 292.274414062 79.2529296875 278.845703125 79.2529296875 262.311523438 c 0
451.916015625 684.451171875 m 0
 433.135742188 688.87890625 415.036132812 674.595703125 415.036132812 655.237304688 c 0
 415.036132812 641.045898438 424.8984375 629.142578125 438.131835938 626.022460938 c 0
 709.756835938 561.984375 782.654296875 261.041992188 662.182617188 78.3916015625 c 0
 615.748046875 7.9912109375 540.614257812 -46.0009765625 432.747070312 -63.6142578125 c 0
 418.502929688 -65.939453125 407.616210938 -78.32421875 407.616210938 -93.2333984375 c 0
 407.616210938 -111.709960938 424.196289062 -125.8359375 442.461914062 -122.853515625 c 0
 565.768554688 -102.719726562 656.73046875 -38.8251953125 712.272460938 45.384765625 c 0
 856.376953125 263.865234375 762.23828125 611.290039062 451.916015625 684.451171875 c 0
EndSplineSet
EndChar

StartChar: uniE16E
Encoding: 57710 57710 56
Width: 1000
Flags: H
LayerCount: 2
Fore
SplineSet
498.981445312 622.999023438 m 0
 482.495117188 622.999023438 469.090820312 609.750976562 468.922851562 593.370117188 c 0
 461.603515625 -121.3984375 461.603515625 -121.3984375 461.603515625 -121.5546875 c 0
 461.603515625 -138.078125 475.073242188 -151.494140625 491.6640625 -151.494140625 c 0
 508.150390625 -151.494140625 521.5546875 -138.24609375 521.72265625 -121.865234375 c 2
 521.72265625 -121.865234375 529.041015625 592.748046875 529.041992188 593.05859375 c 0
 529.041992188 609.583007812 515.572265625 622.999023438 498.981445312 622.999023438 c 0
137.549804688 418.591796875 m 0
 126.250976562 398.7734375 140.692382812 373.901367188 163.708984375 373.901367188 c 0
 174.916992188 373.901367188 184.700195312 380.022460938 189.869140625 389.088867188 c 0
 247.594726562 490.340820312 290.69921875 554.446289062 362.09765625 597.568359375 c 0
 451.822265625 651.758789062 595.735351562 676.736328125 881.6796875 681.709960938 c 0
 898.024414062 681.994140625 911.206054688 695.298828125 911.206054688 711.645507812 c 0
 911.206054688 728.168945312 897.736328125 741.584960938 880.611328125 741.580078125 c 0
 593.12890625 736.579101562 438.234375 713.580078125 330.98828125 648.807617188 c 0
 244.810546875 596.759765625 195.514648438 520.262695312 137.549804688 418.591796875 c 0
EndSplineSet
EndChar

StartChar: uniE16F
Encoding: 57711 57711 57
Width: 1000
Flags: H
LayerCount: 2
Fore
SplineSet
195.936523438 336.64453125 m 1
 334.544921875 288.60546875 578.119140625 438.998046875 578.119140625 594.045898438 c 0
 578.119140625 638.133789062 558.178710938 701.870117188 461.588867188 751.9453125 c 0
 201.397460938 886.828125 -20.212890625 609.3671875 117.727539062 361.350585938 c 0
 156.696289062 291.272460938 170.587890625 220.928710938 170.587890625 156.112304688 c 0
 170.587890625 22.4931640625 111.390625 -84.1630859375 92.0107421875 -107.78125 c 0
 65.2822265625 -122.728515625 75.7841796875 -163.994140625 106.787109375 -163.994140625 c 0
 121.146484375 -163.994140625 131.571289062 -156.008789062 145.002929688 -137.217773438 c 0
 188.370117188 -76.541015625 280.859375 126.448242188 195.936523438 336.64453125 c 1
518.119140625 594.045898438 m 0
 518.119140625 499.319335938 365.3984375 387.432617188 254.546875 387.432617188 c 0
 175.4921875 387.432617188 162.982421875 444.614257812 160.498046875 481.587890625 c 0
 159.564453125 495.486328125 149.147460938 506.803710938 135.669921875 509.1171875 c 0
 129.4453125 660.864257812 267.147460938 785.15625 434.036132812 698.640625 c 0
 481.270507812 674.15234375 518.119140625 640.244140625 518.119140625 594.045898438 c 0
730.93359375 498.348632812 m 0
 576.564453125 498.348632812 435.118164062 373.064453125 547.029296875 181.002929688 c 0
 562.3671875 154.678710938 602.96875 165.708984375 602.96875 196.07421875 c 0
 602.96875 201.56640625 601.489257812 206.715820312 598.908203125 211.145507812 c 0
 505.490234375 371.469726562 637.26953125 438.348632812 730.93359375 438.348632812 c 0
 788.15234375 438.348632812 867.053710938 413.624023438 867.053710938 329.020507812 c 0
 867.053710938 298.995117188 856.893554688 259.328125 829.73828125 210.1796875 c 0
 818.76953125 190.327148438 833.194335938 165.703125 856.015625 165.703125 c 0
 867.325195312 165.703125 877.180664062 171.974609375 882.29296875 181.2265625 c 0
 996.506835938 387.94140625 872.493164062 498.348632812 730.93359375 498.348632812 c 0
EndSplineSet
EndChar

StartChar: uniE170
Encoding: 57712 57712 58
Width: 1000
Flags: H
LayerCount: 2
Fore
SplineSet
440.970703125 380.233398438 m 0
 440.970703125 487.418945312 568.291015625 623.162109375 637.856445312 613.78515625 c 0
 720.838867188 602.616210938 804.918945312 420.186523438 742.3203125 329.671875 c 0
 712.931640625 287.166015625 653.208007812 261.501953125 592.30859375 261.501953125 c 0
 511.27734375 261.501953125 440.970703125 306.435546875 440.970703125 380.233398438 c 0
791.703125 295.6015625 m 0
 882.49609375 426.884765625 767.108398438 674.216796875 631.208984375 674.216796875 c 0
 520.647460938 674.216796875 380.970703125 511.947265625 380.970703125 380.233398438 c 0
 380.970703125 273.583984375 475.68359375 201.501953125 592.30859375 201.501953125 c 0
 667.952148438 201.501953125 747.541015625 231.728515625 791.703125 295.6015625 c 0
493.04296875 243.76953125 m 2
 504.244140625 263.626953125 489.829101562 288.4765625 466.89453125 288.4765625 c 0
 455.6796875 288.4765625 445.893554688 282.30859375 440.74609375 273.18359375 c 2
 267.229492188 -34.4326171875 l 1
 220.038085938 37.634765625 l 2
 203.776367188 62.4677734375 164.921875 50.7939453125 164.921875 21.23046875 c 0
 164.921875 15.177734375 166.717773438 9.5419921875 169.805664062 4.826171875 c 2
 244.024414062 -108.513671875 l 2
 256.3515625 -127.337890625 284.2578125 -126.374023438 295.2890625 -106.81640625 c 2
 493.04296875 243.76953125 l 2
EndSplineSet
EndChar

StartChar: uniE171
Encoding: 57713 57713 59
Width: 1000
Flags: H
LayerCount: 2
Fore
SplineSet
171.14453125 -59.1416015625 m 2
 186.78125 -85.005859375 226.8359375 -73.7666015625 226.8359375 -43.65234375 c 0
 226.8359375 -37.986328125 225.26171875 -32.685546875 222.52734375 -28.1630859375 c 2
 155.642578125 82.462890625 l 1
 387.693359375 -12.5908203125 643.475585938 -69.2890625 935.100585938 108.873046875 c 0
 960.83203125 124.592773438 949.53515625 164.4921875 919.4921875 164.4921875 c 0
 913.776367188 164.4921875 908.432617188 162.890625 903.883789062 160.111328125 c 0
 610.038085938 -19.4072265625 358.8125 55.255859375 93.751953125 174.541015625 c 0
 67.1630859375 186.506835938 40.6689453125 156.66015625 55.7734375 131.678710938 c 2
 171.14453125 -59.1416015625 l 2
803.6640625 429.356445312 m 2
 791.65625 409.497070312 806.032226562 383.8671875 829.35546875 383.8671875 c 0
 840.247070312 383.8671875 849.791015625 389.68359375 855.046875 398.377929688 c 2
 970.41796875 589.198242188 l 2
 985.512695312 614.1640625 959.045898438 644.034179688 932.439453125 632.060546875 c 0
 667.27734375 512.73046875 416.099609375 438.14453125 122.307617188 617.630859375 c 0
 102.44921875 629.762695312 76.69921875 615.39453125 76.69921875 592.01171875 c 0
 76.69921875 581.169921875 82.462890625 571.663085938 91.0908203125 566.392578125 c 0
 382.779296875 388.19140625 638.60546875 444.97265625 870.548828125 539.982421875 c 1
 803.6640625 429.356445312 l 2
EndSplineSet
EndChar

StartChar: uniE172
Encoding: 57714 57714 60
Width: 1000
Flags: H
LayerCount: 2
Fore
SplineSet
915.99609375 284.705078125 m 0
 915.99609375 531.448242188 801.579101562 751.200195312 564.70703125 740.3984375 c 0
 422.486328125 733.909179688 392.508789062 576.641601562 279.755859375 506.018554688 c 0
 221.240234375 469.3671875 159.623046875 466.868164062 108.75 469.82421875 c 0
 92.1923828125 469.82421875 78.75 456.381835938 78.75 439.82421875 c 0
 78.75 423.915039062 91.16015625 410.881835938 106.819335938 409.885742188 c 0
 296.767578125 397.797851562 373.462890625 498.946289062 434.685546875 579.6875 c 0
 479.499023438 638.787109375 511.1328125 677.890625 567.48046875 680.4609375 c 0
 783.748046875 690.32421875 855.99609375 467.3359375 855.99609375 284.705078125 c 0
 855.99609375 92.376953125 778.107421875 -97.1982421875 662.124023438 -97.0703125 c 1
 662.124023438 -97.0703125 l 1
 645.56640625 -97.0703125 632.08984375 -110.512695312 632.08984375 -127.0703125 c 0
 632.08984375 -143.221679688 645.046875 -157.0703125 662.244140625 -157.0703125 c 0
 820.416992188 -157.0703125 915.99609375 60.037109375 915.99609375 284.705078125 c 0
EndSplineSet
EndChar

StartChar: uniE173
Encoding: 57715 57715 61
Width: 1000
Flags: H
LayerCount: 2
Fore
SplineSet
121.028320312 -119.897460938 m 2
 95.1708984375 -135.5390625 106.412109375 -175.5859375 136.5234375 -175.5859375 c 0
 142.19140625 -175.5859375 147.495117188 -174.010742188 152.018554688 -171.274414062 c 2
 534.182617188 59.8994140625 l 1
 864.529296875 -169.690429688 l 2
 884.306640625 -183.436523438 911.62109375 -169.189453125 911.62109375 -145.0390625 c 0
 911.62109375 -134.831054688 906.51171875 -125.807617188 898.712890625 -120.387695312 c 2
 552.404296875 120.295898438 l 2
 542.647460938 127.077148438 529.854492188 127.404296875 519.817382812 121.333007812 c 2
 121.028320312 -119.897460938 l 2
405 475.190429688 m 0
 405 570.094726562 518.18359375 690.202148438 578.330078125 682.10546875 c 0
 650.376953125 672.391601562 725.013671875 511.05078125 670.026367188 431.456054688 c 0
 644.377929688 394.336914062 591.760742188 371.514648438 537.833007812 371.514648438 c 0
 466.88671875 371.514648438 405 410.553710938 405 475.190429688 c 0
719.426757812 397.411132812 m 0
 802.270507812 517.329101562 697.440429688 742.463867188 572.787109375 742.463867188 c 0
 471.565429688 742.463867188 345 595.051757812 345 475.190429688 c 0
 345 377.677734375 431.329101562 311.514648438 537.833007812 311.514648438 c 0
 606.522460938 311.514648438 679.014648438 338.926757812 719.426757812 397.411132812 c 0
EndSplineSet
EndChar

StartChar: uniE174
Encoding: 57716 57716 62
Width: 1000
Flags: H
LayerCount: 2
Fore
SplineSet
864.079101562 275.380859375 m 1
 897.71484375 222.700195312 905.586914062 161.083984375 910.435546875 92.9638671875 c 1
 868.01171875 139.861328125 823.760742188 179.915039062 776.064453125 206.65234375 c 1
 804.534179688 227.1875 833.8125 250.12890625 864.079101562 275.380859375 c 1
118.897460938 71.353515625 m 1
 106.58203125 128.473632812 119.560546875 187.250976562 139.236328125 253.112304688 c 1
 162.455078125 229.110351562 185.461914062 207.512695312 208.412109375 188.39453125 c 1
 157.202148438 161.845703125 134.657226562 114.115234375 118.897460938 71.353515625 c 1
265.169921875 146.1953125 m 0
 413.609375 49.390625 555.932617188 65.9609375 718.633789062 167.869140625 c 0
 785.594726562 140.768554688 854.685546875 71.2724609375 923.780273438 -16.294921875 c 0
 942.322265625 -39.7939453125 980.370117188 -24.2421875 977.170898438 5.50390625 c 0
 974.84765625 27.1005859375 973.413085938 49.3994140625 971.9609375 72.1279296875 c 0
 966.385742188 159.356445312 961.307617188 256.693359375 891.977539062 338.345703125 c 0
 881.176757812 351.06640625 862.15234375 352.524414062 849.5625 341.703125 c 0
 691.51171875 205.848632812 570.518554688 141.883789062 464.981445312 141.883789062 c 0
 363.545898438 141.883789062 265.291992188 199.869140625 148.3359375 331.584960938 c 0
 132.768554688 349.1171875 104.086914062 342.69140625 97.2333984375 320.55078125 c 0
 68.890625 228.984375 54.091796875 181.176757812 54.091796875 118.532226562 c 0
 54.091796875 70.931640625 65.193359375 21.9072265625 94.7294921875 -26.0517578125 c 0
 107.323242188 -46.5 137.67578125 -44.53125 147.6015625 -22.78125 c 0
 155.661132812 -5.1181640625 161.836914062 12.69140625 167.766601562 29.66015625 c 0
 188.333007812 88.51171875 203.29296875 129.159179688 258.922851562 143.774414062 c 0
 261.112304688 144.349609375 263.205078125 145.166992188 265.169921875 146.1953125 c 0
EndSplineSet
EndChar

StartChar: uniE17A
Encoding: 57722 57722 63
Width: 1000
Flags: H
LayerCount: 2
Fore
SplineSet
297.772460938 695.884765625 m 0
 280.694335938 719.200195312 243.5546875 706.958007812 243.5546875 678.18359375 c 0
 243.5546875 671.56640625 245.702148438 665.446289062 249.336914062 660.482421875 c 0
 401.037109375 453.374023438 359.934570312 195.161132812 308.250976562 -79.64453125 c 0
 304.779296875 -98.107421875 318.959960938 -115.21484375 337.734375 -115.21484375 c 0
 348.303710938 -115.21484375 357.604492188 -109.737304688 362.948242188 -101.467773438 c 0
 399.80078125 -44.44921875 440.736328125 14.068359375 482.75 74.1123046875 c 0
 609.859375 255.770507812 747.469726562 451.372070312 809.756835938 666.29296875 c 0
 815.29296875 685.395507812 800.932617188 704.6484375 780.9375 704.6484375 c 0
 767.279296875 704.6484375 755.740234375 695.500976562 752.118164062 683.00390625 c 0
 693.637695312 481.215820312 560.797851562 290.301757812 433.555664062 108.453125 c 0
 419.607421875 88.51953125 405.734375 68.6943359375 392.044921875 48.96875 c 1
 428.146484375 274.270507812 438.474609375 503.790039062 297.772460938 695.884765625 c 0
EndSplineSet
EndChar

StartChar: uniE124
Encoding: 57636 57636 64
Width: 1000
Flags: HW
LayerCount: 2
Fore
SplineSet
209.86328125 802.278320312 m 0
 182.392578125 802.278320312 160.067382812 780.077148438 159.864257812 752.654296875 c 0
 153.581054688 -98.7705078125 153.581054688 -98.7705078125 153.581054688 -98.9580078125 c 0
 153.581054688 -126.553710938 175.985351562 -148.958007812 203.581054688 -148.958007812 c 0
 231.05078125 -148.958007812 253.376953125 -126.756835938 253.579101562 -99.333984375 c 2
 253.579101562 -99.333984375 259.862304688 751.90234375 259.86328125 752.278320312 c 0
 259.86328125 779.874023438 237.458984375 802.278320312 209.86328125 802.278320312 c 0
2.6689453125 578.938476562 m 0
 2.6689453125 551.342773438 25.0732421875 528.938476562 54.4013671875 528.96875 c 2
 948.314453125 559.469726562 l 2
 975.109375 560.383789062 996.58203125 582.423828125 996.58203125 609.440429688 c 0
 996.58203125 637.036132812 974.177734375 659.440429688 944.849609375 659.41015625 c 2
 50.9365234375 628.909179688 l 2
 24.1416015625 627.995117188 2.6689453125 605.955078125 2.6689453125 578.938476562 c 0
EndSplineSet
EndChar

StartChar: uniE125
Encoding: 57637 57637 65
Width: 1000
Flags: HW
LayerCount: 2
Fore
SplineSet
1.5419921875 311.21484375 m 2
 -1.1533203125 305.08984375 -6.4306640625 289.12890625 1.541015625 271.012695312 c 0
 194.412109375 -167.268554688 194.412109375 -167.268554688 194.412109375 -167.268554688 c 2
 211.875976562 -206.951171875 268.532226562 -206.94921875 285.9921875 -167.265625 c 2
 478.831054688 271.015625 l 2
 481.525390625 277.139648438 486.80078125 293.099609375 478.830078125 311.211914062 c 2
 285.9921875 749.4609375 l 2
 268.53125 789.143554688 211.876953125 789.145507812 194.413085938 749.463867188 c 2
 1.5419921875 311.21484375 l 2
101.965820312 291.112304688 m 1
 240.198242188 605.208984375 l 1
 378.407226562 291.112304688 l 1
 240.198242188 -23.0068359375 l 1
 101.965820312 291.112304688 l 1
EndSplineSet
EndChar

StartChar: uniE17B
Encoding: 57723 57723 66
Width: 1000
Flags: H
LayerCount: 2
Fore
SplineSet
400.176757812 -23.39453125 m 0
 400.176757812 50.6953125 489.44921875 144.227539062 533.607421875 138.259765625 c 0
 587.194335938 131.03125 645.794921875 5.4853515625 603.706054688 -55.5341796875 c 0
 584.39453125 -83.521484375 543.810546875 -101.528320312 501.6875 -101.528320312 c 0
 447.8046875 -101.528320312 400.176757812 -72.4580078125 400.176757812 -23.39453125 c 0
678.01171875 -2.6982421875 m 0
 678.01171875 92.33984375 609.736328125 198.499023438 529.90234375 198.499023438 c 0
 444.50390625 198.499023438 340.176757812 76.33984375 340.176757812 -23.39453125 c 0
 340.176757812 -105.409179688 412.331054688 -161.528320312 501.6875 -161.528320312 c 0
 581.067382812 -161.528320312 678.01171875 -115.6640625 678.01171875 -2.6982421875 c 0
449.31640625 220.078125 m 0
 449.31640625 236.448242188 436.17578125 249.7734375 419.876953125 250.073242188 c 2
 282.073242188 252.603515625 l 1
 472.016601562 638.15625 l 1
 663.708984375 211.060546875 l 2
 673.606445312 189.0078125 704.412109375 187.125 716.865234375 207.962890625 c 2
 811.396484375 366.146484375 l 2
 823.265625 386.0078125 808.881835938 411.50390625 785.625 411.50390625 c 0
 774.678710938 411.50390625 765.092773438 405.627929688 759.853515625 396.861328125 c 2
 694.885742188 288.146484375 l 1
 500.666015625 720.873046875 l 2
 490.305664062 743.956054688 457.549804688 744.5703125 446.352539062 721.842773438 c 2
 207.348632812 236.706054688 l 2
 197.697265625 217.116210938 211.766601562 193.884765625 233.716796875 193.481445312 c 2
 233.716796875 193.481445312 418.755859375 190.083007812 419.31640625 190.078125 c 0
 435.874023438 190.078125 449.31640625 203.520507812 449.31640625 220.078125 c 0
EndSplineSet
EndChar

StartChar: uniE17C
Encoding: 57724 57724 67
Width: 1000
Flags: H
LayerCount: 2
Fore
SplineSet
753.086914062 488.852539062 m 0
 838.069335938 488.852539062 898.797851562 449.53515625 888.020507812 310.947265625 c 0
 873.44921875 123.561523438 779.999023438 117.045898438 741.501953125 117.045898438 c 0
 673.891601562 117.045898438 581.94921875 155.376953125 485.416015625 220.5625 c 0
 438.958984375 251.93359375 391.631835938 289.155273438 345.271484375 330.249023438 c 1
 376.381835938 350.212890625 408.333984375 369.15234375 440.4375 386.5 c 0
 554.423828125 448.092773438 670.106445312 488.852539062 753.086914062 488.852539062 c 0
881.41015625 510.491210938 m 0
 755.626953125 608.912109375 498.212890625 502.114257812 299.588867188 372.28515625 c 0
 242.336914062 426.922851562 187.577148438 486.650390625 138.9609375 547.52734375 c 0
 121.3125 569.626953125 85.5078125 556.986328125 85.5078125 528.828125 c 0
 85.5078125 521.759765625 87.9580078125 515.258789062 92.0546875 510.12890625 c 0
 139.78515625 450.358398438 192.978515625 391.836914062 248.857421875 337.729492188 c 1
 163.825195312 277.39453125 88.763671875 211.515625 36.8955078125 150.220703125 c 0
 20.466796875 130.806640625 34.388671875 100.859375 59.8046875 100.859375 c 0
 68.9853515625 100.859375 77.208984375 104.9921875 82.7138671875 111.498046875 c 0
 132.014648438 169.758789062 207.818359375 235.650390625 293.760742188 295.734375 c 1
 388.375976562 210.33203125 580.602539062 57.0458984375 741.501953125 57.0458984375 c 0
 817.892578125 57.0458984375 931.314453125 93.74609375 947.838867188 306.240234375 c 0
 953.799804688 382.904296875 941.71484375 463.3046875 881.41015625 510.491210938 c 0
EndSplineSet
EndChar

StartChar: uniE17D
Encoding: 57725 57725 68
Width: 1000
Flags: H
LayerCount: 2
Fore
SplineSet
370.211914062 113.114257812 m 0
 300.131835938 260.952148438 517.3046875 525.369140625 638.947265625 508.961914062 c 0
 761.409179688 492.4296875 879.920898438 232.447265625 789.6484375 101.661132812 c 0
 700.372070312 -27.724609375 440.286132812 -34.7470703125 370.211914062 113.114257812 c 0
839.0625 67.6357421875 m 0
 958.599609375 240.823242188 804.729492188 569.651367188 628.372070312 569.651367188 c 0
 460.033203125 569.651367188 228.518554688 271.93359375 315.959960938 87.4716796875 c 0
 406.241210938 -103.025390625 723.42578125 -99.9521484375 839.0625 67.6357421875 c 0
470.432617188 332.506835938 m 0
 489.123046875 313.186523438 521.9921875 326.56640625 521.9921875 353.359375 c 0
 521.9921875 361.458007812 518.776367188 368.811523438 513.551757812 374.211914062 c 0
 459.240234375 430.352539062 345.790039062 538.5703125 199.77734375 675.587890625 c 0
 180.689453125 693.5 149.2578125 679.829101562 149.2578125 653.7109375 c 0
 149.2578125 645.086914062 152.904296875 637.30859375 158.73828125 631.833984375 c 0
 304.405273438 495.140625 418.025390625 386.678710938 470.432617188 332.506835938 c 0
EndSplineSet
EndChar

StartChar: uniE17E
Encoding: 57726 57726 69
Width: 1000
Flags: H
LayerCount: 2
Fore
SplineSet
166.079101562 384.247070312 m 0
 122.184570312 384.247070312 86.044921875 338.884765625 86.044921875 284.9921875 c 0
 86.044921875 213.955078125 153.545898438 199.177734375 185.184570312 199.177734375 c 0
 233.943359375 199.177734375 266.635742188 227.54296875 266.635742188 268.348632812 c 0
 266.635742188 318.004882812 217.873046875 384.247070312 166.079101562 384.247070312 c 0
166.079101562 324.247070312 m 0
 180.853515625 324.247070312 211.05859375 280.958984375 206.327148438 265.541015625 c 0
 198.2734375 254.448242188 157.39453125 259.322265625 148.73828125 272.094726562 c 0
 140.595703125 284.115234375 152.254882812 322.859375 166.079101562 324.247070312 c 0
843.950195312 322.938476562 m 0
 858.725585938 322.938476562 888.930664062 279.646484375 884.198242188 264.232421875 c 0
 876.154296875 253.126953125 835.260742188 258.0078125 826.616210938 270.774414062 c 0
 818.444335938 282.83203125 830.17578125 321.58984375 843.950195312 322.938476562 c 0
843.950195312 382.938476562 m 0
 800.05078125 382.938476562 763.916015625 337.563476562 763.916015625 283.67578125 c 0
 763.916015625 212.59765625 831.48828125 197.861328125 863.048828125 197.861328125 c 0
 911.739257812 197.861328125 944.506835938 226.18359375 944.506835938 267.040039062 c 0
 944.506835938 316.696289062 895.744140625 382.938476562 843.950195312 382.938476562 c 0
201.353515625 336.341796875 m 2
 179.043945312 318.786132812 191.619140625 282.75390625 219.8828125 282.75390625 c 0
 226.874023438 282.75390625 233.309570312 285.150390625 238.412109375 289.166015625 c 2
 374.938476562 396.59765625 l 1
 596.25 93.6953125 l 2
 605.92578125 80.4521484375 624.323242188 77.46484375 637.626953125 86.748046875 c 2
 828.779296875 220.126953125 l 2
 852.76171875 236.860351562 840.758789062 274.74609375 811.640625 274.74609375 c 0
 805.270507812 274.74609375 799.362304688 272.756835938 794.501953125 269.365234375 c 2
 627.393554688 152.762695312 l 1
 405.05859375 457.06640625 l 2
 395.002929688 470.830078125 375.599609375 473.455078125 362.291015625 462.982421875 c 2
 201.353515625 336.341796875 l 2
219.87890625 312.76171875 m 1
 380.823242188 439.399414062 l 1
 620.495117188 111.359375 l 1
 811.643554688 244.751953125 l 1025
EndSplineSet
EndChar

StartChar: uniE17F
Encoding: 57727 57727 70
Width: 1000
Flags: H
LayerCount: 2
Fore
SplineSet
134.250976562 30.3173828125 m 0
 134.250976562 137.501953125 261.555664062 273.24609375 331.123046875 263.8828125 c 0
 414.090820312 252.700195312 498.186523438 70.267578125 435.599609375 -20.2529296875 c 0
 406.201171875 -62.7626953125 346.478515625 -88.419921875 285.58203125 -88.419921875 c 0
 204.552734375 -88.419921875 134.250976562 -43.484375 134.250976562 30.3173828125 c 0
484.986328125 -54.3173828125 m 0
 575.774414062 76.9921875 460.3203125 324.3125 324.484375 324.3125 c 0
 213.924804688 324.3125 74.2509765625 162.036132812 74.2509765625 30.3173828125 c 0
 74.2509765625 -76.3359375 168.9609375 -148.419921875 285.58203125 -148.419921875 c 0
 361.224609375 -148.419921875 440.815429688 -118.186523438 484.986328125 -54.3173828125 c 0
581.041992188 24.625 m 0
 581.041992188 131.8046875 708.352539062 267.54296875 777.919921875 258.1796875 c 0
 860.887695312 246.997070312 944.982421875 64.583984375 882.396484375 -25.9365234375 c 0
 852.995117188 -68.45703125 793.267578125 -94.1201171875 732.370117188 -94.1201171875 c 0
 651.3046875 -94.1201171875 581.041992188 -49.150390625 581.041992188 24.625 c 0
931.783203125 -60.0009765625 m 0
 1022.57324219 71.3115234375 907.11328125 318.609375 771.28125 318.609375 c 0
 660.720703125 318.609375 521.041992188 156.33984375 521.041992188 24.625 c 0
 521.041992188 -82.0146484375 615.732421875 -154.120117188 732.370117188 -154.120117188 c 0
 808.016601562 -154.120117188 887.611328125 -123.8828125 931.783203125 -60.0009765625 c 0
381.009765625 429.666992188 m 0
 381.009765625 536.852539062 508.331054688 672.602539062 577.900390625 663.23828125 c 0
 660.8671875 652.055664062 744.961914062 469.625976562 682.359375 379.10546875 c 0
 652.970703125 336.599609375 593.247070312 310.935546875 532.34765625 310.935546875 c 0
 451.31640625 310.935546875 381.009765625 355.869140625 381.009765625 429.666992188 c 0
731.7421875 345.03515625 m 0
 822.5546875 476.345703125 707.09765625 723.66796875 571.26171875 723.66796875 c 0
 460.700195312 723.66796875 321.009765625 561.388671875 321.009765625 429.666992188 c 0
 321.009765625 323.017578125 415.72265625 250.935546875 532.34765625 250.935546875 c 0
 607.991210938 250.935546875 687.580078125 281.162109375 731.7421875 345.03515625 c 0
EndSplineSet
EndChar

StartChar: uniE180
Encoding: 57728 57728 71
Width: 1000
Flags: H
LayerCount: 2
Fore
SplineSet
144.962890625 334.51171875 m 1
 283.567382812 286.484375 527.140625 436.873046875 527.140625 591.919921875 c 0
 527.140625 636.005859375 507.201171875 699.741210938 410.614257812 749.815429688 c 0
 150.424804688 884.719726562 -71.1904296875 607.262695312 66.7509765625 359.220703125 c 0
 105.719726562 289.149414062 119.611328125 218.809570312 119.611328125 153.99609375 c 0
 119.611328125 20.3828125 60.4130859375 -86.2734375 41.0341796875 -109.890625 c 0
 14.3056640625 -124.837890625 24.8076171875 -166.103515625 55.810546875 -166.103515625 c 0
 70.169921875 -166.103515625 80.5947265625 -158.119140625 94.0263671875 -139.327148438 c 0
 137.391601562 -78.6533203125 229.880859375 124.330078125 144.962890625 334.51171875 c 1
467.140625 591.919921875 m 0
 467.140625 497.194335938 314.416015625 385.303710938 203.5625 385.303710938 c 0
 124.502929688 385.303710938 112.002929688 442.493164062 109.521484375 479.45703125 c 0
 108.588867188 493.356445312 98.171875 504.674804688 84.693359375 506.98828125 c 0
 78.4638671875 658.750976562 216.16796875 783.04296875 383.057617188 696.512695312 c 0
 430.293945312 672.024414062 467.140625 638.1171875 467.140625 591.919921875 c 0
578.575195312 342.698242188 m 1
 717.185546875 294.66015625 960.765625 445.057617188 960.765625 600.106445312 c 0
 960.765625 644.193359375 940.826171875 707.92578125 844.245117188 758 c 0
 584.056640625 892.881835938 362.422851562 615.4453125 500.364257812 367.404296875 c 0
 539.333984375 297.331054688 553.225585938 226.990234375 553.225585938 162.17578125 c 0
 553.225585938 28.5712890625 494.034179688 -78.08984375 474.65625 -101.712890625 c 0
 447.939453125 -116.666992188 458.446289062 -157.919921875 489.443359375 -157.919921875 c 0
 503.805664062 -157.919921875 514.2265625 -149.932617188 527.654296875 -131.139648438 c 0
 556.587890625 -90.646484375 613.225585938 22.685546875 613.225585938 162.17578125 c 0
 613.225585938 219.25 603.618164062 280.715820312 578.575195312 342.698242188 c 1
900.765625 600.106445312 m 0
 900.765625 505.37890625 748.0390625 393.487304688 637.184570312 393.487304688 c 0
 558.12890625 393.487304688 545.619140625 450.66796875 543.134765625 487.642578125 c 0
 542.201171875 501.540039062 531.78515625 512.857421875 518.30859375 515.171875 c 0
 512.084960938 666.931640625 649.803710938 791.2109375 816.692382812 704.6953125 c 0
 863.921875 680.208984375 900.765625 646.302734375 900.765625 600.106445312 c 0
EndSplineSet
EndChar

StartChar: uniE126
Encoding: 57638 57638 72
Width: 1000
Flags: HW
LayerCount: 2
Fore
SplineSet
334.833984375 -174.423828125 m 2
 363.829101562 -212.181640625 424.51171875 -191.40625 424.51171875 -144.010742188 c 0
 424.51171875 -132.572265625 420.662109375 -122.025390625 414.189453125 -113.596679688 c 2
 122.90234375 265.716796875 l 1
 495.331054688 662.744140625 l 1
 897.615234375 398.697265625 l 2
 930.66015625 377.006835938 975 400.85546875 975 440.52734375 c 0
 975 458.016601562 966.000976562 473.420898438 952.384765625 482.357421875 c 2
 515.015625 769.434570312 l 2
 494.904296875 782.634765625 467.932617188 779.674804688 451.162109375 761.795898438 c 2
 20.9208984375 303.137695312 l 2
 4.107421875 285.212890625 2.8662109375 257.86328125 17.7109375 238.532226562 c 2
 334.833984375 -174.423828125 l 2
374.501953125 -144.016601562 m 1
 57.3974609375 268.935546875 l 1
 487.645507812 727.619140625 l 1
 925.004882812 440.520507812 l 1025
EndSplineSet
EndChar

StartChar: uniE181
Encoding: 57729 57729 73
Width: 1000
Flags: H
LayerCount: 2
Fore
SplineSet
384.044921875 500.861328125 m 0
 384.044921875 589.02734375 490.298828125 700.514648438 545.72265625 693.10546875 c 0
 612.3359375 684.200195312 682.321289062 534.451171875 631.079101562 460.856445312 c 0
 607.293945312 426.684570312 558.198242188 405.43359375 507.715820312 405.43359375 c 0
 441.811523438 405.43359375 384.044921875 441.211914062 384.044921875 500.861328125 c 0
708.963867188 524.888671875 m 0
 708.963867188 632.677734375 630.76953125 753.155273438 540.731445312 753.155273438 c 0
 443.967773438 753.155273438 323.7734375 614.056640625 323.7734375 500.861328125 c 0
 323.7734375 408.45703125 406.137695312 345.704101562 507.715820312 345.704101562 c 0
 596.890625 345.704101562 708.963867188 396.184570312 708.963867188 524.888671875 c 0
382.046875 153.319335938 m 0
 330.9453125 153.319335938 290.991210938 93.32421875 319.073242188 -1.046875 c 0
 322.754882812 -13.419921875 334.3125 -22.4609375 347.983398438 -22.4609375 c 0
 364.616210938 -22.4609375 378.120117188 -9.0791015625 378.120117188 7.4033203125 c 0
 378.120117188 16.7470703125 370.111328125 32.580078125 370.111328125 57.7724609375 c 0
 370.111328125 83.6728515625 380.083007812 94.5908203125 382.046875 93.58984375 c 0
 393.48828125 93.58984375 429.369140625 51.625 429.369140625 -66.3037109375 c 0
 429.369140625 -76.1328125 428.534179688 -99.529296875 428.534179688 -99.865234375 c 0
 428.534179688 -116.34765625 442.038085938 -129.729492188 458.669921875 -129.729492188 c 0
 474.8125 -129.729492188 488.006835938 -117.125 488.771484375 -101.314453125 c 0
 490.123046875 -73.3486328125 491.822265625 -38.169921875 513.861328125 25.251953125 c 0
 532.875976562 79.96875 560.768554688 134.672851562 589.369140625 179.505859375 c 0
 599.374023438 195.189453125 630.239257812 241.849609375 658.875976562 266.970703125 c 1
 656.334960938 248.903320312 649.671875 220.92578125 637.110351562 183.688476562 c 0
 630.623046875 164.458007812 645.09765625 144.360351562 665.69921875 144.360351562 c 0
 678.995117188 144.360351562 690.291015625 152.912109375 694.288085938 164.76171875 c 0
 724.102539062 253.143554688 731.163085938 307.504882812 700.828125 330.650390625 c 0
 650.748046875 368.860351562 579.07421875 275.141601562 538.385742188 211.359375 c 0
 512.776367188 171.213867188 487.96875 124.400390625 468.357421875 75.4228515625 c 1
 460.216796875 96.451171875 433.447265625 153.319335938 382.046875 153.319335938 c 0
EndSplineSet
EndChar

StartChar: uniE182
Encoding: 57730 57730 74
Width: 1000
Flags: H
LayerCount: 2
Fore
SplineSet
47.0166015625 488.653320312 m 2
 28.2294921875 469.801757812 41.7255859375 437.48046875 68.26171875 437.48046875 c 0
 76.55859375 437.48046875 84.07421875 440.856445312 89.5068359375 446.307617188 c 2
 266.713867188 624.12109375 l 1
 857.068359375 -34.6376953125 l 2
 875.383789062 -55.07421875 909.4140625 -41.9638671875 909.4140625 -14.62890625 c 0
 909.4140625 -6.9443359375 906.518554688 0.0693359375 901.759765625 5.3798828125 c 2
 290.216796875 687.782226562 l 2
 278.701171875 700.6328125 258.791015625 701.153320312 246.625976562 688.946289062 c 2
 47.0166015625 488.653320312 l 2
68.2568359375 467.475585938 m 1
 267.869140625 667.778320312 l 1
 879.409179688 -14.6376953125 l 1025
688.65625 86.8798828125 m 0
 646.610351562 86.8798828125 612.015625 42.9345703125 612.015625 -10.0771484375 c 0
 612.015625 -79.2060546875 676.0546875 -94.0185546875 706.440429688 -94.0185546875 c 0
 751.569335938 -94.0185546875 784.39453125 -67.1826171875 784.39453125 -26.1513671875 c 0
 784.39453125 21.89453125 738.671875 86.8798828125 688.65625 86.8798828125 c 0
688.708007812 26.865234375 m 0
 706.52734375 21.5849609375 727.499023438 -15.873046875 724.130859375 -28.7802734375 c 0
 716.514648438 -38.4765625 681.577148438 -33.296875 674.447265625 -22.3876953125 c 0
 666.8984375 -10.8251953125 678.254882812 25.212890625 688.708007812 26.865234375 c 0
EndSplineSet
EndChar

StartChar: uniE183
Encoding: 57731 57731 75
Width: 1000
Flags: H
LayerCount: 2
Fore
SplineSet
305.208984375 163.78515625 m 0
 286.520507812 167.341796875 269.119140625 153.28515625 269.119140625 134.62109375 c 0
 269.119140625 120.16796875 279.666992188 108.112304688 293.619140625 105.45703125 c 0
 390.827148438 86.9609375 468.609375 34.34765625 480.537109375 -124.3828125 c 0
 481.692382812 -139.749023438 494.787109375 -151.880859375 510.749023438 -151.880859375 c 0
 527.469726562 -151.880859375 541.043945312 -138.569335938 541.043945312 -122.037109375 c 2
 537.157226562 725.932617188 l 2
 537.08203125 742.266601562 523.536132812 755.504882812 506.862304688 755.504882812 c 0
 490.141601562 755.504882812 476.567382812 742.193359375 476.567382812 725.661132812 c 2
 479.598632812 64.4853515625 l 1
 436.274414062 121.397460938 373.909179688 150.713867188 305.208984375 163.78515625 c 0
572.474609375 342.609375 m 2
 557.373046875 323.150390625 571.631835938 294.934570312 596.595703125 294.934570312 c 0
 606.432617188 294.934570312 615.181640625 299.541992188 620.716796875 306.674804688 c 2
 772.947265625 502.83203125 l 2
 788.048828125 522.291992188 773.7890625 550.5078125 748.825195312 550.5078125 c 0
 738.98828125 550.5078125 730.239257812 545.899414062 724.704101562 538.766601562 c 2
 572.474609375 342.609375 l 2
EndSplineSet
EndChar

StartChar: uniE184
Encoding: 57732 57732 76
Width: 1000
Flags: H
LayerCount: 2
Fore
SplineSet
405.2734375 -41.97265625 m 0
 405.2734375 -25.6015625 392.131835938 -12.275390625 375.83203125 -11.9775390625 c 2
 141.041015625 -7.6845703125 l 1
 456.2734375 633.953125 l 1
 762.075195312 -49.2822265625 l 2
 771.961914062 -71.373046875 802.819335938 -73.255859375 815.262695312 -52.376953125 c 2
 959.325195312 189.361328125 l 2
 971.161132812 209.223632812 956.776367188 234.6875 933.53515625 234.6875 c 0
 922.575195312 234.6875 912.98046875 228.797851562 907.745117188 220.013671875 c 2
 793.266601562 27.9169921875 l 1
 484.936523438 716.801757812 l 2
 474.587890625 739.922851562 441.78125 740.536132812 430.595703125 717.770507812 c 2
 66.357421875 -23.6162109375 l 2
 56.734375 -43.205078125 70.8046875 -66.41015625 92.7421875 -66.8115234375 c 2
 92.7421875 -66.8115234375 374.71484375 -71.9677734375 375.2734375 -71.97265625 c 0
 391.831054688 -71.97265625 405.2734375 -58.5302734375 405.2734375 -41.97265625 c 0
EndSplineSet
EndChar

StartChar: uniE185
Encoding: 57733 57733 77
Width: 1000
Flags: H
LayerCount: 2
Fore
SplineSet
511.626953125 689.217773438 m 0
 362.712890625 689.217773438 238.294921875 578.814453125 341.697265625 421.647460938 c 0
 357.994140625 396.875976562 396.77734375 408.575195312 396.77734375 438.10546875 c 0
 396.77734375 444.180664062 394.967773438 449.836914062 391.857421875 454.563476562 c 0
 305.505859375 585.815429688 439.337890625 629.217773438 511.626953125 629.217773438 c 0
 529.194335938 629.217773438 584.473632812 626.532226562 615.305664062 594.305664062 c 0
 635.819335938 572.864257812 649.268554688 531.244140625 600.856445312 453.639648438 c 0
 588.471679688 433.788085938 602.82421875 407.79296875 626.328125 407.79296875 c 0
 637.069335938 407.79296875 646.5 413.450195312 651.799804688 421.946289062 c 0
 757.153320312 590.823242188 648.177734375 689.217773438 511.626953125 689.217773438 c 0
510.8203125 255.806640625 m 0
 361.907226562 255.806640625 237.497070312 145.403320312 340.895507812 -11.76953125 c 0
 357.192382812 -36.5419921875 395.9765625 -24.84375 395.9765625 4.6875 c 0
 395.9765625 10.7626953125 394.166992188 16.4189453125 391.057617188 21.14453125 c 0
 304.706054688 152.405273438 438.532226562 195.806640625 510.8203125 195.806640625 c 0
 528.387695312 195.806640625 583.668945312 193.12109375 614.502929688 160.892578125 c 0
 635.018554688 139.44921875 648.46875 97.8271484375 600.055664062 20.2216796875 c 0
 587.670898438 0.3701171875 602.0234375 -25.625 625.52734375 -25.625 c 0
 636.268554688 -25.625 645.69921875 -19.9677734375 650.999023438 -11.4716796875 c 0
 756.353515625 157.407226562 647.375 255.806640625 510.8203125 255.806640625 c 0
EndSplineSet
EndChar

StartChar: uniE186
Encoding: 57734 57734 78
Width: 1000
Flags: H
LayerCount: 2
Fore
SplineSet
119.70703125 237.83203125 m 0
 119.70703125 219.76171875 135.623046875 205.733398438 153.625 208.0859375 c 0
 398.407226562 240.071289062 564.927734375 407.829101562 712.713867188 594.841796875 c 1
 707.14453125 570.4609375 701.631835938 545.86328125 696.086914062 521.127929688 c 0
 646.685546875 300.731445312 594.301757812 69.810546875 481.538085938 -114.534179688 c 0
 469.390625 -134.391601562 483.7578125 -160.15625 507.1484375 -160.15625 c 0
 517.984375 -160.15625 527.486328125 -154.3984375 532.758789062 -145.778320312 c 0
 652.657226562 50.228515625 705.283203125 287.78515625 754.63671875 507.967773438 c 0
 770.950195312 580.747070312 786.856445312 651.674804688 804.482421875 718.577148438 c 0
 809.4765625 737.534179688 795.153320312 756.23046875 775.46875 756.23046875 c 0
 765.65625 756.23046875 756.9375 751.508789062 751.462890625 744.215820312 c 0
 578.80078125 514.215820312 409.356445312 302.018554688 145.7890625 267.578125 c 0
 131.080078125 265.65625 119.70703125 253.061523438 119.70703125 237.83203125 c 0
EndSplineSet
EndChar

StartChar: uniE187
Encoding: 57735 57735 79
Width: 1000
Flags: H
LayerCount: 2
Fore
SplineSet
970.997070312 -29.7265625 m 2
 996.791992188 -14.046875 985.55078125 26.01171875 955.4921875 26.01171875 c 0
 949.819335938 26.01171875 944.512695312 24.427734375 939.98828125 21.677734375 c 2
 851.619140625 -32.037109375 l 1
 932.836914062 170.62109375 979.720703125 395.6875 824.16796875 651.713867188 c 0
 808.491210938 677.516601562 768.59375 666.223632812 768.59375 636.123046875 c 0
 768.59375 630.415039062 770.184570312 625.077148438 772.947265625 620.53125 c 0
 930.045898438 361.961914062 865.213867188 141.043945312 760.033203125 -93.9345703125 c 0
 748.110351562 -120.572265625 777.956054688 -147.065429688 802.891601562 -131.908203125 c 2
 970.997070312 -29.7265625 l 2
80.5380859375 21.4267578125 m 2
 60.7021484375 33.48828125 35.064453125 19.09765625 35.064453125 -4.2724609375 c 0
 35.064453125 -15.1611328125 40.857421875 -24.7041015625 49.51953125 -29.9716796875 c 2
 217.59765625 -132.181640625 l 2
 242.515625 -147.333984375 272.390625 -120.869140625 260.459960938 -94.2119140625 c 0
 155.173828125 141.032226562 90.5517578125 361.836914062 247.573242188 620.254882812 c 0
 259.654296875 640.137695312 245.30078125 665.8828125 221.963867188 665.8828125 c 0
 211.120117188 665.8828125 201.614257812 660.096679688 196.354492188 651.439453125 c 0
 40.76953125 395.387695312 87.6962890625 170.291992188 168.870117188 -32.2890625 c 1
 80.5380859375 21.4267578125 l 2
334.340820312 395.969726562 m 0
 334.340820312 506.39453125 464.723632812 646.150390625 536.282226562 636.474609375 c 0
 621.58984375 624.938476562 707.754882812 436.990234375 643.490234375 343.595703125 c 0
 613.26953125 299.693359375 552.038085938 273.323242188 489.671875 273.323242188 c 0
 406.44140625 273.323242188 334.340820312 319.788085938 334.340820312 395.969726562 c 0
692.854492188 309.545898438 m 0
 785.252929688 443.825195312 667.657226562 696.994140625 529.4140625 696.994140625 c 0
 416.850585938 696.994140625 274.413085938 530.779296875 274.413085938 395.969726562 c 0
 274.413085938 286.86328125 370.98828125 213.250976562 489.671875 213.250976562 c 0
 566.809570312 213.250976562 647.909179688 244.250976562 692.854492188 309.545898438 c 0
EndSplineSet
EndChar

StartChar: uniE188
Encoding: 57736 57736 80
Width: 1000
Flags: H
LayerCount: 2
Fore
SplineSet
297.65625 277.745117188 m 0
 297.65625 388.165039062 462.3125 490.864257812 462.3125 609.096679688 c 0
 462.3125 659.467773438 432.0859375 705.991210938 369.73828125 747.631835938 c 0
 349.77734375 760.962890625 322.543945312 746.802734375 322.543945312 722.989257812 c 0
 322.543945312 712.745117188 327.815429688 703.702148438 335.833007812 698.34765625 c 0
 389.423828125 662.556640625 401.829101562 633.797851562 401.829101562 609.096679688 c 0
 401.829101562 520.02734375 237.172851562 412.989257812 237.172851562 277.745117188 c 0
 237.172851562 216.318359375 271.258789062 154.982421875 349.936523438 94.361328125 c 0
 369.69140625 79.140625 398.798828125 93.1005859375 398.798828125 117.805664062 c 0
 398.798828125 127.321289062 394.250976562 135.80078125 387.177734375 141.25 c 0
 316.751953125 195.513671875 297.65625 239.904296875 297.65625 277.745117188 c 0
586.063476562 56.5078125 m 0
 586.063476562 166.934570312 750.71875 269.639648438 750.71875 387.8671875 c 0
 750.71875 438.2421875 720.486328125 484.765625 658.126953125 526.40234375 c 0
 638.166015625 539.73046875 610.935546875 525.5703125 610.935546875 501.758789062 c 0
 610.935546875 491.512695312 616.208984375 482.46875 624.227539062 477.114257812 c 0
 677.829101562 441.325195312 690.234375 412.567382812 690.234375 387.8671875 c 0
 690.234375 298.803710938 525.580078125 191.756835938 525.580078125 56.5078125 c 0
 525.580078125 -4.9169921875 559.661132812 -66.2509765625 638.327148438 -126.869140625 c 0
 658.08203125 -142.090820312 687.19140625 -128.130859375 687.19140625 -103.42578125 c 0
 687.19140625 -93.91015625 682.642578125 -85.431640625 675.571289062 -79.9814453125 c 0
 605.15625 -25.72265625 586.063476562 18.666015625 586.063476562 56.5078125 c 0
EndSplineSet
EndChar

StartChar: uniE189
Encoding: 57737 57737 81
Width: 1000
Flags: H
LayerCount: 2
Fore
SplineSet
97.05078125 262.59765625 m 2
 97.05078125 279.155273438 83.6083984375 292.59765625 67.05078125 292.59765625 c 0
 50.4931640625 292.59765625 37.05078125 279.155273438 37.05078125 262.59765625 c 2
 37.05078125 -23.6328125 l 2
 37.05078125 -40.17578125 50.46875 -53.6083984375 67.005859375 -53.6328125 c 2
 951.953125 -54.921875 l 2
 968.510742188 -54.921875 981.953125 -41.4794921875 981.953125 -24.921875 c 0
 981.953125 -8.37890625 968.53515625 5.0537109375 951.998046875 5.078125 c 2
 97.05078125 6.3232421875 l 1
 97.05078125 262.59765625 l 2
EndSplineSet
EndChar

StartChar: uniE18A
Encoding: 57738 57738 82
Width: 1000
Flags: H
LayerCount: 2
Fore
SplineSet
347.62109375 525.563476562 m 0
 347.62109375 618.70703125 437.086914062 715.430664062 635.965820312 676.325195312 c 0
 654.491210938 672.682617188 671.77734375 686.8828125 671.77734375 705.76171875 c 0
 671.77734375 720.331054688 661.369140625 732.48828125 647.588867188 735.198242188 c 0
 404.745117188 782.948242188 287.62109375 651.248046875 287.62109375 525.563476562 c 0
 287.62109375 399.82421875 403.911132812 283.813476562 603.590820312 345.448242188 c 1
 603.590820312 345.448242188 602.734375 -105.508789062 602.734375 -105.56640625 c 0
 602.734375 -122.124023438 616.176757812 -135.56640625 632.734375 -135.56640625 c 0
 649.272460938 -135.56640625 662.703125 -122.155273438 662.734375 -105.624023438 c 2
 662.734375 -105.624023438 663.671875 388.047851562 663.671875 388.10546875 c 0
 663.671875 409.435546875 641.94921875 423.890625 622.35546875 415.89453125 c 0
 440.66015625 341.747070312 347.62109375 430.53515625 347.62109375 525.563476562 c 0
EndSplineSet
EndChar

StartChar: uniE18B
Encoding: 57739 57739 83
Width: 1000
Flags: H
LayerCount: 2
Fore
SplineSet
99.16796875 214.799804688 m 2
 83.646484375 240.842773438 43.37890625 229.684570312 43.37890625 199.47265625 c 0
 43.37890625 193.875 44.9150390625 188.6328125 47.58984375 184.145507812 c 2
 192.2578125 -58.5888671875 l 2
 204.701171875 -79.466796875 235.557617188 -77.5830078125 245.444335938 -55.4931640625 c 2
 552.614257812 630.828125 l 1
 869.370117188 -13.8984375 l 1
 633.404296875 -18.2275390625 l 2
 617.10546875 -18.52734375 603.96484375 -31.8525390625 603.96484375 -48.22265625 c 0
 603.96484375 -64.7802734375 617.407226562 -78.22265625 634.525390625 -78.2177734375 c 2
 917.669921875 -73.0224609375 l 2
 939.606445312 -72.6201171875 953.67578125 -49.4150390625 944.052734375 -29.8271484375 c 2
 578.291015625 714.645507812 l 2
 567.10546875 737.412109375 534.297851562 736.796875 523.950195312 713.676757812 c 2
 214.250976562 21.705078125 l 1
 99.16796875 214.799804688 l 2
EndSplineSet
EndChar

StartChar: uniE127
Encoding: 57639 57639 84
Width: 1000
Flags: HW
LayerCount: 2
Fore
SplineSet
464.094726562 413.118164062 m 0
 436.809570312 413.118164062 414.599609375 391.21484375 414.103515625 364.046875 c 0
 405.078125 -130.525390625 405.078125 -130.525390625 405.078125 -130.989257812 c 0
 405.078125 -158.584960938 427.482421875 -180.989257812 455.078125 -180.989257812 c 0
 482.36328125 -180.989257812 504.57421875 -159.0859375 505.069335938 -131.91796875 c 2
 505.069335938 -131.91796875 514.086914062 362.190429688 514.094726562 363.118164062 c 0
 514.094726562 390.713867188 491.690429688 413.118164062 464.094726562 413.118164062 c 0
585.5 605.806640625 m 0
 614.801757812 551.225585938 530.875976562 420.453125 457.271484375 420.453125 c 0
 440.688476562 420.453125 418.798828125 425.700195312 395.884765625 436.459960938 c 0
 367.3046875 449.881835938 337.809570312 471.323242188 314.014648438 496.034179688 c 0
 302.185546875 508.3203125 260.008789062 555.240234375 260.008789062 599.732421875 c 0
 260.008789062 679.620117188 428.891601562 700.701171875 530.907226562 651.74609375 c 0
 558.790039062 638.366210938 577.024414062 621.603515625 585.5 605.806640625 c 0
173.427734375 662.829101562 m 0
 104.37890625 511.440429688 316.90234375 306.153320312 474.369140625 321.259765625 c 0
 608.754882812 334.186523438 739.692382812 530.014648438 673.6796875 652.982421875 c 0
 590.08203125 808.786132812 248.595703125 827.725585938 173.427734375 662.829101562 c 0
EndSplineSet
EndChar

StartChar: uniE191
Encoding: 57745 57745 85
Width: 1000
Flags: HW
LayerCount: 2
Fore
SplineSet
206.76171875 78.28125 m 0
 181.2578125 62.419921875 192.5 22.3076171875 222.309570312 22.3076171875 c 0
 228.005859375 22.3076171875 233.331054688 23.931640625 237.858398438 26.7470703125 c 0
 473.459960938 173.272460938 675.896484375 150.622070312 860.491210938 11.8251953125 c 0
 880.049804688 -2.880859375 908.009765625 11.376953125 908.009765625 36.1015625 c 0
 908.009765625 46.044921875 903.260742188 54.873046875 895.938476562 60.37890625 c 0
 690.22265625 215.056640625 461.215820312 236.530273438 206.76171875 78.28125 c 0
146.633789062 290.823242188 m 0
 130.698242188 316.198242188 91.6865234375 304.596679688 91.6865234375 274.6328125 c 0
 91.6865234375 268.677734375 93.3896484375 263.123046875 96.3291015625 258.442382812 c 0
 222.250976562 57.9208984375 148.202148438 -48.7451171875 86.8857421875 -105.208007812 c 0
 66.7822265625 -123.719726562 79.853515625 -157.77734375 106.90625 -157.77734375 c 0
 114.611328125 -157.77734375 121.635742188 -154.806640625 126.927734375 -149.93359375 c 0
 216.436523438 -67.5107421875 283.616210938 72.6884765625 146.633789062 290.823242188 c 0
383.887695312 412.379882812 m 0
 383.887695312 486.456054688 473.161132812 579.998046875 517.326171875 574.040039062 c 0
 570.899414062 566.8125 629.524414062 441.251953125 587.419921875 380.231445312 c 0
 568.122070312 352.25390625 527.545898438 334.243164062 485.423828125 334.243164062 c 0
 431.522460938 334.243164062 383.887695312 363.328125 383.887695312 412.379882812 c 0
661.731445312 433.072265625 m 0
 661.731445312 528.143554688 593.418945312 634.278320312 513.627929688 634.278320312 c 0
 428.227539062 634.278320312 323.887695312 512.108398438 323.887695312 412.379882812 c 0
 323.887695312 330.370117188 396.052734375 274.243164062 485.423828125 274.243164062 c 0
 564.9453125 274.243164062 661.731445312 320.211914062 661.731445312 433.072265625 c 0
404.956054688 479.083007812 m 2
 424.66796875 464.645507812 452.65625 478.823242188 452.65625 503.30078125 c 0
 452.65625 513.240234375 447.811523438 522.057617188 440.356445312 527.518554688 c 2
 318.442382812 616.815429688 l 2
 298.73046875 631.252929688 270.7421875 617.075195312 270.7421875 592.59765625 c 0
 270.7421875 582.658203125 275.586914062 573.840820312 283.041992188 568.379882812 c 2
 404.956054688 479.083007812 l 2
EndSplineSet
EndChar

StartChar: uniE192
Encoding: 57746 57746 86
Width: 1000
Flags: H
LayerCount: 2
Fore
SplineSet
142.67578125 659.541992188 m 0
 157.448242188 659.541992188 187.62890625 616.252929688 182.890625 600.854492188 c 0
 174.841796875 589.744140625 133.958984375 594.631835938 125.30078125 607.407226562 c 0
 117.18359375 619.39453125 128.807617188 658.190429688 142.67578125 659.541992188 c 0
142.67578125 719.541992188 m 0
 98.7021484375 719.541992188 62.6162109375 674.140625 62.6162109375 620.288085938 c 0
 62.6162109375 549.229492188 130.170898438 534.482421875 161.754882812 534.482421875 c 0
 210.563476562 534.482421875 243.19921875 562.8984375 243.19921875 603.666992188 c 0
 243.19921875 653.317382812 194.463867188 719.541992188 142.67578125 719.541992188 c 0
847.596679688 20.4404296875 m 0
 862.342773438 20.4404296875 892.52734375 -22.791015625 887.814453125 -38.2431640625 c 0
 879.733398438 -49.369140625 838.880859375 -44.4541015625 830.249023438 -31.7060546875 c 0
 822.09375 -19.6728515625 833.766601562 19.091796875 847.596679688 20.4404296875 c 0
847.596679688 80.4404296875 m 0
 803.630859375 80.4404296875 767.548828125 35.0341796875 767.548828125 -18.8056640625 c 0
 767.548828125 -89.8828125 835.12109375 -104.619140625 866.677734375 -104.619140625 c 0
 915.541015625 -104.619140625 948.12109375 -76.1591796875 948.12109375 -35.44140625 c 0
 948.12109375 14.201171875 899.38671875 80.4404296875 847.596679688 80.4404296875 c 0
EndSplineSet
EndChar

StartChar: uniE193
Encoding: 57747 57747 87
Width: 1000
Flags: H
LayerCount: 2
Fore
SplineSet
736.130859375 546.252929688 m 2
 755.284179688 528.609375 786.4453125 542.330078125 786.4453125 568.3203125 c 0
 786.4453125 577.043945312 782.712890625 584.903320312 776.759765625 590.387695312 c 2
 639.513671875 716.813476562 l 2
 620.4453125 734.37890625 589.42578125 720.866210938 589.200195312 695.012695312 c 2
 589.200195312 695.012695312 582.012695312 -129.811523438 582.01171875 -130.078125 c 0
 582.01171875 -146.635742188 595.454101562 -160.078125 612.01171875 -160.078125 c 0
 628.48046875 -160.078125 641.8671875 -146.779296875 642.010742188 -130.344726562 c 2
 648.609375 626.874023438 l 1
 736.130859375 546.252929688 l 2
274.974609375 598.255859375 m 2
 254.943359375 579.797851562 268.155273438 546.19140625 295.29296875 546.19140625 c 0
 303.127929688 546.19140625 310.265625 549.201171875 315.611328125 554.126953125 c 2
 403.110351562 634.751953125 l 1
 409.708007812 -122.454101562 l 2
 409.8515625 -138.888671875 423.23828125 -152.1875 439.70703125 -152.1875 c 0
 456.264648438 -152.1875 469.70703125 -138.745117188 469.706054688 -121.920898438 c 2
 462.518554688 702.903320312 l 2
 462.29296875 728.759765625 431.26953125 742.270507812 412.201171875 724.701171875 c 2
 274.974609375 598.255859375 l 2
EndSplineSet
EndChar

StartChar: uniE194
Encoding: 57748 57748 88
Width: 1000
Flags: H
LayerCount: 2
Fore
SplineSet
392.896484375 610.169921875 m 2
 373.004882812 591.6640625 386.250976562 558.203125 413.3203125 558.203125 c 0
 421.20703125 558.203125 428.38671875 561.252929688 433.744140625 566.236328125 c 2
 513.361328125 640.3046875 l 1
 519.551757812 -77.373046875 l 2
 519.693359375 -93.8095703125 533.081054688 -107.109375 549.55078125 -107.109375 c 0
 566.108398438 -107.109375 579.55078125 -93.6669921875 579.549804688 -76.845703125 c 2
 572.772460938 708.896484375 l 2
 572.548828125 734.819335938 541.384765625 748.307617188 522.349609375 730.599609375 c 2
 392.896484375 610.169921875 l 2
762.485351562 127.700195312 m 0
 781.7421875 350.5234375 669.651367188 439.78515625 561.032226562 439.78515625 c 0
 434.048828125 439.78515625 303.049804688 322.990234375 303.049804688 142.1484375 c 0
 303.049804688 140.92578125 303.067382812 139.701171875 303.067382812 138.47265625 c 0
 303.227539062 122.051757812 316.608398438 108.76953125 333.06640625 108.76953125 c 0
 349.624023438 108.76953125 363.06640625 122.211914062 363.065429688 139.06640625 c 0
 361.578125 292.200195312 470.151367188 379.78515625 561.032226562 379.78515625 c 0
 644.305664062 379.78515625 704.658203125 310.254882812 704.658203125 176.36328125 c 0
 704.658203125 151.216796875 702.59765625 133.7578125 702.59765625 130.3125 c 0
 702.59765625 113.754882812 716.040039062 100.3125 732.59765625 100.3125 c 0
 748.275390625 100.3125 761.16015625 112.364257812 762.485351562 127.700195312 c 0
333.061523438 138.766601562 m 0
 329.959960938 458.599609375 768.216796875 542.541015625 732.599609375 130.305664062 c 1024
EndSplineSet
EndChar

StartChar: uniE195
Encoding: 57749 57749 89
Width: 1000
Flags: H
LayerCount: 2
Fore
SplineSet
378.051757812 446.170898438 m 0
 378.051757812 548.529296875 499.704101562 678.068359375 565.409179688 669.213867188 c 0
 643.962890625 658.629882812 724.297851562 484.50390625 664.727539062 398.27734375 c 0
 636.842773438 357.900390625 580 333.376953125 521.931640625 333.376953125 c 0
 444.900390625 333.376953125 378.051757812 376.024414062 378.051757812 446.170898438 c 0
714.176757812 364.280273438 m 0
 801.747070312 491.038085938 690.622070312 729.578125 559.223632812 729.578125 c 0
 452.397460938 729.578125 318.015625 573.15234375 318.015625 446.170898438 c 0
 318.015625 343.135742188 409.405273438 273.413085938 521.931640625 273.413085938 c 0
 594.796875 273.413085938 671.538085938 302.5390625 714.176757812 364.280273438 c 0
190.517578125 11.056640625 m 0
 149.918945312 92.7041015625 308.625976562 281.712890625 380.74609375 352.202148438 c 0
 399.897460938 370.9375 386.46875 403.600585938 359.747070312 403.600585938 c 0
 351.575195312 403.600585938 344.163085938 400.33203125 338.747070312 395.03515625 c 0
 324.9375 381.524414062 124.09765625 182.608398438 124.09765625 41.28515625 c 0
 124.09765625 25.462890625 125.030273438 -34.8828125 192.6484375 -70.5517578125 c 0
 231.826171875 -91.2177734375 306.80859375 -112.223632812 478.44140625 -89.1044921875 c 0
 540.357421875 -80.7685546875 596.467773438 -75.4462890625 645.862304688 -70.7646484375 c 0
 774.653320312 -58.55859375 850.80078125 -51.3427734375 881.44921875 -6.0693359375 c 0
 891.352539062 8.5595703125 898.369140625 30.7099609375 889.822265625 62.326171875 c 0
 886.373046875 75.083984375 874.6953125 84.4833984375 860.837890625 84.4833984375 c 0
 844.270507812 84.4833984375 830.819335938 71.048828125 830.819335938 54.501953125 c 0
 830.819335938 45.4755859375 836.752929688 34.953125 831.6796875 27.4580078125 c 0
 826.0859375 19.1962890625 806.393554688 12.0263671875 785.435546875 7.298828125 c 0
 724.4921875 -6.4482421875 602.21484375 -11.927734375 470.358398438 -29.681640625 c 0
 377.506835938 -42.1884765625 222.182617188 -52.625 190.517578125 11.056640625 c 0
EndSplineSet
EndChar

StartChar: uniE196
Encoding: 57750 57750 90
Width: 1000
Flags: H
LayerCount: 2
Fore
SplineSet
491.287109375 702.131835938 m 0
 508.821289062 702.131835938 541.87890625 662.783203125 541.87890625 638.375 c 0
 541.87890625 635.680664062 541.334960938 634.5625 541.325195312 634.54296875 c 0
 535.909179688 625.924804688 505.732421875 621.026367188 480.588867188 632.329101562 c 0
 473.264648438 635.622070312 468.912109375 639.579101562 467.573242188 641.466796875 c 0
 457.924804688 655.064453125 469.880859375 700.26171875 491.287109375 702.131835938 c 0
491.287109375 762.131835938 m 0
 443.333984375 762.131835938 404.127929688 713.158203125 404.127929688 656.537109375 c 0
 404.127929688 579.947265625 480.079101562 565.626953125 513.109375 565.626953125 c 0
 540.360351562 565.626953125 573.719726562 573.3359375 592.186523438 602.715820312 c 0
 627.7109375 659.315429688 557.9765625 762.131835938 491.287109375 762.131835938 c 0
510.76171875 506.015625 m 0
 494.204101562 506.015625 480.76171875 492.573242188 480.763671875 475.6875 c 2
 487.208984375 -123.86328125 l 2
 487.384765625 -140.26953125 500.758789062 -153.53515625 517.20703125 -153.53515625 c 0
 533.764648438 -153.53515625 547.20703125 -140.092773438 547.205078125 -123.20703125 c 2
 540.759765625 476.34375 l 2
 540.583984375 492.75 527.209960938 506.015625 510.76171875 506.015625 c 0
EndSplineSet
EndChar

StartChar: uniE128
Encoding: 57640 57640 91
Width: 1000
Flags: HW
LayerCount: 2
Fore
SplineSet
780.87109375 238.626953125 m 0
 1083.36328125 506.389648438 979.522460938 770.534179688 780.2734375 770.534179688 c 0
 681.469726562 770.534179688 569.982421875 708.528320312 466.864257812 578.262695312 c 0
 346.512695312 426.197265625 28.3134765625 139.82421875 28.3134765625 139.82421875 c 2
 -5.71484375 109.287109375 16.14453125 52.6044921875 61.6865234375 52.6044921875 c 0
 74.505859375 52.6044921875 86.2060546875 57.439453125 95.0595703125 65.384765625 c 0
 96.1416015625 66.35546875 414.473632812 350.955078125 545.310546875 516.268554688 c 0
 704.484375 717.346679688 870.614257812 705.76953125 870.614257812 574.26171875 c 0
 870.614257812 512.6328125 831.487304688 416.95703125 714.63671875 313.521484375 c 0
 680.276367188 283.106445312 702.049804688 226.07421875 747.75390625 226.07421875 c 0
 760.451171875 226.07421875 772.048828125 230.817382812 780.87109375 238.626953125 c 0
EndSplineSet
EndChar

StartChar: uniE19C
Encoding: 57756 57756 92
Width: 1000
Flags: H
LayerCount: 2
Fore
SplineSet
836.965820312 651.6171875 m 0
 851.329101562 155.375976562 791.755859375 -22.1064453125 570.834960938 -18.75390625 c 0
 383.12890625 -15.908203125 330.739257812 203.3125 344.16015625 665.78125 c 0
 344.16015625 693.895507812 308.44921875 706.563476562 290.762695312 684.549804688 c 2
 78.7119140625 420.624023438 l 2
 63.0107421875 401.08203125 77.037109375 371.85546875 102.109375 371.85546875 c 0
 111.56640625 371.85546875 120.006835938 376.240234375 125.506835938 383.086914062 c 2
 282.346679688 578.293945312 l 1
 278.219726562 205.877929688 323.040039062 -78.7998046875 576.875976562 -78.7998046875 c 0
 875.137695312 -78.7998046875 909.591796875 216.294921875 896.940429688 653.3828125 c 0
 896.47265625 669.532226562 883.215820312 682.5 866.953125 682.5 c 0
 850.395507812 682.5 836.953125 669.057617188 836.965820312 651.6171875 c 0
EndSplineSet
EndChar

StartChar: uniE19D
Encoding: 57757 57757 93
Width: 1000
Flags: H
LayerCount: 2
Fore
SplineSet
168.155273438 -157.412109375 m 0
 1100.70410156 -180.969726562 1101.66113281 723.661132812 231.3515625 723.661132812 c 0
 217.354492188 723.661132812 203.138671875 723.426757812 188.705078125 722.952148438 c 0
 172.610351562 722.422851562 159.70703125 709.190429688 159.70703125 692.96875 c 0
 159.70703125 676.411132812 173.149414062 662.96875 190.708984375 662.985351562 c 0
 1010.54980469 689.944335938 1033.89355469 -97.865234375 203.689453125 -97.865234375 c 0
 192.517578125 -97.865234375 181.185546875 -97.7216796875 168.92578125 -97.421875 c 0
 152.368164062 -97.421875 138.92578125 -110.864257812 138.92578125 -127.421875 c 0
 138.92578125 -143.721679688 151.953125 -157.002929688 168.155273438 -157.412109375 c 0
189.708984375 692.969726562 m 0
 1061.62402344 721.630859375 1075.0546875 -150.3046875 168.930664062 -127.427734375 c 1024
EndSplineSet
EndChar

StartChar: uniE19E
Encoding: 57758 57758 94
Width: 1000
Flags: H
LayerCount: 2
Fore
SplineSet
217.767578125 382.327148438 m 2
 228.8671875 402.182617188 214.447265625 426.93359375 191.5625 426.93359375 c 0
 180.305664062 426.93359375 170.489257812 420.720703125 165.357421875 411.540039062 c 2
 46.939453125 199.704101562 l 2
 32.736328125 174.296875 60.064453125 145.361328125 86.2470703125 158.106445312 c 0
 359.224609375 290.986328125 615.98828125 372.846679688 916.754882812 174.131835938 c 0
 936.577148438 161.034179688 963.26171875 175.336914062 963.26171875 199.1796875 c 0
 963.26171875 209.640625 957.895507812 218.858398438 949.768554688 224.227539062 c 0
 647.995117188 423.608398438 383.25390625 358.030273438 144.77734375 251.755859375 c 1
 217.767578125 382.327148438 l 2
EndSplineSet
EndChar

StartChar: uniE19F
Encoding: 57759 57759 95
Width: 1000
Flags: H
LayerCount: 2
Fore
SplineSet
346.16796875 613.619140625 m 2
 329.454101562 613.619140625 315.883789062 600.302734375 315.883789062 583.900390625 c 0
 315.883789062 567.498046875 329.454101562 554.181640625 346.16796875 554.181640625 c 2
 537.984375 554.181640625 l 1
 538.94140625 -124.80078125 l 2
 538.96484375 -141.18359375 552.526367188 -154.477539062 569.225585938 -154.477539062 c 0
 585.940429688 -154.477539062 599.509765625 -141.161132812 599.509765625 -124.717773438 c 2
 598.510742188 583.942382812 l 2
 598.487304688 600.325195312 584.926757812 613.619140625 568.2265625 613.619140625 c 2
 346.16796875 613.619140625 l 2
441.486328125 700.943359375 m 2
 424.771484375 700.943359375 411.202148438 687.626953125 411.202148438 671.225585938 c 0
 411.202148438 654.823242188 424.771484375 641.506835938 441.486328125 641.506835938 c 2
 633.301757812 641.506835938 l 1
 634.259765625 -37.4765625 l 2
 634.283203125 -53.859375 647.84375 -67.1533203125 664.543945312 -67.1533203125 c 0
 681.2578125 -67.1533203125 694.828125 -53.8369140625 694.828125 -37.392578125 c 2
 693.828125 671.267578125 l 2
 693.805664062 687.650390625 680.244140625 700.943359375 663.543945312 700.943359375 c 2
 441.486328125 700.943359375 l 2
EndSplineSet
EndChar

StartChar: uniE1A0
Encoding: 57760 57760 96
Width: 1000
Flags: H
LayerCount: 2
Fore
SplineSet
217.767578125 382.327148438 m 2
 228.8671875 402.182617188 214.447265625 426.93359375 191.5625 426.93359375 c 0
 180.305664062 426.93359375 170.489257812 420.720703125 165.357421875 411.540039062 c 2
 46.939453125 199.704101562 l 2
 32.736328125 174.296875 60.064453125 145.361328125 86.2470703125 158.106445312 c 0
 359.224609375 290.986328125 615.98828125 372.846679688 916.754882812 174.131835938 c 0
 936.577148438 161.034179688 963.26171875 175.336914062 963.26171875 199.1796875 c 0
 963.26171875 209.640625 957.895507812 218.858398438 949.768554688 224.227539062 c 0
 647.995117188 423.608398438 383.25390625 358.030273438 144.77734375 251.755859375 c 1
 217.767578125 382.327148438 l 2
772.015625 499.614257812 m 0
 729.978515625 499.614257812 695.36328125 455.702148438 695.36328125 402.682617188 c 0
 695.36328125 333.545898438 759.375976562 318.715820312 789.790039062 318.715820312 c 0
 835.037109375 318.715820312 867.736328125 345.639648438 867.736328125 386.588867188 c 0
 867.736328125 434.631835938 822.03125 499.614257812 772.015625 499.614257812 c 0
772.067382812 439.599609375 m 0
 789.873046875 434.328125 810.845703125 396.861328125 807.471679688 383.955078125 c 0
 799.829101562 374.248046875 764.916015625 379.45703125 757.814453125 390.334960938 c 0
 750.228515625 401.948242188 761.603515625 437.95703125 772.067382812 439.599609375 c 0
EndSplineSet
EndChar

StartChar: uniE1A1
Encoding: 57761 57761 97
Width: 1000
Flags: H
LayerCount: 2
Fore
SplineSet
292.049804688 512.240234375 m 2
 272.19921875 526.674804688 243.891601562 512.615234375 243.891601562 488.2734375 c 0
 243.891601562 478.44921875 248.733398438 469.73046875 256.192382812 464.306640625 c 2
 748.263671875 106.494140625 l 2
 768.114257812 92.060546875 796.421875 106.120117188 796.421875 130.4609375 c 0
 796.421875 140.28515625 791.580078125 149.00390625 784.12109375 154.427734375 c 2
 292.049804688 512.240234375 l 2
523.842773438 646.008789062 m 0
 507.159179688 646.008789062 493.614257812 632.66796875 493.618164062 615.736328125 c 2
 503.780273438 7.8701171875 l 2
 504.05078125 -8.33203125 517.490234375 -21.404296875 534.004882812 -21.404296875 c 0
 550.688476562 -21.404296875 564.233398438 -8.0634765625 564.229492188 8.8671875 c 2
 554.068359375 616.734375 l 2
 553.796875 632.936523438 540.357421875 646.008789062 523.842773438 646.008789062 c 0
285.49609375 132.745117188 m 2
 264.3828125 114.760742188 277.456054688 80.4462890625 305.254882812 80.4462890625 c 0
 312.805664062 80.4462890625 319.712890625 83.1787109375 325.013671875 87.693359375 c 2
 764.55859375 462.098632812 l 2
 785.671875 480.083007812 772.598632812 514.396484375 744.799804688 514.396484375 c 0
 737.249023438 514.396484375 730.341796875 511.6640625 725.041015625 507.149414062 c 2
 285.49609375 132.745117188 l 2
EndSplineSet
EndChar

StartChar: uniE1A2
Encoding: 57762 57762 98
Width: 1000
Flags: H
LayerCount: 2
Fore
SplineSet
136.50390625 181.5234375 m 0
 152.83203125 181.5234375 166.130859375 194.595703125 166.49609375 210.836914062 c 2
 173.83203125 536.611328125 l 1
 846.827148438 524.395507812 l 1
 842.08984375 217.677734375 842.08984375 217.677734375 842.08984375 217.44140625 c 0
 842.08984375 200.883789062 855.532226562 187.44140625 872.08984375 187.44140625 c 0
 888.490234375 187.44140625 901.833984375 200.629882812 902.0859375 216.969726562 c 0
 907.28515625 553.611328125 907.28515625 553.611328125 907.28515625 553.84765625 c 0
 907.28515625 570.219726562 894.141601562 583.546875 877.838867188 583.842773438 c 0
 144.7890625 597.1484375 144.7890625 597.1484375 144.51171875 597.1484375 c 0
 128.18359375 597.1484375 114.884765625 584.076171875 114.51953125 567.834960938 c 2
 114.51953125 567.834960938 106.51171875 212.209960938 106.50390625 211.5234375 c 0
 106.50390625 194.965820312 119.946289062 181.5234375 136.50390625 181.5234375 c 0
EndSplineSet
EndChar

StartChar: uniE1A3
Encoding: 57763 57763 99
Width: 1000
Flags: H
LayerCount: 2
Fore
SplineSet
339.379882812 658.161132812 m 2
 323.474609375 683.592773438 283.92578125 672.166992188 283.92578125 642.28515625 c 0
 283.92578125 636.45703125 285.590820312 631.015625 288.471679688 626.409179688 c 2
 534.958984375 232.28125 l 1
 250.166015625 -33.0283203125 l 2
 236.870117188 -45.4150390625 237.54296875 -66.6591796875 251.6015625 -78.1875 c 2
 363.3984375 -169.8671875 l 2
 382.893554688 -185.854492188 412.40234375 -171.8671875 412.40234375 -146.66015625 c 0
 412.40234375 -137.311523438 408.1171875 -128.95703125 401.40625 -123.453125 c 2
 316.153320312 -53.541015625 l 1
 593.955078125 205.254882812 l 2
 604.576171875 215.149414062 606.501953125 231.0390625 598.969726562 243.083007812 c 2
 339.379882812 658.161132812 l 2
313.919921875 642.28125 m 1
 573.520507812 227.202148438 l 1
 270.608398438 -54.9833984375 l 1
 382.396484375 -146.653320312 l 1025
739.607421875 226.23828125 m 0
 739.607421875 365.044921875 640.713867188 478.142578125 486.993164062 385.224609375 c 0
 461.126953125 369.588867188 472.364257812 329.53125 502.48046875 329.53125 c 0
 508.145507812 329.53125 513.4453125 331.104492188 517.967773438 333.837890625 c 0
 645.849609375 411.137695312 679.607421875 291.379882812 679.607421875 226.23828125 c 0
 679.607421875 170.317382812 656.578125 96.8408203125 595.555664062 96.8408203125 c 0
 572.403320312 96.8408203125 539.168945312 107.455078125 496.51171875 139.506835938 c 0
 476.838867188 154.287109375 448.515625 140.146484375 448.515625 115.5078125 c 0
 448.515625 105.69921875 453.232421875 96.984375 460.51953125 91.5087890625 c 0
 631.583984375 -37.01953125 739.607421875 82.341796875 739.607421875 226.23828125 c 0
502.475585938 359.533203125 m 0
 786.212890625 531.041992188 778.661132812 -110.0078125 478.506835938 115.501953125 c 1024
EndSplineSet
EndChar

StartChar: uniE1A4
Encoding: 57764 57764 100
Width: 1000
Flags: H
LayerCount: 2
Fore
SplineSet
311.409179688 -109.033203125 m 2
 302.318359375 -128.763671875 316.780273438 -151.5625 338.671875 -151.5625 c 0
 350.7578125 -151.5625 361.184570312 -144.400390625 365.934570312 -134.091796875 c 2
 505.6875 169.205078125 l 1
 625.653320312 -136.698242188 l 2
 630.02734375 -147.854492188 640.89453125 -155.76171875 653.59375 -155.76171875 c 0
 674.75 -155.76171875 689.198242188 -134.3671875 681.534179688 -114.825195312 c 2
 535.850585938 256.659179688 l 2
 526.245117188 281.153320312 491.681640625 282.19921875 480.647460938 258.251953125 c 2
 311.409179688 -109.033203125 l 2
271.6015625 284.7265625 m 0
 271.6015625 268.168945312 285.043945312 254.7265625 301.674804688 254.7265625 c 2
 727.690429688 255.7421875 l 2
 744.213867188 255.78125 757.6171875 269.208984375 757.6171875 285.7421875 c 0
 757.6171875 302.299804688 744.174804688 315.7421875 727.543945312 315.7421875 c 2
 301.528320312 314.7265625 l 2
 285.004882812 314.6875 271.6015625 301.259765625 271.6015625 284.7265625 c 0
EndSplineSet
EndChar

StartChar: uniE1A5
Encoding: 57765 57765 101
Width: 1000
Flags: H
LayerCount: 2
Fore
SplineSet
946.118164062 281.391601562 m 0
 946.118164062 540.39453125 636.546875 603.068359375 495.399414062 392.618164062 c 0
 378.102539062 217.733398438 164.04296875 216.040039062 121.489257812 225.021484375 c 0
 97.5087890625 240.106445312 67.6669921875 216.040039062 77.3359375 189.389648438 c 0
 82.4443359375 175.305664062 94.123046875 162.184570312 159.374023438 162.184570312 c 0
 241.647460938 162.184570312 396.556640625 186.92578125 508.091796875 311.374023438 c 1
 528.068359375 208.286132812 673.662109375 105.317382812 793.120117188 105.317382812 c 0
 835.934570312 105.317382812 945.206054688 121.038085938 946.118164062 281.391601562 c 0
625.635742188 434.2265625 m 0
 735.7109375 494.721679688 886.124023438 445.44921875 886.114257812 279.8828125 c 0
 885.501953125 174.173828125 825.568359375 165.317382812 793.120117188 165.317382812 c 0
 741.375 165.317382812 673.82421875 194.685546875 626.048828125 236.216796875 c 0
 587.440429688 269.779296875 565.592773438 308.095703125 565.592773438 337.076171875 c 0
 565.592773438 358.333984375 575.182617188 380.490234375 611.677734375 402.434570312 c 0
 613.153320312 403.322265625 629.82421875 413.850585938 625.635742188 434.2265625 c 0
EndSplineSet
EndChar

StartChar: uniE1A6
Encoding: 57766 57766 102
Width: 1000
Flags: H
LayerCount: 2
Fore
SplineSet
504.513671875 -66.77734375 m 0
 321.828125 -66.77734375 98.896484375 5.5009765625 108.7578125 221.73828125 c 0
 113.588867188 327.638671875 256.23046875 353.375976562 334.086914062 477.676757812 c 0
 376.05859375 544.685546875 383.41796875 618.204101562 379.333007812 682.399414062 c 0
 378.336914062 698.05859375 365.303710938 710.46875 349.39453125 710.46875 c 0
 332.836914062 710.46875 319.39453125 697.026367188 319.456054688 678.538085938 c 0
 329.38671875 522.479492188 253.315429688 463.021484375 173.328125 402.370117188 c 0
 117.41796875 359.975585938 52.8583984375 313.0078125 48.8203125 224.51171875 c 0
 38.0205078125 -12.322265625 257.712890625 -126.77734375 504.513671875 -126.77734375 c 0
 728.491210938 -126.77734375 946.2890625 -31.6533203125 946.2890625 127.163085938 c 0
 946.270507812 143.705078125 932.834960938 157.12890625 916.2890625 157.12890625 c 0
 899.731445312 157.12890625 886.2890625 143.686523438 886.2890625 126.974609375 c 0
 886.2890625 11.0849609375 696.828125 -66.77734375 504.513671875 -66.77734375 c 0
EndSplineSet
EndChar

StartChar: uniE1A7
Encoding: 57767 57767 103
Width: 1000
Flags: H
LayerCount: 2
Fore
SplineSet
86.32421875 296.09765625 m 0
 74.107421875 276.241210938 88.4716796875 250.41015625 111.89453125 250.41015625 c 0
 122.703125 250.41015625 132.184570312 256.138671875 137.46484375 264.72265625 c 0
 233.24609375 420.409179688 308.643554688 364.546875 435.2734375 260.268554688 c 0
 511.4765625 197.516601562 592.385742188 130.889648438 686.154296875 130.889648438 c 0
 763.3984375 130.889648438 840.0703125 176.896484375 916.900390625 285.123046875 c 0
 930.923828125 304.876953125 916.703125 332.4609375 892.421875 332.4609375 c 0
 882.321289062 332.4609375 873.380859375 327.458984375 867.943359375 319.798828125 c 0
 718.704101562 109.573242188 609.033203125 194.893554688 473.376953125 306.604492188 c 0
 402.272460938 365.158203125 333.969726562 421.404296875 258.77734375 421.404296875 c 0
 195.959960938 421.404296875 138.6796875 381.19921875 86.32421875 296.09765625 c 0
EndSplineSet
EndChar

StartChar: uniE1A8
Encoding: 57768 57768 104
Width: 1000
Flags: H
LayerCount: 2
Fore
SplineSet
165.5390625 133.173828125 m 0
 93.9951171875 286.438476562 315.090820312 559.55078125 438.711914062 542.622070312 c 0
 563.275390625 525.548828125 684.072265625 256.747070312 591.948242188 121.208984375 c 0
 501.109375 -12.421875 236.9453125 -19.759765625 165.5390625 133.173828125 c 0
641.606445312 87.541015625 m 0
 762.447265625 265.329101562 606.751953125 603.333007812 427.973632812 603.333007812 c 0
 257.25 603.333007812 22.7978515625 297.09375 111.140625 107.841796875 c 0
 202.555664062 -87.9443359375 524.4140625 -84.857421875 641.606445312 87.541015625 c 0
175.9375 406.09375 m 0
 175.9375 389.536132812 189.379882812 376.09375 206.091796875 376.09375 c 2
 940.076171875 379.8046875 l 2
 956.5625 379.888671875 969.921875 393.298828125 969.921875 409.8046875 c 0
 969.921875 426.362304688 956.479492188 439.8046875 939.767578125 439.8046875 c 2
 205.783203125 436.09375 l 2
 189.296875 436.009765625 175.9375 422.599609375 175.9375 406.09375 c 0
EndSplineSet
EndChar

StartChar: uniE1A9
Encoding: 57769 57769 105
Width: 1000
Flags: H
LayerCount: 2
Fore
SplineSet
689.842773438 487.20703125 m 0
 660.310546875 487.20703125 603.6875 476.458007812 518.48828125 394.790039062 c 0
 455.142578125 436.329101562 395.243164062 457.543945312 343.581054688 457.543945312 c 0
 312.951171875 457.543945312 284.485351562 449.771484375 261.997070312 432.123046875 c 0
 235.364257812 411.220703125 177.073242188 341.984375 268.838867188 176.3359375 c 0
 310.688476562 100.793945312 380.28125 12.154296875 484.750976562 -88.3916015625 c 0
 495.333007812 -98.576171875 511.627929688 -99.5595703125 523.321289062 -90.9404296875 c 0
 628.236328125 -13.6064453125 700.623046875 76.44140625 744.447265625 161.698242188 c 0
 837.435546875 342.599609375 797.9765625 487.20703125 689.842773438 487.20703125 c 0
279.16796875 334.00390625 m 0
 279.16796875 352.888671875 282.088867188 397.543945312 343.581054688 397.543945312 c 0
 382.375976562 397.543945312 440.012695312 377.934570312 504.521484375 331.612304688 c 0
 516.49609375 323.012695312 533.075195312 324.375 543.493164062 335.083007812 c 0
 572.59765625 364.998046875 639.208007812 427.20703125 689.842773438 427.20703125 c 0
 699.985351562 427.20703125 718.750976562 425.420898438 729.586914062 396.154296875 c 0
 758.249023438 318.74609375 702.54296875 126.0625 507.9609375 -27.2294921875 c 1
 416.979492188 62.76953125 356.868164062 141.255859375 321.361328125 205.348632812 c 0
 291.036132812 260.08984375 279.16796875 303.963867188 279.16796875 334.00390625 c 0
567.068359375 680.908203125 m 0
 310.303710938 680.908203125 10.703125 588.829101562 10.703125 418.208984375 c 0
 10.703125 335.07421875 82.23828125 255.416992188 202.262695312 180.311523438 c 0
 222.114257812 167.889648438 248.14453125 182.240234375 248.14453125 205.76171875 c 0
 248.14453125 216.48828125 242.501953125 225.908203125 234.026367188 231.211914062 c 0
 163.100585938 275.59375 70.703125 347.064453125 70.703125 418.208984375 c 0
 70.703125 532.928710938 321.71875 620.908203125 567.068359375 620.908203125 c 0
 630.560546875 620.908203125 795.524414062 613.77734375 879.745117188 543.493164062 c 0
 909.171875 518.936523438 924.217773438 490.741210938 924.217773438 454.858398438 c 0
 924.217773438 403.310546875 889.970703125 327.862304688 793.813476562 229.587890625 c 0
 775.293945312 210.661132812 788.845703125 178.61328125 815.25390625 178.61328125 c 0
 823.650390625 178.61328125 831.247070312 182.0703125 836.694335938 187.638671875 c 0
 937.240234375 290.397460938 984.217773438 377.827148438 984.217773438 454.858398438 c 0
 984.217773438 602.506835938 808.400390625 680.908203125 567.068359375 680.908203125 c 0
EndSplineSet
EndChar

StartChar: uniE1AA
Encoding: 57770 57770 106
Width: 1000
Flags: H
LayerCount: 2
Fore
SplineSet
113.884765625 771.668945312 m 2
 94.0234375 783.126953125 68.92578125 768.72265625 68.92578125 745.6640625 c 0
 68.92578125 734.552734375 74.9794921875 724.84375 83.966796875 719.659179688 c 2
 863.198242188 270.120117188 l 1
 74.8798828125 -132.5234375 l 2
 47.001953125 -146.762695312 57.263671875 -189.2578125 88.49609375 -189.2578125 c 0
 93.396484375 -189.2578125 98.025390625 -188.080078125 102.112304688 -185.9921875 c 2
 939.631835938 241.78125 l 2
 960.7734375 252.579101562 961.576171875 282.635742188 940.974609375 294.520507812 c 2
 113.884765625 771.668945312 l 2
EndSplineSet
EndChar

StartChar: uniE1AB
Encoding: 57771 57771 107
Width: 1000
Flags: H
LayerCount: 2
Fore
SplineSet
537.323242188 253.370117188 m 1
 508.501953125 297.858398438 466.379882812 373.106445312 466.379882812 432.821289062 c 0
 466.379882812 451.791015625 471.48046875 495.377929688 518.36328125 495.377929688 c 0
 575.22265625 495.377929688 646.916015625 424.360351562 570.192382812 289.873046875 c 0
 565.547851562 281.731445312 553.868164062 268.529296875 537.323242188 253.370117188 c 1
406.379882812 432.821289062 m 0
 406.379882812 355.274414062 453.560546875 271.6484375 490.569335938 215.2265625 c 0
 462.169921875 193.931640625 429.166992188 171.508789062 395.75390625 150.012695312 c 0
 294.225585938 84.6953125 189.674804688 28.1005859375 189.674804688 28.1005859375 c 2
 162.46484375 13.3701171875 173.0703125 -28.30078125 203.92578125 -28.30078125 c 0
 209.08203125 -28.30078125 213.936523438 -26.9970703125 218.176757812 -24.7021484375 c 0
 221.346679688 -22.9853515625 405.796875 77.0419921875 524.373046875 165.57421875 c 1
 588.123046875 74.4296875 675.314453125 -39.9736328125 675.53125 -40.2578125 c 0
 692.872070312 -63.0341796875 729.4140625 -50.607421875 729.4140625 -22.109375 c 0
 729.4140625 -15.291015625 727.134765625 -9.0009765625 723.296875 -3.9609375 c 1
 723.296875 -3.9609375 633.875 113.577148438 571.341796875 203.140625 c 0
 593.387695312 222.25390625 611.19921875 240.66796875 622.346679688 260.205078125 c 0
 724.780273438 439.762695312 616.258789062 555.377929688 518.36328125 555.377929688 c 0
 459.336914062 555.377929688 406.379882812 513.385742188 406.379882812 432.821289062 c 0
203.920898438 1.7021484375 m 0
 203.920898438 1.7021484375 545.958984375 186.857421875 596.262695312 275.033203125 c 0
 773.086914062 584.978515625 250.71484375 644.05859375 510.099609375 240.233398438 c 0
 566.368164062 152.630859375 699.404296875 -22.109375 699.404296875 -22.109375 c 1024
111.690429688 574.569335938 m 0
 91.828125 586.079101562 66.6796875 571.677734375 66.6796875 548.59375 c 0
 66.6796875 537.502929688 72.7109375 527.810546875 81.6689453125 522.618164062 c 0
 337.278320312 374.482421875 632.90625 215.064453125 948.58984375 523.869140625 c 0
 967.748046875 542.610351562 954.33203125 575.3125 927.6171875 575.3125 c 0
 919.458007812 575.3125 912.055664062 572.047851562 906.64453125 566.755859375 c 0
 634.143554688 300.192382812 390.970703125 412.713867188 111.690429688 574.569335938 c 0
EndSplineSet
EndChar

StartChar: uniE1AC
Encoding: 57772 57772 108
Width: 1000
Flags: H
LayerCount: 2
Fore
SplineSet
513.877929688 466.325195312 m 0
 359.518554688 466.325195312 218.065429688 341.046875 329.977539062 148.97265625 c 0
 345.31640625 122.647460938 385.91796875 133.677734375 385.91796875 164.04296875 c 0
 385.91796875 169.53515625 384.439453125 174.68359375 381.858398438 179.11328125 c 0
 288.440429688 339.446289062 420.21484375 406.325195312 513.877929688 406.325195312 c 0
 571.095703125 406.325195312 650.002929688 381.599609375 650.002929688 296.990234375 c 0
 650.002929688 266.963867188 639.842773438 227.296875 612.6875 178.1484375 c 0
 601.71875 158.295898438 616.143554688 133.671875 638.96484375 133.671875 c 0
 650.274414062 133.671875 660.129882812 139.943359375 665.2421875 149.1953125 c 0
 779.45703125 355.912109375 655.440429688 466.325195312 513.877929688 466.325195312 c 0
EndSplineSet
EndChar

StartChar: uniE1AD
Encoding: 57773 57773 109
Width: 1000
Flags: H
LayerCount: 2
Fore
SplineSet
170.6875 160.55859375 m 2
 185.70703125 133.762695312 226.875 144.5703125 226.875 175.1953125 c 0
 226.875 180.508789062 225.490234375 185.501953125 223.0625 189.83203125 c 2
 152.666015625 315.416992188 l 1
 385.79296875 212.075195312 644.506835938 148.918945312 939.250976562 343.154296875 c 0
 964 359.46484375 952.29296875 398.22265625 922.7734375 398.22265625 c 0
 916.689453125 398.22265625 911.026367188 396.408203125 906.295898438 393.291015625 c 0
 612.37109375 199.59375 361.456054688 279.145507812 94.0498046875 408.958007812 c 0
 67.8701171875 421.666992188 40.5458984375 392.724609375 54.7890625 367.31640625 c 2
 170.6875 160.55859375 l 2
EndSplineSet
EndChar

StartChar: uniE1AE
Encoding: 57774 57774 110
Width: 1000
Flags: H
LayerCount: 2
Fore
SplineSet
786.453125 628.979492188 m 0
 799.576171875 649.165039062 785.564453125 676.634765625 762.041015625 676.634765625 c 0
 751.8828125 676.634765625 742.919921875 671.278320312 737.62890625 663.139648438 c 0
 618.735351562 480.260742188 443.336914062 414.954101562 258.094726562 346.939453125 c 0
 242.315429688 341.146484375 226.491210938 335.3359375 210.658203125 329.430664062 c 0
 184.67578125 319.739257812 184.879882812 281.153320312 210.950195312 271.751953125 c 0
 418.4296875 196.93359375 611.213867188 105.518554688 756.483398438 -65.130859375 c 0
 774.383789062 -86.158203125 807.9765625 -72.84765625 807.9765625 -44.8916015625 c 0
 807.9765625 -37.1337890625 805.188476562 -30.046875 800.596679688 -24.6533203125 c 0
 663.984375 135.828125 490.258789062 228.817382812 307.9140625 300.37890625 c 1
 482.466796875 364.814453125 662.276367188 437.973632812 786.453125 628.979492188 c 0
710.479492188 378.725585938 m 0
 669.12109375 378.725585938 635.170898438 333.825195312 635.170898438 279.7734375 c 0
 635.170898438 209.170898438 698.181640625 194.106445312 727.959960938 194.106445312 c 0
 772.356445312 194.106445312 804.54296875 221.5234375 804.54296875 263.357421875 c 0
 804.54296875 312.396484375 759.616210938 378.725585938 710.479492188 378.725585938 c 0
710.528320312 317.561523438 m 0
 728.172851562 312.125976562 748.76171875 273.737304688 745.405273438 260.63671875 c 0
 737.969726562 250.711914062 703.49609375 255.95703125 696.454101562 267.161132812 c 0
 688.977539062 279.044921875 700.224609375 315.94140625 710.528320312 317.561523438 c 0
EndSplineSet
EndChar

StartChar: uniE1AF
Encoding: 57775 57775 111
Width: 1000
Flags: H
LayerCount: 2
Fore
SplineSet
718.563476562 109.631835938 m 0
 843.176757812 109.631835938 973.728515625 225.689453125 926.408203125 466.186523438 c 0
 923.697265625 479.96484375 911.541015625 490.37109375 896.97265625 490.37109375 c 0
 880.415039062 490.37109375 866.97265625 476.928710938 866.97265625 460.37109375 c 0
 866.97265625 452.89453125 876.345703125 418.1171875 876.345703125 370.1484375 c 0
 876.345703125 231.17578125 795.090820312 169.631835938 718.563476562 169.631835938 c 0
 624.662109375 169.631835938 536.942382812 261.491210938 610.248046875 441.022460938 c 0
 618.244140625 460.607421875 603.814453125 482.34375 582.40234375 482.34375 c 2
 93.6328125 481.40625 l 2
 77.1025390625 481.374023438 63.69140625 467.944335938 63.69140625 451.40625 c 0
 63.69140625 434.848632812 77.1337890625 421.40625 93.75 421.40625 c 2
 539.81640625 422.26171875 l 1
 479.03125 224.756835938 593.948242188 109.631835938 718.563476562 109.631835938 c 0
EndSplineSet
EndChar

StartChar: uniE1B5
Encoding: 57781 57781 112
Width: 1000
Flags: HW
LayerCount: 2
Fore
SplineSet
554.797851562 766.958007812 m 0
 367.475585938 766.958007812 191.181640625 617.155273438 329.673828125 380.81640625 c 0
 345.055664062 354.56640625 385.775390625 365.564453125 385.775390625 395.842773438 c 0
 385.775390625 401.319335938 384.291992188 406.453125 381.704101562 410.870117188 c 0
 261.84765625 615.407226562 428.014648438 707.130859375 554.797851562 707.130859375 c 0
 632.311523438 707.130859375 734.090820312 672.495117188 734.090820312 562.4375 c 0
 734.090820312 523.084960938 720.765625 472.184570312 686.107421875 409.8125 c 0
 675.108398438 390.016601562 689.57421875 365.46484375 712.4609375 365.46484375 c 0
 723.803710938 365.46484375 733.688476562 371.71875 738.814453125 380.944335938 c 0
 879.92578125 634.896484375 727.221679688 766.958007812 554.797851562 766.958007812 c 0
220.2578125 71.521484375 m 0
 220.2578125 55.01171875 233.739257812 41.6083984375 250.567382812 41.609375 c 2
 813.653320312 45.671875 l 2
 830.15625 45.791015625 843.517578125 59.1484375 843.517578125 75.5849609375 c 0
 843.517578125 92.0947265625 830.036132812 105.499023438 813.208007812 105.498046875 c 2
 250.122070312 101.434570312 l 2
 233.619140625 101.315429688 220.2578125 87.9580078125 220.2578125 71.521484375 c 0
556.799804688 300.936523438 m 0
 540.1953125 300.936523438 526.713867188 287.532226562 526.721679688 270.317382812 c 2
 536.642578125 -155.630859375 l 2
 537.01953125 -171.815429688 550.352539062 -184.83984375 566.720703125 -184.83984375 c 0
 583.326171875 -184.83984375 596.807617188 -171.435546875 596.798828125 -154.221679688 c 2
 586.877929688 271.7265625 l 2
 586.500976562 287.912109375 573.168945312 300.936523438 556.799804688 300.936523438 c 0
EndSplineSet
EndChar

StartChar: uniE1B6
Encoding: 57782 57782 113
Width: 1000
Flags: H
LayerCount: 2
Fore
SplineSet
525.864257812 718.428710938 m 0
 365.8515625 815.862304688 215.654296875 685.94921875 215.654296875 505.741210938 c 0
 215.654296875 459.340820312 225.806640625 410.583007812 248.231445312 363.21875 c 0
 278.286132812 299.735351562 289.12109375 235.615234375 289.12109375 176.518554688 c 0
 289.12109375 107.8828125 274.344726562 45.8642578125 258.478515625 1.271484375 c 0
 246.975585938 -31.0615234375 233.951171875 -55.009765625 229.004882812 -62.4306640625 c 0
 205.5703125 -79.349609375 217.591796875 -116.569335938 246.786132812 -116.569335938 c 0
 262.514648438 -116.569335938 272.248046875 -107.229492188 283.197265625 -89.2265625 c 0
 305.861328125 -51.96484375 349.298828125 50.7236328125 349.298828125 176.518554688 c 0
 349.298828125 226.34375 342.426757812 279.887695312 324.512695312 334.147460938 c 1
 464.579101562 294.66796875 698.38671875 506.432617188 589.989257812 660.61328125 c 0
 574.784179688 682.240234375 553.392578125 701.663085938 525.864257812 718.428710938 c 0
540.631835938 626.399414062 m 0
 623.438476562 508.6171875 378.115234375 327.709960938 313.944335938 409.383789062 c 0
 304.90234375 420.891601562 296.956054688 440.4140625 295.166015625 471.68359375 c 0
 294.48046875 483.65234375 286.703125 493.747070312 275.951171875 497.875 c 0
 275.951171875 500.508789062 275.831054688 503.130859375 275.831054688 505.741210938 c 0
 275.831054688 630.684570312 370.293945312 743.004882812 494.49609375 667.376953125 c 0
 516.274414062 654.11328125 530.963867188 640.150390625 540.631835938 626.399414062 c 0
474.9453125 10.54296875 m 0
 474.9453125 108.659179688 592.272460938 232.782226562 655.092773438 224.357421875 c 0
 730.278320312 214.255859375 807.701171875 47.44140625 750.490234375 -35.0126953125 c 0
 723.7421875 -73.548828125 669.06640625 -97.087890625 613.125 -97.087890625 c 0
 539.182617188 -97.087890625 474.9453125 -56.4521484375 474.9453125 10.54296875 c 0
800.060546875 -68.921875 m 0
 885.239257812 53.8408203125 777.276367188 284.55859375 649.243164062 284.55859375 c 0
 545.192382812 284.55859375 414.767578125 133.37109375 414.767578125 10.54296875 c 0
 414.767578125 -89.2724609375 503.618164062 -156.911132812 613.125 -156.911132812 c 0
 683.90234375 -156.911132812 758.526367188 -128.760742188 800.060546875 -68.921875 c 0
EndSplineSet
EndChar

StartChar: uniE1B7
Encoding: 57783 57783 114
Width: 1000
Flags: H
LayerCount: 2
Fore
SplineSet
378.491210938 321.801757812 m 1
 517.1015625 273.758789062 760.6875 424.157226562 760.6875 579.208007812 c 0
 760.6875 623.294921875 740.748046875 687.02734375 644.166992188 737.1015625 c 0
 383.979492188 871.982421875 162.364257812 594.53125 300.287109375 346.484375 c 0
 339.262695312 276.411132812 353.15625 206.0703125 353.15625 141.254882812 c 0
 353.15625 7.65234375 293.958984375 -99.0087890625 274.580078125 -122.629882812 c 0
 247.861328125 -137.583984375 258.368164062 -178.837890625 289.365234375 -178.837890625 c 0
 303.7265625 -178.837890625 314.146484375 -170.852539062 327.576171875 -152.059570312 c 0
 356.513671875 -111.564453125 413.15625 1.7666015625 413.15625 141.254882812 c 0
 413.15625 198.3359375 403.544921875 259.811523438 378.491210938 321.801757812 c 1
700.6875 579.208007812 m 0
 700.6875 484.48046875 547.9609375 372.588867188 437.106445312 372.588867188 c 0
 358.05078125 372.588867188 345.541015625 429.76953125 343.056640625 466.744140625 c 0
 342.123046875 480.639648438 331.7109375 491.955078125 318.237304688 494.272460938 c 0
 312.029296875 646.033203125 449.734375 770.307617188 616.614257812 683.796875 c 0
 663.84375 659.310546875 700.6875 625.404296875 700.6875 579.208007812 c 0
700.284179688 369.486328125 m 2
 705.66015625 388.546875 691.310546875 407.63671875 671.40625 407.63671875 c 0
 657.673828125 407.63671875 646.083007812 398.389648438 642.528320312 385.787109375 c 2
 593.698242188 212.676757812 l 1
 529.041992188 287.711914062 l 2
 510.940429688 308.71875 476.30859375 295.758789062 476.30859375 268.14453125 c 0
 476.30859375 260.670898438 479.047851562 253.83203125 483.575195312 248.577148438 c 2
 584.688476562 131.233398438 l 2
 600.345703125 113.063476562 629.865234375 119.840820312 636.299804688 142.650390625 c 2
 700.284179688 369.486328125 l 2
722.627929688 178.020507812 m 2
 728.00390625 197.081054688 713.655273438 216.171875 693.75 216.171875 c 0
 680.017578125 216.171875 668.427734375 206.924804688 664.872070312 194.323242188 c 2
 616.04296875 21.23046875 l 1
 551.385742188 96.2666015625 l 2
 533.284179688 117.2734375 498.65234375 104.313476562 498.65234375 76.69921875 c 0
 498.65234375 69.2255859375 501.391601562 62.38671875 505.918945312 57.1318359375 c 2
 607.032226562 -60.2119140625 l 2
 622.689453125 -78.3818359375 652.208984375 -71.6044921875 658.643554688 -48.7958984375 c 2
 722.627929688 178.020507812 l 2
EndSplineSet
EndChar

StartChar: uniE1B8
Encoding: 57784 57784 115
Width: 1000
Flags: H
LayerCount: 2
Fore
SplineSet
310.266601562 -111.893554688 m 2
 303.67578125 -131.239257812 318.090820312 -151.5625 338.671875 -151.5625 c 0
 351.84765625 -151.5625 363.049804688 -143.05078125 367.077148438 -131.231445312 c 2
 507.99609375 282.379882812 l 1
 624.703125 -133.8671875 l 2
 628.243164062 -146.4921875 639.844726562 -155.76171875 653.59375 -155.76171875 c 0
 673.477539062 -155.76171875 687.826171875 -136.708007812 682.484375 -117.65625 c 2
 539.671875 391.69921875 l 2
 531.779296875 419.84765625 491.818359375 420.977539062 482.375976562 393.262695312 c 2
 310.266601562 -111.893554688 l 2
265.1171875 173.28125 m 0
 265.1171875 156.723632812 278.559570312 143.28125 295.190429688 143.28125 c 2
 721.206054688 144.296875 l 2
 737.729492188 144.3359375 751.1328125 157.763671875 751.1328125 174.296875 c 0
 751.1328125 190.854492188 737.690429688 204.296875 721.059570312 204.296875 c 2
 295.043945312 203.28125 l 2
 278.520507812 203.2421875 265.1171875 189.814453125 265.1171875 173.28125 c 0
EndSplineSet
EndChar

StartChar: uniE129
Encoding: 57641 57641 116
Width: 1000
Flags: HW
LayerCount: 2
Fore
SplineSet
273.046875 783.3984375 m 0
 246.321289062 783.3984375 224.46484375 762.384765625 223.11328125 735.993164062 c 0
 178.61328125 -132.5859375 178.61328125 -132.5859375 178.61328125 -133.88671875 c 0
 178.61328125 -161.482421875 201.017578125 -183.88671875 228.61328125 -183.88671875 c 0
 255.338867188 -183.88671875 277.1953125 -162.873046875 278.546875 -136.481445312 c 2
 278.546875 -136.481445312 322.98046875 730.803710938 323.046875 733.3984375 c 0
 323.046875 760.994140625 300.642578125 783.3984375 273.046875 783.3984375 c 0
273.038085938 733.400390625 m 1
 228.598632812 -133.879882812 l 1025
519.53125 736.03515625 m 0
 519.53125 763.509765625 497.323242188 785.838867188 469.89453125 786.034179688 c 0
 86.021484375 788.76953125 86.021484375 788.76953125 85.83984375 788.76953125 c 0
 58.244140625 788.76953125 35.83984375 766.365234375 35.83984375 738.76953125 c 0
 35.83984375 711.294921875 58.0478515625 688.965820312 85.4765625 688.770507812 c 2
 85.4765625 688.770507812 469.16796875 686.036132812 469.53125 686.03515625 c 0
 497.126953125 686.03515625 519.53125 708.439453125 519.53125 736.03515625 c 0
469.525390625 736.040039062 m 1
 85.8408203125 738.767578125 l 1025
419.010742188 294.758789062 m 0
 419.010742188 322.337890625 396.633789062 344.731445312 369.061523438 344.758789062 c 0
 293.334960938 344.834960938 217.607421875 344.911132812 141.880859375 344.987304688 c 0
 114.28515625 344.987304688 91.8291015625 322.583007812 91.8291015625 294.987304688 c 0
 91.8291015625 267.408203125 114.206054688 245.014648438 141.778320312 244.987304688 c 2
 141.778320312 244.987304688 368.958984375 244.758789062 369.010742188 244.758789062 c 0
 396.606445312 244.758789062 419.010742188 267.163085938 419.010742188 294.758789062 c 0
369.026367188 294.760742188 m 1
 141.831054688 294.970703125 l 1025
486.5234375 -138.801757812 m 0
 486.5234375 -111.255859375 464.19921875 -88.8828125 436.671875 -88.802734375 c 0
 56.1943359375 -87.6953125 56.1943359375 -87.6953125 56.1201171875 -87.6953125 c 0
 28.5244140625 -87.6953125 6.1201171875 -110.099609375 6.1201171875 -137.6953125 c 0
 6.1201171875 -165.241210938 28.443359375 -187.615234375 55.9716796875 -187.6953125 c 2
 55.9716796875 -187.6953125 436.375 -188.801757812 436.5234375 -188.801757812 c 0
 464.119140625 -188.801757812 486.5234375 -166.397460938 486.5234375 -138.801757812 c 0
436.508789062 -138.80859375 m 1
 56.130859375 -137.686523438 l 1025
EndSplineSet
EndChar

StartChar: uniE1B9
Encoding: 57785 57785 117
Width: 1000
Flags: H
LayerCount: 2
Fore
SplineSet
106.03515625 -129.94140625 m 0
 122.592773438 -129.94140625 136.03515625 -116.499023438 136.03515625 -99.826171875 c 2
 134.16015625 396.37109375 l 1
 510.880859375 664.485351562 l 1
 914.3203125 387.060546875 l 2
 934.108398438 373.452148438 961.2890625 387.711914062 961.2890625 411.796875 c 0
 961.2890625 422.05859375 956.125976562 431.123046875 948.2578125 436.533203125 c 2
 527.5546875 725.830078125 l 2
 526.143554688 726.801757812 509.918945312 737.4375 493.21875 725.551757812 c 2
 86.734375 436.254882812 l 2
 79.0908203125 430.815429688 74.1015625 421.883789062 74.1015625 411.681640625 c 2
 76.03515625 -100.056640625 l 2
 76.09765625 -116.561523438 89.5166015625 -129.94140625 106.03515625 -129.94140625 c 0
EndSplineSet
EndChar

StartChar: uniE1BA
Encoding: 57786 57786 118
Width: 1000
Flags: H
LayerCount: 2
Fore
SplineSet
323.962890625 168.1015625 m 0
 267.56640625 284.810546875 445.447265625 496.96875 543.145507812 484.048828125 c 0
 641.458007812 471.034179688 738.401367188 263.098632812 665.524414062 159.498046875 c 0
 593.217773438 56.7314453125 380.594726562 50.88671875 323.962890625 168.1015625 c 0
714.631835938 125.033203125 m 0
 816.837890625 270.327148438 686.208007812 544.57421875 534.923828125 544.57421875 c 0
 411.569335938 544.57421875 253.31640625 364.49609375 253.31640625 218.165039062 c 0
 253.31640625 100.671875 359.262695312 21.1669921875 490.48046875 21.1669921875 c 0
 575.686523438 21.1669921875 665.1171875 54.6611328125 714.631835938 125.033203125 c 0
432.79296875 737.578125 m 0
 416.2421875 737.578125 402.802734375 724.145507812 402.79296875 707.596679688 c 2
 402.32421875 -58.3212890625 l 2
 402.32421875 -74.8974609375 415.766601562 -88.33984375 432.32421875 -88.33984375 c 0
 448.875 -88.33984375 462.314453125 -74.9072265625 462.32421875 -58.3583984375 c 2
 462.79296875 707.559570312 l 2
 462.79296875 724.135742188 449.350585938 737.578125 432.79296875 737.578125 c 0
560.80078125 -119.86328125 m 0
 576.950195312 -119.86328125 590.13671875 -107.075195312 590.776367188 -91.0810546875 c 0
 621.54296875 678.12109375 621.54296875 678.12109375 621.54296875 678.73046875 c 0
 621.54296875 695.288085938 608.100585938 708.73046875 591.54296875 708.73046875 c 0
 575.393554688 708.73046875 562.20703125 695.942382812 561.567382812 679.948242188 c 2
 561.567382812 679.948242188 530.825195312 -88.6455078125 530.80078125 -89.86328125 c 0
 530.80078125 -106.420898438 544.243164062 -119.86328125 560.80078125 -119.86328125 c 0
EndSplineSet
EndChar

StartChar: uniE1BB
Encoding: 57787 57787 119
Width: 1000
Flags: H
LayerCount: 2
Fore
SplineSet
689.51171875 680.78125 m 0
 673.004882812 680.78125 659.594726562 667.421875 659.51171875 650.934570312 c 2
 655.868164062 -77.208984375 l 1
 428.680664062 -83.2529296875 l 2
 412.498046875 -83.68359375 399.4921875 -96.9560546875 399.4921875 -113.2421875 c 0
 399.4921875 -130.08203125 413.391601562 -143.681640625 430.303710938 -143.231445312 c 2
 686.534179688 -136.415039062 l 2
 702.666015625 -135.985351562 715.641601562 -122.794921875 715.72265625 -106.579101562 c 2
 715.72265625 -106.579101562 719.51171875 650.627929688 719.51171875 650.78125 c 0
 719.51171875 667.338867188 706.069335938 680.78125 689.51171875 680.78125 c 0
347.16796875 704.6875 m 0
 326.544921875 704.6875 312.127929688 684.288085938 318.793945312 664.927734375 c 2
 558.676757812 -31.732421875 l 2
 562.73046875 -43.5048828125 573.909179688 -51.97265625 587.05078125 -51.97265625 c 0
 607.673828125 -51.97265625 622.090820312 -31.5732421875 615.424804688 -12.212890625 c 2
 375.541992188 684.447265625 l 2
 371.48828125 696.219726562 360.309570312 704.6875 347.16796875 704.6875 c 0
347.16796875 674.697265625 m 1
 587.05078125 -21.9697265625 l 1025
EndSplineSet
EndChar

StartChar: uniE1BC
Encoding: 57788 57788 120
Width: 1000
Flags: H
LayerCount: 2
Fore
SplineSet
470.831054688 274.390625 m 1
 603.166992188 231.7421875 830.6015625 374.565429688 830.6015625 522.147460938 c 0
 830.6015625 564.28125 811.797851562 625.681640625 719.779296875 673.84375 c 0
 472.711914062 803.154296875 261.791992188 537.486328125 392.747070312 299.775390625 c 0
 429.416992188 233.206054688 442.49609375 166.369140625 442.49609375 104.758789062 c 0
 442.49609375 -21.3779296875 387.508789062 -122.357421875 368.783203125 -145.760742188 c 0
 342.477539062 -161 353.200195312 -201.748046875 383.9453125 -201.748046875 c 0
 398.327148438 -201.748046875 408.583007812 -193.723632812 421.465820312 -175.5234375 c 0
 462.3984375 -117.696289062 549.227539062 74.609375 470.831054688 274.390625 c 1
770.6015625 522.147460938 m 0
 770.6015625 432.705078125 627.244140625 326.631835938 523.4375 326.631835938 c 0
 451.854492188 326.631835938 438.822265625 377.419921875 436.3203125 415.043945312 c 0
 435.42578125 428.483398438 425.665039062 439.513671875 412.840820312 442.330078125 c 0
 412.840820312 445.108398438 412.69140625 447.874023438 412.69140625 450.625976562 c 0
 412.69140625 589.825195312 539.047851562 700.709960938 692.017578125 620.6484375 c 0
 736.66796875 597.278320312 770.6015625 565.31640625 770.6015625 522.147460938 c 0
340.391601562 290.307617188 m 0
 340.391601562 414.333007812 219.569335938 518.564453125 219.569335938 582.70703125 c 0
 219.569335938 604.423828125 237.807617188 638.9609375 372.6328125 670.412109375 c 0
 385.903320312 673.506835938 395.80078125 685.420898438 395.80078125 699.62890625 c 0
 395.80078125 718.952148438 377.7421875 733.225585938 358.96875 728.845703125 c 0
 213.588867188 694.93359375 121.354492188 639.952148438 174.875 520.646484375 c 0
 206.811523438 449.452148438 280.391601562 371.329101562 280.391601562 290.307617188 c 0
 280.391601562 249.904296875 262.974609375 204.729492188 199.557617188 151.860351562 c 0
 178.07421875 133.94921875 190.899414062 98.80859375 218.75 98.80859375 c 0
 226.046875 98.80859375 232.739257812 101.418945312 237.942382812 105.756835938 c 0
 310.6171875 166.345703125 340.391601562 229.083007812 340.391601562 290.307617188 c 0
EndSplineSet
EndChar

StartChar: uniE1BD
Encoding: 57789 57789 121
Width: 1000
Flags: H
LayerCount: 2
Fore
SplineSet
357.060546875 498.2890625 m 0
 357.060546875 419.4921875 374.483398438 404.41796875 374.483398438 150.419921875 c 0
 374.483398438 19.3681640625 369.55859375 -97.310546875 369.53125 -98.59375 c 0
 369.53125 -115.151367188 382.973632812 -128.59375 399.53125 -128.59375 c 0
 415.659179688 -128.59375 428.831054688 -115.83984375 429.50390625 -99.876953125 c 0
 430.053710938 -86.8427734375 444.362304688 262.16015625 421.918945312 429.220703125 c 0
 393.932617188 637.547851562 492.685546875 729.959960938 576.862304688 686.5859375 c 0
 625.0859375 661.737304688 675.7890625 586.0078125 675.7890625 444.651367188 c 0
 675.7890625 428.4296875 674.98046875 412.744140625 674.98046875 412.421875 c 0
 674.98046875 395.864257812 688.422851562 382.421875 704.98046875 382.421875 c 0
 721.03515625 382.421875 734.162109375 395.061523438 734.943359375 410.923828125 c 0
 735.51171875 422.4453125 735.7890625 433.686523438 735.7890625 444.651367188 c 0
 735.7890625 789.129882812 463.3046875 842.072265625 380.830078125 636.043945312 c 0
 365.604492188 598.006835938 357.060546875 552.013671875 357.060546875 498.2890625 c 0
EndSplineSet
EndChar

StartChar: uniE1BE
Encoding: 57790 57790 122
Width: 1000
Flags: H
LayerCount: 2
Fore
SplineSet
78.7412109375 107.021484375 m 0
 54.6630859375 82.0634765625 73.265625 51.9140625 97.67578125 51.9140625 c 0
 108.74609375 51.9140625 118.424804688 57.923828125 123.623046875 66.85546875 c 0
 158.677734375 94.85546875 358.7421875 198.637695312 554.587890625 90.0712890625 c 0
 785.893554688 -38.158203125 1044.59277344 168.3203125 918.801757812 410.1796875 c 0
 893.4609375 458.90625 846.84375 518.819335938 770.81640625 518.819335938 c 0
 627.376953125 518.819335938 489.176757812 297.798828125 529.129882812 168.201171875 c 1
 316.7265625 251.047851562 111.950195312 141.4453125 78.7412109375 107.021484375 c 0
582.045898438 218.240234375 m 0
 582.045898438 319.396484375 684.791015625 458.819335938 770.81640625 458.819335938 c 0
 812.244140625 458.819335938 842.998046875 425.888671875 865.534179688 382.5546875 c 0
 944.3515625 231.012695312 831.935546875 106.416015625 694.139648438 110.961914062 c 0
 691.135742188 123.512695312 680.234375 133.009765625 666.991210938 133.897460938 c 0
 630.96484375 136.309570312 582.045898438 148.711914062 582.045898438 218.240234375 c 0
EndSplineSet
EndChar

StartChar: uniE1BF
Encoding: 57791 57791 123
Width: 1000
Flags: H
LayerCount: 2
Fore
SplineSet
569.87890625 327.749023438 m 1
 708.485351562 279.700195312 952.064453125 430.08984375 952.064453125 585.139648438 c 0
 952.064453125 629.2265625 932.125 692.963867188 835.536132812 743.038085938 c 0
 575.346679688 877.942382812 353.731445312 600.485351562 491.672851562 352.443359375 c 0
 530.641601562 282.372070312 544.533203125 212.032226562 544.533203125 147.21875 c 0
 544.533203125 13.60546875 485.334960938 -93.05078125 465.956054688 -116.66796875 c 0
 439.227539062 -131.615234375 449.729492188 -172.880859375 480.732421875 -172.880859375 c 0
 495.091796875 -172.880859375 505.516601562 -164.896484375 518.948242188 -146.104492188 c 0
 562.314453125 -85.4296875 654.806640625 117.5625 569.87890625 327.749023438 c 1
892.064453125 585.139648438 m 0
 892.064453125 490.420898438 739.357421875 378.533203125 628.500976562 378.533203125 c 0
 549.43359375 378.533203125 536.926757812 435.731445312 534.443359375 472.701171875 c 0
 533.509765625 486.599609375 523.092773438 497.916992188 509.615234375 500.231445312 c 0
 503.397460938 651.985351562 641.09765625 776.26171875 807.979492188 689.735351562 c 0
 855.216796875 665.24609375 892.064453125 631.337890625 892.064453125 585.139648438 c 0
308.140625 391.268554688 m 0
 153.775390625 391.268554688 12.337890625 265.991210938 124.235351562 73.93359375 c 0
 139.573242188 47.6083984375 180.17578125 58.6376953125 180.17578125 89.00390625 c 0
 180.17578125 94.49609375 178.697265625 99.64453125 176.116210938 104.07421875 c 0
 82.708984375 264.395507812 214.48046875 331.268554688 308.140625 331.268554688 c 0
 365.361328125 331.268554688 444.2734375 306.541992188 444.2734375 221.92578125 c 0
 444.2734375 191.899414062 434.115234375 152.233398438 406.963867188 103.088867188 c 0
 395.99609375 83.236328125 410.420898438 58.61328125 433.2421875 58.61328125 c 0
 444.551757812 58.61328125 454.408203125 64.884765625 459.520507812 74.1376953125 c 0
 573.7265625 280.857421875 449.704101562 391.268554688 308.140625 391.268554688 c 0
EndSplineSet
EndChar

StartChar: uniE1C0
Encoding: 57792 57792 124
Width: 1000
Flags: H
LayerCount: 2
Fore
SplineSet
378.491210938 321.801757812 m 1
 517.1015625 273.758789062 760.6875 424.157226562 760.6875 579.208007812 c 0
 760.6875 623.294921875 740.748046875 687.02734375 644.166992188 737.1015625 c 0
 383.979492188 871.982421875 162.364257812 594.53125 300.287109375 346.484375 c 0
 339.262695312 276.411132812 353.15625 206.0703125 353.15625 141.254882812 c 0
 353.15625 7.65234375 293.958984375 -99.0087890625 274.580078125 -122.629882812 c 0
 247.861328125 -137.583984375 258.368164062 -178.837890625 289.365234375 -178.837890625 c 0
 303.7265625 -178.837890625 314.146484375 -170.852539062 327.576171875 -152.059570312 c 0
 356.513671875 -111.564453125 413.15625 1.7666015625 413.15625 141.254882812 c 0
 413.15625 198.3359375 403.544921875 259.811523438 378.491210938 321.801757812 c 1
700.6875 579.208007812 m 0
 700.6875 484.48046875 547.9609375 372.588867188 437.106445312 372.588867188 c 0
 358.05078125 372.588867188 345.541015625 429.76953125 343.056640625 466.744140625 c 0
 342.123046875 480.639648438 331.7109375 491.955078125 318.237304688 494.272460938 c 0
 312.029296875 646.033203125 449.734375 770.307617188 616.614257812 683.796875 c 0
 663.84375 659.310546875 700.6875 625.404296875 700.6875 579.208007812 c 0
697.155273438 307.178710938 m 0
 697.155273438 246.771484375 655.52734375 198.092773438 620.791992188 198.092773438 c 0
 610.57421875 198.092773438 599.916015625 201.793945312 588.341796875 215.592773438 c 0
 578.94140625 226.80078125 569.131835938 245.39453125 561.930664062 273.431640625 c 0
 558.606445312 286.377929688 546.848632812 295.95703125 532.87109375 295.95703125 c 0
 513.265625 295.95703125 498.953125 277.400390625 503.811523438 258.482421875 c 0
 512.595703125 224.280273438 525.391601562 197.294921875 542.354492188 177.0703125 c 0
 563.735351562 151.579101562 591.904296875 138.092773438 620.791992188 138.092773438 c 0
 708.004882812 138.092773438 787.62890625 254.854492188 745.635742188 373.587890625 c 0
 741.515625 385.23828125 730.397460938 393.59375 717.34375 393.59375 c 0
 700.786132812 393.59375 687.34375 380.151367188 687.34375 363.59375 c 0
 687.34375 352.361328125 697.155273438 338.63671875 697.155273438 307.178710938 c 0
EndSplineSet
EndChar

StartChar: uniE1C1
Encoding: 57793 57793 125
Width: 1000
Flags: H
LayerCount: 2
Fore
SplineSet
91.6572265625 491.595703125 m 2
 74.77734375 472.270507812 88.62890625 441.875 114.2578125 441.875 c 0
 123.268554688 441.875 131.357421875 445.856445312 136.858398438 452.154296875 c 2
 251.689453125 583.623046875 l 1
 251.689453125 583.623046875 246.075195312 -90.2919921875 246.07421875 -90.546875 c 0
 246.07421875 -118.374023438 281.165039062 -131.212890625 299.094726562 -109.776367188 c 2
 922.708007812 635.809570312 l 2
 938.97265625 655.255859375 925.025390625 685.0390625 899.6875 685.0390625 c 0
 890.444335938 685.0390625 882.171875 680.849609375 876.666992188 674.268554688 c 2
 306.770507812 -7.0947265625 l 1
 306.770507812 -7.0947265625 312.362304688 664.081054688 312.36328125 664.3359375 c 0
 312.36328125 691.853515625 277.939453125 704.866210938 259.762695312 684.056640625 c 2
 91.6572265625 491.595703125 l 2
EndSplineSet
EndChar

StartChar: uniE1C2
Encoding: 57794 57794 126
Width: 1000
Flags: H
LayerCount: 2
Fore
SplineSet
362.227539062 542.837890625 m 2
 347.241210938 523.192382812 361.358398438 494.66796875 386.09375 494.66796875 c 0
 395.823242188 494.66796875 404.477539062 499.309570312 409.959960938 506.498046875 c 2
 492.671875 614.932617188 l 1
 492.671875 614.932617188 468.53125 -127.701171875 468.515625 -128.69140625 c 0
 468.515625 -145.249023438 481.958007812 -158.69140625 498.515625 -158.69140625 c 0
 514.741210938 -158.69140625 527.9765625 -145.78125 528.5 -129.681640625 c 2
 528.5 -129.681640625 555.6875 706.705078125 555.703125 707.6953125 c 0
 555.703125 736.180664062 519.189453125 748.615234375 501.836914062 725.865234375 c 2
 362.227539062 542.837890625 l 2
386.0859375 524.663085938 m 1
 525.697265625 707.702148438 l 1
 498.509765625 -128.68359375 l 1025
246.85546875 267.109375 m 0
 246.85546875 250.661132812 260.12109375 237.287109375 276.52734375 237.111328125 c 0
 769.484375 231.81640625 769.484375 231.81640625 769.6484375 231.81640625 c 0
 786.206054688 231.81640625 799.6484375 245.258789062 799.6484375 261.81640625 c 0
 799.6484375 278.264648438 786.3828125 291.638671875 769.9765625 291.814453125 c 2
 769.9765625 291.814453125 277.18359375 297.107421875 276.85546875 297.109375 c 0
 260.297851562 297.109375 246.85546875 283.666992188 246.85546875 267.109375 c 0
276.848632812 267.119140625 m 1
 769.655273438 261.8203125 l 1025
EndSplineSet
EndChar

StartChar: uniE1C3
Encoding: 57795 57795 127
Width: 1000
Flags: H
LayerCount: 2
Fore
SplineSet
356.640625 550.262695312 m 0
 356.640625 640.05078125 587.1484375 692.580078125 722.3671875 627.108398438 c 0
 771.9296875 603.111328125 810.6171875 562.298828125 807.454101562 493.129882812 c 0
 804.868164062 436.546875 720.14453125 420.072265625 671.810546875 343.063476562 c 0
 648.846679688 306.477539062 639.178710938 262.711914062 642.444335938 211.465820312 c 0
 643.44140625 195.807617188 656.474609375 183.3984375 672.3828125 183.3984375 c 0
 688.940429688 183.3984375 702.3828125 196.840820312 702.321289062 215.331054688 c 0
 696.711914062 303.368164062 737.783203125 336.181640625 786.806640625 373.276367188 c 0
 820.271484375 398.59765625 864.640625 430.168945312 867.389648438 490.346679688 c 0
 874.19140625 639.051757812 739.1328125 716.452148438 577.783203125 716.452148438 c 0
 433.680664062 716.452148438 296.640625 654.181640625 296.640625 550.14453125 c 0
 296.657226562 533.6015625 310.09375 520.17578125 326.640625 520.17578125 c 0
 343.198242188 520.17578125 356.640625 533.618164062 356.640625 550.262695312 c 0
334.922851562 59.88671875 m 0
 334.922851562 133.9765625 424.1953125 227.508789062 468.353515625 221.541015625 c 0
 521.939453125 214.3125 580.55859375 88.75 538.455078125 27.7314453125 c 0
 519.146484375 -0.2509765625 478.569335938 -18.2568359375 436.451171875 -18.2568359375 c 0
 382.567382812 -18.2568359375 334.922851562 10.81640625 334.922851562 59.88671875 c 0
612.766601562 80.572265625 m 0
 612.766601562 175.611328125 544.483398438 281.780273438 464.6484375 281.780273438 c 0
 379.25 281.780273438 274.922851562 159.62109375 274.922851562 59.88671875 c 0
 274.922851562 -22.140625 347.09765625 -78.2568359375 436.451171875 -78.2568359375 c 0
 515.900390625 -78.2568359375 612.766601562 -32.337890625 612.766601562 80.572265625 c 0
EndSplineSet
EndChar

